<?xml version="1.0" encoding="UTF-8"?>
<svg width="84px" height="51px" viewBox="0 0 84 51" xmlns="http://www.w3.org/2000/svg" xmlns:xlink="http://www.w3.org/1999/xlink" version="1.1">
 <!-- Generated by Pixelmator Pro 2.0.3 -->
 <g id="New-Group-副本">
  <path id="路径" d="M24.056 18.796 C24.056 19.804 24.165 20.622 24.356 21.221 24.574 21.821 24.846 22.475 25.228 23.183 25.364 23.402 25.418 23.62 25.418 23.81 25.418 24.083 25.255 24.355 24.901 24.628 L23.184 25.773 C22.938 25.936 22.693 26.018 22.475 26.018 22.203 26.018 21.93 25.881 21.658 25.636 21.276 25.227 20.949 24.791 20.677 24.355 20.404 23.892 20.131 23.374 19.832 22.747 17.706 25.255 15.035 26.508 11.819 26.508 9.53 26.508 7.704 25.854 6.369 24.546 5.034 23.238 4.352 21.494 4.352 19.314 4.352 16.997 5.17 15.117 6.832 13.7 8.495 12.283 10.702 11.574 13.509 11.574 14.436 11.574 15.39 11.656 16.398 11.792 17.406 11.928 18.442 12.146 19.532 12.392 L19.532 10.402 C19.532 8.331 19.096 6.887 18.251 6.042 17.379 5.197 15.907 4.788 13.809 4.788 12.855 4.788 11.874 4.897 10.866 5.142 9.857 5.388 8.876 5.687 7.922 6.069 7.486 6.26 7.159 6.369 6.969 6.423 6.778 6.478 6.642 6.505 6.533 6.505 6.151 6.505 5.96 6.232 5.96 5.66 L5.96 4.325 C5.96 3.889 6.015 3.562 6.151 3.371 6.287 3.18 6.533 2.989 6.914 2.799 7.868 2.308 9.012 1.899 10.348 1.572 11.683 1.218 13.1 1.055 14.599 1.055 17.842 1.055 20.213 1.79 21.739 3.262 23.238 4.734 24.001 6.968 24.001 9.966 L24.001 18.796 Z M12.991 22.938 C13.891 22.938 14.817 22.775 15.798 22.448 16.779 22.121 17.651 21.521 18.387 20.704 18.823 20.186 19.15 19.613 19.314 18.959 19.477 18.305 19.586 17.515 19.586 16.588 L19.586 15.444 C18.796 15.253 17.951 15.09 17.079 14.98 16.207 14.872 15.362 14.817 14.517 14.817 12.692 14.817 11.356 15.171 10.457 15.907 9.558 16.643 9.122 17.678 9.122 19.041 9.122 20.322 9.449 21.276 10.13 21.93 10.784 22.611 11.738 22.938 12.991 22.938 Z M34.875 25.881 C34.384 25.881 34.057 25.8 33.839 25.609 33.621 25.445 33.431 25.064 33.267 24.546 L26.863 3.48 C26.699 2.935 26.618 2.581 26.618 2.39 26.618 1.954 26.836 1.709 27.272 1.709 L29.942 1.709 C30.46 1.709 30.814 1.79 31.005 1.981 31.223 2.145 31.387 2.526 31.55 3.044 L36.129 21.085 40.38 3.044 C40.516 2.499 40.68 2.145 40.898 1.981 41.116 1.818 41.497 1.709 41.988 1.709 L44.168 1.709 C44.686 1.709 45.04 1.79 45.258 1.981 45.476 2.145 45.667 2.526 45.776 3.044 L50.082 21.303 54.797 3.044 C54.96 2.499 55.151 2.145 55.342 1.981 55.56 1.818 55.914 1.709 56.404 1.709 L58.939 1.709 C59.375 1.709 59.62 1.927 59.62 2.39 59.62 2.526 59.593 2.662 59.566 2.826 59.539 2.989 59.484 3.207 59.375 3.507 L52.807 24.573 C52.644 25.118 52.453 25.473 52.235 25.636 52.017 25.8 51.662 25.909 51.199 25.909 L48.856 25.909 C48.338 25.909 47.983 25.827 47.765 25.636 47.547 25.445 47.357 25.091 47.248 24.546 L43.024 6.968 38.827 24.519 C38.69 25.064 38.527 25.418 38.309 25.609 38.091 25.8 37.709 25.881 37.219 25.881 Z M69.894 26.617 C68.477 26.617 67.06 26.454 65.698 26.127 64.335 25.8 63.272 25.445 62.563 25.037 62.127 24.791 61.828 24.519 61.719 24.274 61.61 24.028 61.555 23.756 61.555 23.51 L61.555 22.121 C61.555 21.548 61.773 21.276 62.182 21.276 62.345 21.276 62.509 21.303 62.673 21.358 62.836 21.412 63.081 21.521 63.354 21.63 64.28 22.039 65.289 22.366 66.352 22.584 67.442 22.802 68.505 22.911 69.595 22.911 71.311 22.911 72.647 22.611 73.574 22.012 74.5 21.412 74.991 20.54 74.991 19.423 74.991 18.66 74.745 18.033 74.255 17.515 73.764 16.997 72.838 16.534 71.502 16.098 L67.551 14.872 C65.561 14.245 64.09 13.318 63.19 12.092 62.291 10.893 61.828 9.557 61.828 8.14 61.828 6.996 62.073 5.987 62.563 5.115 63.054 4.243 63.708 3.48 64.526 2.88 65.343 2.254 66.27 1.79 67.36 1.463 68.45 1.136 69.595 1 70.794 1 71.393 1 72.02 1.027 72.62 1.109 73.246 1.191 73.819 1.3 74.391 1.409 74.936 1.545 75.454 1.681 75.944 1.845 76.435 2.008 76.817 2.172 77.089 2.335 77.471 2.553 77.743 2.771 77.907 3.017 78.07 3.235 78.152 3.534 78.152 3.916 L78.152 5.197 C78.152 5.769 77.934 6.069 77.525 6.069 77.307 6.069 76.953 5.96 76.49 5.742 74.936 5.033 73.192 4.679 71.257 4.679 69.704 4.679 68.477 4.924 67.632 5.442 66.788 5.96 66.352 6.75 66.352 7.868 66.352 8.631 66.624 9.285 67.169 9.803 67.714 10.32 68.723 10.838 70.167 11.301 L74.037 12.528 C75.999 13.155 77.416 14.027 78.261 15.144 79.106 16.261 79.514 17.542 79.514 18.959 79.514 20.131 79.269 21.194 78.806 22.121 78.315 23.047 77.661 23.865 76.817 24.519 75.972 25.2 74.963 25.691 73.792 26.045 72.565 26.426 71.284 26.617 69.894 26.617 Z" fill="#ffffff" fill-opacity="1" stroke="none"/>
  <path id="路径-1" d="M75.047 39.862 C66.081 46.484 53.055 50 41.854 50 26.156 50 12.012 44.195 1.329 34.548 0.485 33.785 1.248 32.749 2.256 33.349 13.811 40.053 28.064 44.113 42.808 44.113 52.755 44.113 63.683 42.042 73.739 37.791 75.238 37.11 76.519 38.772 75.047 39.862 Z" fill="#ffffff" fill-opacity="1" stroke="none"/>
  <path id="路径-2" d="M78.781 35.611 C77.636 34.139 71.205 34.902 68.289 35.256 67.417 35.365 67.28 34.602 68.071 34.03 73.194 30.433 81.615 31.468 82.596 32.667 83.577 33.894 82.324 42.315 77.527 46.348 76.792 46.975 76.083 46.648 76.41 45.83 77.5 43.132 79.926 37.055 78.781 35.611 Z" fill="#ffffff" fill-opacity="1" stroke="none"/>
 </g>
</svg>
