<?xml version="1.0" encoding="UTF-8"?>
<svg width="192px" height="53px" viewBox="0 0 192 53" xmlns="http://www.w3.org/2000/svg" xmlns:xlink="http://www.w3.org/1999/xlink" version="1.1">
 <!-- Generated by Pixelmator Pro 2.0.3 -->
 <path id="CENTRIFUGO" d="M190 24.91 C190 27.699 189.363 29.867 188.09 31.414 186.817 32.961 185.014 33.734 182.682 33.734 180.321 33.734 178.508 32.967 177.242 31.432 175.976 29.896 175.343 27.715 175.343 24.887 175.343 22.059 175.979 19.887 177.252 18.371 178.526 16.855 180.343 16.098 182.703 16.098 185.029 16.098 186.826 16.867 188.096 18.406 189.365 19.945 190 22.113 190 24.91 Z M178.06 24.91 C178.06 27.02 178.449 28.619 179.226 29.709 180.004 30.799 181.156 31.344 182.682 31.344 184.201 31.344 185.348 30.805 186.122 29.727 186.896 28.648 187.283 27.043 187.283 24.91 187.283 22.809 186.899 21.215 186.132 20.129 185.366 19.043 184.223 18.5 182.703 18.5 181.17 18.5 180.013 19.043 179.232 20.129 178.451 21.215 178.06 22.809 178.06 24.91 Z M166.602 24.207 L172.358 24.207 172.358 32.809 C171.416 33.145 170.512 33.383 169.646 33.523 168.779 33.664 167.843 33.734 166.837 33.734 164.469 33.734 162.643 32.967 161.36 31.432 160.076 29.896 159.434 27.73 159.434 24.934 159.434 22.176 160.158 20.018 161.606 18.459 163.053 16.9 165.047 16.121 167.586 16.121 169.22 16.121 170.767 16.465 172.229 17.152 L171.331 19.484 C170.061 18.844 168.792 18.523 167.522 18.523 165.853 18.523 164.533 19.098 163.563 20.246 162.593 21.395 162.108 22.965 162.108 24.957 162.108 27.051 162.545 28.643 163.419 29.732 164.293 30.822 165.55 31.367 167.19 31.367 168.018 31.367 168.902 31.254 169.844 31.027 L169.844 26.609 166.602 26.609 Z M156.203 16.367 L156.203 27.453 C156.203 28.719 155.955 29.826 155.459 30.775 154.963 31.725 154.247 32.455 153.309 32.967 152.371 33.479 151.249 33.734 149.944 33.734 148.004 33.734 146.495 33.172 145.418 32.047 144.341 30.922 143.803 29.375 143.803 27.406 L143.803 16.367 146.371 16.367 146.371 27.207 C146.371 28.621 146.67 29.664 147.269 30.336 147.868 31.008 148.789 31.344 150.03 31.344 152.44 31.344 153.646 29.957 153.646 27.184 L153.646 16.367 Z M134.816 33.5 L132.28 33.5 132.28 16.367 141.107 16.367 141.107 18.734 134.816 18.734 134.816 24.09 140.711 24.09 140.711 26.469 134.816 26.469 Z M125.594 33.5 L125.594 16.367 128.151 16.367 128.151 33.5 Z M114.146 24.336 L115.922 24.336 C117.113 24.336 117.976 24.094 118.511 23.609 119.046 23.125 119.314 22.406 119.314 21.453 119.314 20.484 119.025 19.789 118.447 19.367 117.869 18.945 116.999 18.734 115.836 18.734 L114.146 18.734 Z M114.146 26.656 L114.146 33.5 111.589 33.5 111.589 16.367 116.008 16.367 C118.026 16.367 119.52 16.781 120.49 17.609 121.46 18.438 121.945 19.687 121.945 21.359 121.945 23.492 120.933 25.012 118.907 25.918 L123.326 33.5 120.415 33.5 116.671 26.656 Z M104.592 33.5 L102.035 33.5 102.035 18.77 97.435 18.77 97.435 16.367 109.193 16.367 109.193 18.77 104.592 18.77 Z M95.06 33.5 L91.925 33.5 84.232 19.848 84.147 19.848 84.2 20.609 C84.3 22.063 84.35 23.391 84.35 24.594 L84.35 33.5 82.028 33.5 82.028 16.367 85.131 16.367 92.802 29.949 92.866 29.949 C92.852 29.77 92.823 29.115 92.781 27.986 92.738 26.857 92.716 25.977 92.716 25.344 L92.716 16.367 95.06 16.367 Z M78.648 33.5 L69.8 33.5 69.8 16.367 78.648 16.367 78.648 18.734 72.357 18.734 72.357 23.398 78.252 23.398 78.252 25.742 72.357 25.742 72.357 31.121 78.648 31.121 Z M62.567 18.523 C61.098 18.523 59.943 19.094 59.101 20.234 58.259 21.375 57.839 22.949 57.839 24.957 57.839 27.059 58.243 28.648 59.053 29.727 59.863 30.805 61.034 31.344 62.567 31.344 63.231 31.344 63.873 31.271 64.493 31.127 65.114 30.982 65.759 30.797 66.43 30.57 L66.43 32.973 C65.203 33.48 63.812 33.734 62.257 33.734 59.968 33.734 58.21 32.975 56.983 31.455 55.756 29.936 55.143 27.762 55.143 24.934 55.143 23.152 55.44 21.594 56.036 20.258 56.631 18.922 57.493 17.898 58.62 17.188 59.747 16.477 61.07 16.121 62.589 16.121 64.187 16.121 65.663 16.488 67.018 17.223 L66.098 19.555 C65.57 19.281 65.012 19.041 64.424 18.834 63.835 18.627 63.217 18.523 62.567 18.523 Z" fill="#ffffff" fill-opacity="1" stroke="none"/>
 <path id="形状-副本-6" d="M45.852 24.832 C42.769 24.832 42.702 24.821 42.598 24.325 42.539 24.046 42.382 23.261 42.248 22.58 42.115 21.899 41.539 20.379 40.97 19.203 40.089 17.382 39.63 16.758 37.882 15.011 36.134 13.263 35.51 12.803 33.69 11.922 32.513 11.353 30.994 10.778 30.312 10.644 29.631 10.511 28.846 10.353 28.568 10.295 28.071 10.19 28.061 10.123 28.061 7.04 28.061 3.893 28.061 3.893 29.506 3.893 30.3 3.893 30.984 3.983 31.025 4.094 31.067 4.205 31.926 4.549 32.936 4.857 33.945 5.166 35.581 5.824 36.57 6.319 37.559 6.814 38.962 7.655 39.688 8.188 40.413 8.721 41.621 9.771 42.371 10.521 43.122 11.271 44.172 12.479 44.705 13.205 45.238 13.931 46.079 15.334 46.574 16.323 47.069 17.312 47.726 18.947 48.035 19.957 48.344 20.966 48.687 21.826 48.798 21.867 48.909 21.908 49 22.592 49 23.387 49 24.832 49 24.832 45.852 24.832 Z" fill="#ffffff" fill-opacity="1" stroke="none"/>
 <path id="形状-副本-5" d="M29.13 48.85 C28.061 48.985 28.061 48.985 28.061 45.806 28.061 42.691 28.071 42.625 28.568 42.521 28.846 42.462 29.631 42.305 30.312 42.171 30.994 42.037 32.513 41.462 33.69 40.893 35.51 40.012 36.134 39.552 37.882 37.805 39.63 36.057 40.089 35.433 40.97 33.612 41.539 32.436 42.115 30.916 42.248 30.235 42.382 29.554 42.539 28.769 42.598 28.49 42.702 27.994 42.768 27.984 45.881 27.984 49.057 27.984 49.057 27.984 48.936 29.053 48.869 29.641 48.542 31.085 48.21 32.262 47.878 33.438 47.174 35.272 46.646 36.337 46.118 37.402 45.247 38.871 44.711 39.602 44.175 40.332 43.122 41.544 42.371 42.294 41.621 43.045 40.41 44.097 39.679 44.634 38.949 45.17 37.48 46.041 36.414 46.569 35.349 47.097 33.515 47.796 32.339 48.122 31.162 48.448 29.719 48.776 29.13 48.85 Z" fill="#ffffff" fill-opacity="1" stroke="none"/>
 <path id="形状-副本-4" d="M24.177 48.907 C23.775 48.898 22.333 48.587 20.974 48.215 19.615 47.843 17.629 47.105 16.561 46.574 15.493 46.043 14.021 45.17 13.291 44.634 12.56 44.097 11.349 43.045 10.598 42.294 9.848 41.544 8.795 40.332 8.259 39.602 7.722 38.871 6.852 37.402 6.324 36.337 5.796 35.272 5.097 33.438 4.771 32.262 4.444 31.085 4.117 29.641 4.042 29.053 3.907 27.984 3.907 27.984 7.086 27.984 10.202 27.984 10.268 27.994 10.372 28.49 10.43 28.769 10.588 29.554 10.722 30.235 10.855 30.916 11.43 32.436 12 33.612 12.881 35.433 13.34 36.057 15.088 37.805 16.836 39.552 17.459 40.012 19.28 40.893 20.456 41.462 21.976 42.037 22.657 42.171 23.338 42.305 24.124 42.462 24.402 42.521 24.898 42.625 24.909 42.692 24.909 45.775 24.909 48.923 24.909 48.923 24.177 48.907 Z" fill="#ffffff" fill-opacity="1" stroke="none"/>
 <path id="形状-副本-3" d="M26.935 40.714 C25.635 40.76 24.267 40.716 23.896 40.615 23.524 40.515 22.686 40.271 22.034 40.073 21.381 39.875 20.267 39.4 19.557 39.017 18.847 38.634 17.989 38.094 17.65 37.817 17.032 37.314 17.032 37.314 18.904 35.452 20.775 33.59 20.775 33.59 21.929 34.17 22.564 34.489 23.506 34.899 24.024 35.082 24.542 35.264 25.649 35.414 26.485 35.414 27.321 35.414 28.428 35.264 28.946 35.082 29.463 34.899 30.406 34.489 31.041 34.17 32.195 33.59 32.195 33.59 34.066 35.452 35.937 37.314 35.937 37.314 35.32 37.817 34.981 38.094 34.134 38.627 33.44 39.002 32.745 39.378 31.529 39.897 30.738 40.157 29.764 40.477 28.535 40.657 26.935 40.714 Z" fill="#ffffff" fill-opacity="1" stroke="none"/>
 <path id="形状-副本-2" d="M17.423 34.002 C15.543 35.883 15.543 35.883 14.852 34.917 14.472 34.385 13.912 33.444 13.608 32.824 13.304 32.205 12.86 31.04 12.622 30.235 12.314 29.197 12.188 28.085 12.188 26.408 12.188 24.741 12.315 23.612 12.618 22.58 12.855 21.775 13.391 20.458 13.809 19.653 14.227 18.848 14.796 17.912 15.074 17.572 15.579 16.955 15.579 16.955 17.441 18.827 19.302 20.698 19.302 20.698 18.723 21.852 18.404 22.486 17.994 23.429 17.811 23.947 17.628 24.465 17.479 25.572 17.479 26.408 17.479 27.243 17.628 28.351 17.811 28.868 17.994 29.386 18.404 30.33 18.724 30.966 19.304 32.122 19.304 32.122 17.423 34.002 Z" fill="#ffffff" fill-opacity="1" stroke="none"/>
 <path id="形状-副本-1" d="M20.967 19.112 C20.842 19.165 19.901 18.366 18.876 17.336 17.013 15.463 17.013 15.463 17.978 14.773 18.508 14.394 19.449 13.835 20.068 13.531 20.687 13.227 21.852 12.783 22.657 12.544 23.696 12.237 24.808 12.111 26.485 12.111 28.152 12.111 29.28 12.237 30.312 12.541 31.117 12.778 32.435 13.313 33.239 13.731 34.044 14.149 34.981 14.719 35.32 14.997 35.937 15.502 35.937 15.502 34.066 17.363 32.195 19.225 32.195 19.225 31.041 18.645 30.406 18.327 29.463 17.916 28.946 17.734 28.428 17.551 27.321 17.402 26.485 17.402 25.649 17.402 24.564 17.543 24.073 17.717 23.582 17.89 22.733 18.252 22.187 18.523 21.641 18.793 21.092 19.058 20.967 19.112 Z" fill="#ffffff" fill-opacity="1" stroke="none"/>
 <path id="形状-副本" d="M7.086 24.832 C3.907 24.832 3.907 24.832 4.042 23.762 4.117 23.174 4.444 21.73 4.771 20.554 5.097 19.377 5.796 17.543 6.324 16.478 6.852 15.413 7.722 13.944 8.259 13.213 8.795 12.483 9.848 11.271 10.598 10.521 11.349 9.771 12.56 8.718 13.291 8.182 14.021 7.645 15.49 6.774 16.555 6.246 17.621 5.718 19.455 5.02 20.631 4.693 21.807 4.367 23.251 4.039 23.839 3.965 24.909 3.83 24.909 3.83 24.909 7.009 24.909 10.124 24.899 10.19 24.402 10.295 24.124 10.353 23.338 10.511 22.657 10.644 21.976 10.778 20.456 11.353 19.28 11.922 17.459 12.803 16.836 13.263 15.088 15.011 13.34 16.758 12.881 17.382 12 19.203 11.43 20.379 10.855 21.899 10.722 22.58 10.588 23.261 10.43 24.046 10.372 24.325 10.268 24.821 10.202 24.832 7.086 24.832 Z" fill="#ffffff" fill-opacity="1" stroke="none"/>
</svg>
