<?xml version="1.0" encoding="UTF-8"?>
<svg width="192px" height="53px" viewBox="0 0 192 53" xmlns="http://www.w3.org/2000/svg" xmlns:xlink="http://www.w3.org/1999/xlink" version="1.1">
 <!-- Generated by Pixelmator Pro 2.0.3 -->
 <path id="Encryption" d="M177.47 13.249 L177.47 11.805 173.562 11.805 173.562 22.498 177.741 22.498 177.741 15.932 C177.741 14.543 178.675 13.981 179.879 13.981 181.231 13.981 181.821 14.487 181.821 15.932 L181.821 22.498 186 22.498 186 15.256 C186 12.761 184.058 11.617 181.551 11.617 179.781 11.617 178.331 12.142 177.519 13.249 Z M164.491 11.617 C160.607 11.617 157.633 13.305 157.633 17.301 157.633 21.016 160.681 22.685 164.491 22.685 168.375 22.685 171.35 20.997 171.35 17.001 171.35 13.287 168.301 11.617 164.491 11.617 Z M164.491 20.34 C162.672 20.34 161.935 18.933 161.935 17.189 161.935 14.956 162.771 13.962 164.491 13.962 166.31 13.962 167.048 15.369 167.048 17.114 167.048 19.327 166.212 20.34 164.491 20.34 Z M153.307 7.002 C151.979 7.002 150.947 7.64 150.947 8.803 150.947 10.004 151.979 10.66 153.307 10.66 154.634 10.66 155.74 9.947 155.74 8.803 155.74 7.64 154.634 7.002 153.307 7.002 Z M155.396 11.805 L151.217 11.805 151.217 22.498 155.396 22.498 Z M146.252 14.056 L149.275 14.056 149.275 11.805 146.252 11.805 146.252 8.597 142.196 10.379 142.196 11.805 140.18 11.805 140.18 14.056 142.196 14.056 142.196 19.402 C142.196 21.635 144.064 22.685 146.719 22.685 147.653 22.685 148.735 22.573 149.472 22.385 L149.472 20.134 C149.202 20.209 148.735 20.284 148.292 20.284 146.891 20.284 146.252 19.928 146.252 18.896 Z M129.709 13.136 C129.856 12.761 129.955 12.217 129.955 11.861 L129.955 11.805 125.776 11.805 125.776 26.812 129.955 26.812 129.955 24.092 C129.955 22.742 129.832 22.047 129.586 21.259 L129.684 21.259 C130.495 22.179 131.7 22.685 133.298 22.685 136.739 22.685 139.197 20.397 139.197 17.189 139.197 13.587 137.206 11.617 133.543 11.617 131.921 11.617 130.643 12.161 129.783 13.136 Z M132.437 20.397 C130.692 20.397 129.881 19.346 129.881 17.207 129.881 15.087 130.79 13.943 132.314 13.943 133.912 13.943 134.945 15.087 134.945 17.189 134.945 19.271 133.912 20.397 132.437 20.397 Z M120.196 11.805 L118.303 16.532 C117.934 17.451 117.59 18.671 117.32 19.946 L117.172 19.946 C116.976 18.671 116.779 17.77 116.287 16.513 L114.37 11.805 110.068 11.805 114.714 22.498 115.624 22.498 115.181 23.473 C114.788 24.355 114.37 24.768 113.78 24.768 113.313 24.768 112.993 24.599 112.6 24.13 L110.314 25.874 C111.322 26.681 112.354 27 113.952 27 116.779 27 117.959 25.743 118.795 23.811 L124.055 11.805 Z M105.078 14.618 L105.078 11.805 101.686 11.805 101.686 22.498 105.889 22.498 105.889 16.72 C105.889 14.581 106.971 14.225 108.79 14.225 109.159 14.225 109.601 14.243 109.97 14.3 L109.97 11.636 C109.601 11.579 109.159 11.561 108.79 11.561 106.824 11.561 105.594 12.592 105.201 14.618 Z M95.565 18.577 C95.221 20.078 94.336 20.528 93.451 20.528 92.026 20.528 91.091 19.627 91.091 17.114 91.091 14.468 92.173 13.756 93.402 13.756 94.508 13.756 95.319 14.468 95.639 16.025 L99.474 15.294 C98.613 12.63 96.598 11.617 93.402 11.617 89.395 11.617 86.913 13.812 86.913 17.32 86.913 20.772 89.199 22.685 93.279 22.685 95.959 22.685 98.441 22.029 99.597 19.421 Z M76.171 13.249 L76.171 11.805 72.262 11.805 72.262 22.498 76.441 22.498 76.441 15.932 C76.441 14.543 77.375 13.981 78.58 13.981 79.932 13.981 80.522 14.487 80.522 15.932 L80.522 22.498 84.7 22.498 84.7 15.256 C84.7 12.761 82.758 11.617 80.251 11.617 78.481 11.617 77.031 12.142 76.22 13.249 Z M62.725 19.965 L62.725 16.307 69.116 16.307 69.116 13.868 62.725 13.868 62.725 10.398 69.829 10.398 69.829 7.865 58.3 7.865 58.3 22.498 70.05 22.498 70.05 19.965 Z" fill="#ffffff" fill-opacity="1" stroke="none"/>
 <path id="Algorithm" d="M163.364 34.312 L163.364 33.084 159.265 33.084 159.265 42.173 163.648 42.173 163.648 36.592 C163.648 35.412 164.627 34.934 165.891 34.934 167.309 34.934 167.928 35.364 167.928 36.592 L167.928 42.173 172.311 42.173 172.311 36.592 C172.311 35.412 173.291 34.934 174.58 34.934 175.972 34.934 176.617 35.364 176.617 36.592 L176.617 42.173 181 42.173 181 36.018 C181 33.897 178.963 32.925 176.307 32.925 174.142 32.925 172.44 33.467 171.615 34.631 171.099 33.467 169.526 32.925 167.644 32.925 165.788 32.925 164.267 33.371 163.416 34.312 Z M147.198 34.248 C147.301 33.929 147.507 33.084 147.507 31.681 L147.507 29.417 143.124 29.417 143.124 42.173 147.507 42.173 147.507 36.592 C147.507 35.412 148.487 34.934 149.75 34.934 151.169 34.934 151.787 35.364 151.787 36.592 L151.787 42.173 156.171 42.173 156.171 36.018 C156.171 33.897 154.134 32.925 151.504 32.925 149.699 32.925 148.203 33.355 147.353 34.248 Z M137.942 34.998 L141.113 34.998 141.113 33.084 137.942 33.084 137.942 30.357 133.687 31.872 133.687 33.084 131.573 33.084 131.573 34.998 133.687 34.998 133.687 39.542 C133.687 41.44 135.647 42.333 138.431 42.333 139.411 42.333 140.546 42.237 141.319 42.077 L141.319 40.164 C141.036 40.228 140.546 40.291 140.082 40.291 138.612 40.291 137.942 39.989 137.942 39.112 Z M127.551 29.002 C126.159 29.002 125.076 29.544 125.076 30.533 125.076 31.553 126.159 32.111 127.551 32.111 128.943 32.111 130.103 31.505 130.103 30.533 130.103 29.544 128.943 29.002 127.551 29.002 Z M129.742 33.084 L125.359 33.084 125.359 42.173 129.742 42.173 Z M118.656 35.476 L118.656 33.084 115.097 33.084 115.097 42.173 119.506 42.173 119.506 37.262 C119.506 35.444 120.641 35.141 122.549 35.141 122.936 35.141 123.4 35.157 123.786 35.205 L123.786 32.941 C123.4 32.893 122.936 32.877 122.549 32.877 120.486 32.877 119.197 33.754 118.784 35.476 Z M105.583 32.925 C101.51 32.925 98.39 34.36 98.39 37.756 98.39 40.913 101.587 42.333 105.583 42.333 109.657 42.333 112.777 40.897 112.777 37.501 112.777 34.344 109.58 32.925 105.583 32.925 Z M105.583 40.339 C103.675 40.339 102.902 39.143 102.902 37.66 102.902 35.763 103.778 34.918 105.583 34.918 107.491 34.918 108.265 36.114 108.265 37.597 108.265 39.478 107.388 40.339 105.583 40.339 Z M88.798 40.052 C87.458 40.052 86.993 39.813 86.993 39.383 86.993 39.159 87.148 38.968 87.432 38.824 88.308 39.016 89.288 39.112 90.319 39.112 93.646 39.112 96.508 38.123 96.508 36.034 96.508 34.902 95.657 34.089 94.342 33.594 95.115 33.259 96.069 33.196 97.229 33.196 L97.229 31.011 C94.935 31.011 92.975 31.601 92.15 33.084 91.557 33.004 90.938 32.972 90.319 32.972 87.019 32.972 84.106 33.945 84.106 36.034 84.106 37.023 84.75 37.772 85.807 38.282 84.544 38.745 83.667 39.414 83.667 40.419 83.667 41.025 84.131 41.647 85.111 42.061 83.642 42.412 82.765 42.938 82.765 43.847 82.765 44.9 84.518 46 89.675 46 95.115 46 97.616 44.374 97.616 42.62 97.616 41.025 95.734 40.052 92.047 40.052 Z M90.319 34.408 C91.351 34.408 92.253 34.838 92.253 36.034 92.253 37.23 91.351 37.692 90.319 37.692 89.288 37.692 88.36 37.214 88.36 36.034 88.36 34.838 89.288 34.408 90.319 34.408 Z M90.526 42.54 C92.227 42.54 93.078 42.763 93.078 43.401 93.078 44.023 91.995 44.405 90.113 44.405 88.128 44.405 86.555 44.118 86.555 43.273 86.555 43.018 86.632 42.731 86.942 42.492 87.277 42.524 87.638 42.54 88.051 42.54 Z M81.037 29.417 L76.654 29.417 76.654 40.116 C76.654 41.838 78.33 42.333 80.548 42.333 81.244 42.333 82.017 42.269 82.507 42.173 L82.507 40.387 C82.352 40.419 82.172 40.419 82.069 40.419 81.295 40.419 81.037 40.164 81.037 39.67 Z M69.693 29.735 L62.344 29.735 57.214 42.173 61.622 42.173 62.757 39.255 68.919 39.255 70.079 42.173 74.849 42.173 Z M68.043 37.023 L63.634 37.023 65.206 33.084 C65.438 32.526 65.645 31.952 65.799 31.378 L65.928 31.378 C66.057 31.952 66.264 32.526 66.496 33.084 Z" fill="#ffffff" fill-opacity="1" stroke="none"/>
 <g id="-副本">
  <path id="路径" d="M27.288 12.516 C27.858 12.516 28.419 12.549 28.972 12.614 L28.972 7.813 C28.708 7.715 28.476 7.56 28.281 7.365 27.923 7.007 27.703 6.519 27.703 5.973 27.703 5.432 27.923 4.94 28.281 4.582 28.639 4.224 29.127 4.004 29.672 4.004 30.214 4.004 30.706 4.224 31.064 4.582 31.422 4.94 31.642 5.428 31.642 5.973 31.642 6.515 31.422 7.007 31.064 7.365 30.873 7.556 30.633 7.715 30.372 7.813 L30.372 12.846 C31.682 13.131 32.924 13.595 34.071 14.209 L34.071 12.354 C34.071 11.967 34.384 11.654 34.771 11.654 L39.67 11.654 C39.768 11.406 39.918 11.182 40.105 10.995 40.463 10.637 40.952 10.417 41.497 10.417 42.038 10.417 42.53 10.637 42.889 10.995 43.247 11.353 43.466 11.841 43.466 12.386 43.466 12.927 43.247 13.42 42.889 13.778 42.53 14.136 42.042 14.356 41.497 14.356 40.952 14.356 40.459 14.136 40.109 13.778 39.906 13.574 39.747 13.326 39.65 13.049 L35.479 13.049 35.479 15.068 C38.392 17.086 40.524 20.15 41.33 23.718 L50.217 23.718 50.217 16.545 C50.001 16.447 49.802 16.309 49.639 16.142 49.281 15.784 49.061 15.296 49.061 14.75 49.061 14.209 49.281 13.717 49.639 13.359 49.997 13.001 50.485 12.781 51.031 12.781 51.572 12.781 52.064 13.001 52.422 13.359 52.78 13.717 53 14.205 53 14.75 53 15.292 52.78 15.784 52.422 16.142 52.198 16.366 51.922 16.533 51.617 16.63 L51.617 24.422 C51.617 24.809 51.303 25.122 50.917 25.122 L41.578 25.122 C41.652 25.708 41.688 26.306 41.688 26.917 41.688 27.73 41.619 28.528 41.489 29.305 L49.183 29.305 C49.281 29.041 49.436 28.809 49.631 28.613 49.989 28.255 50.477 28.036 51.022 28.036 51.564 28.036 52.056 28.255 52.414 28.613 52.772 28.972 52.992 29.46 52.992 30.005 52.992 30.546 52.772 31.039 52.414 31.397 52.056 31.755 51.568 31.974 51.022 31.974 50.481 31.974 49.989 31.755 49.631 31.397 49.44 31.205 49.281 30.969 49.183 30.705 L41.184 30.705 C40.28 34.017 38.229 36.853 35.479 38.757 L35.479 39.632 39.65 39.632 C39.747 39.356 39.906 39.107 40.109 38.904 40.459 38.546 40.956 38.326 41.497 38.326 42.042 38.326 42.53 38.546 42.889 38.904 43.247 39.262 43.466 39.754 43.466 40.296 43.466 40.841 43.247 41.329 42.889 41.687 42.53 42.045 42.038 42.265 41.497 42.265 40.952 42.265 40.463 42.045 40.105 41.687 39.922 41.504 39.772 41.28 39.67 41.028 L34.775 41.028 C34.388 41.028 34.075 40.715 34.075 40.328 L34.075 39.616 C32.928 40.23 31.682 40.694 30.376 40.979 L30.376 44.869 C30.641 44.967 30.877 45.125 31.068 45.317 31.426 45.675 31.646 46.167 31.646 46.708 31.646 47.254 31.426 47.742 31.068 48.1 30.71 48.458 30.218 48.678 29.676 48.678 29.131 48.678 28.643 48.458 28.285 48.1 27.927 47.742 27.707 47.25 27.707 46.708 27.707 46.163 27.927 45.675 28.285 45.317 28.48 45.121 28.712 44.967 28.977 44.869 L28.977 41.215 C28.423 41.28 27.862 41.313 27.292 41.313 26.442 41.313 25.607 41.24 24.798 41.097 L24.798 46.603 C24.798 46.989 24.484 47.302 24.098 47.302 L16.302 47.302 C16.204 47.612 16.037 47.888 15.813 48.108 15.455 48.466 14.963 48.686 14.422 48.686 13.876 48.686 13.388 48.466 13.03 48.108 12.672 47.75 12.452 47.258 12.452 46.716 12.452 46.171 12.672 45.683 13.03 45.325 13.388 44.967 13.881 44.747 14.422 44.747 14.967 44.747 15.455 44.967 15.813 45.325 15.98 45.492 16.114 45.687 16.216 45.903 L23.394 45.903 23.394 40.78 C22.055 40.405 20.794 39.84 19.642 39.116 19.516 39.229 19.353 39.299 19.17 39.299 L14.914 39.299 C14.816 39.555 14.662 39.783 14.471 39.97 14.112 40.328 13.62 40.548 13.079 40.548 12.538 40.548 12.045 40.328 11.687 39.97 11.329 39.616 11.11 39.124 11.11 38.578 11.11 38.033 11.329 37.545 11.687 37.187 12.045 36.829 12.538 36.609 13.079 36.609 13.62 36.609 14.112 36.829 14.471 37.187 14.67 37.386 14.829 37.63 14.926 37.899 L17.982 37.899 C15.329 35.649 13.502 32.459 13.018 28.837 L5.783 28.837 5.783 36.015 C5.999 36.113 6.198 36.251 6.361 36.418 6.719 36.776 6.939 37.264 6.939 37.809 6.939 38.351 6.719 38.843 6.361 39.201 6.003 39.559 5.515 39.779 4.969 39.779 4.428 39.779 3.936 39.559 3.578 39.201 3.22 38.847 3 38.355 3 37.809 3 37.268 3.22 36.776 3.578 36.418 3.802 36.194 4.078 36.027 4.383 35.93 L4.383 28.141 C4.383 27.755 4.697 27.442 5.083 27.442 L12.896 27.442 C12.888 27.267 12.888 27.092 12.888 26.917 12.888 25.651 13.05 24.426 13.356 23.259 L6.813 23.259 C6.715 23.523 6.56 23.755 6.365 23.95 6.007 24.308 5.519 24.528 4.973 24.528 4.432 24.528 3.94 24.308 3.582 23.95 3.224 23.592 3.004 23.104 3.004 22.559 3.004 22.018 3.224 21.525 3.582 21.167 3.94 20.809 4.428 20.589 4.973 20.589 5.515 20.589 6.007 20.809 6.365 21.167 6.556 21.358 6.715 21.594 6.813 21.859 L13.799 21.859 C14.743 19.34 16.375 17.159 18.462 15.54 L18.462 14.791 14.922 14.791 C14.825 15.06 14.666 15.304 14.466 15.503 14.108 15.861 13.616 16.081 13.075 16.081 12.534 16.081 12.041 15.861 11.683 15.503 11.325 15.145 11.105 14.657 11.105 14.111 11.105 13.566 11.325 13.074 11.683 12.72 12.041 12.362 12.534 12.142 13.075 12.142 13.616 12.142 14.108 12.362 14.466 12.72 14.658 12.911 14.808 13.139 14.91 13.391 L19.166 13.391 C19.553 13.391 19.866 13.705 19.866 14.091 L19.866 14.579 C20.957 13.924 22.141 13.408 23.39 13.054 L23.39 6.783 16.216 6.783 C16.118 6.999 15.98 7.198 15.813 7.361 15.455 7.719 14.967 7.939 14.422 7.939 13.881 7.939 13.388 7.719 13.03 7.361 12.672 7.003 12.452 6.515 12.452 5.969 12.452 5.428 12.672 4.936 13.03 4.578 13.388 4.22 13.876 4 14.422 4 14.963 4 15.455 4.22 15.813 4.578 16.037 4.802 16.204 5.078 16.302 5.383 L24.094 5.383 C24.48 5.383 24.794 5.697 24.794 6.083 L24.794 12.732 C25.603 12.59 26.437 12.516 27.288 12.516 Z M21.494 25.476 L22.645 25.476 22.645 25.338 22.645 23.047 C22.645 21.737 23.182 20.549 24.045 19.686 24.908 18.823 26.1 18.286 27.41 18.286 28.72 18.286 29.908 18.823 30.771 19.686 31.634 20.549 32.171 21.741 32.171 23.047 L32.171 25.338 32.171 25.476 33.086 25.476 C33.29 25.476 33.457 25.643 33.457 25.847 L33.457 33.683 C33.457 33.887 33.29 34.054 33.086 34.054 L21.494 34.054 C21.29 34.054 21.123 33.887 21.123 33.683 L21.123 25.847 C21.123 25.643 21.29 25.476 21.494 25.476 Z M24.493 25.476 L30.315 25.476 30.315 25.338 30.315 23.023 C30.315 22.221 29.986 21.493 29.461 20.964 28.932 20.435 28.203 20.109 27.406 20.109 26.604 20.109 25.876 20.439 25.347 20.964 24.818 21.493 24.493 22.221 24.493 23.023 L24.493 25.338 Z M27.43 29.765 L28.016 32.479 26.405 32.483 26.877 29.732 C26.437 29.59 26.116 29.179 26.116 28.691 26.116 28.089 26.604 27.6 27.207 27.6 27.809 27.6 28.297 28.089 28.297 28.691 28.305 29.224 27.927 29.663 27.43 29.765 Z" fill="#ffffff" fill-opacity="1" stroke="none"/>
 </g>
</svg>
