<?xml version="1.0" encoding="UTF-8"?>
<svg width="68px" height="29px" viewBox="0 0 68 29" xmlns="http://www.w3.org/2000/svg" xmlns:xlink="http://www.w3.org/1999/xlink" version="1.1">
 <!-- Generated by Pixelmator Pro 2.0.3 -->
 <g id="-副本">
  <g id="group">
   <g id="group-1">
    <g id="group-2">
     <path id="路径" d="M5.057 9.546 C4.926 9.546 4.894 9.481 4.959 9.383 L5.644 8.502 C5.709 8.404 5.872 8.339 6.003 8.339 L17.65 8.339 C17.78 8.339 17.813 8.437 17.748 8.534 L17.193 9.383 C17.128 9.481 16.965 9.578 16.867 9.578 Z" fill="#ffffff" fill-opacity="1" stroke="none"/>
    </g>
   </g>
  </g>
  <g id="group-3">
   <g id="group-4">
    <g id="group-5">
     <path id="路径-1" d="M0.13 12.547 C0 12.547 -0.033 12.482 0.033 12.384 L0.718 11.503 C0.783 11.405 0.946 11.34 1.077 11.34 L15.953 11.34 C16.084 11.34 16.149 11.438 16.117 11.536 L15.856 12.319 C15.823 12.449 15.692 12.515 15.562 12.515 Z" fill="#ffffff" fill-opacity="1" stroke="none"/>
    </g>
   </g>
  </g>
  <g id="group-6">
   <g id="group-7">
    <g id="group-8">
     <path id="路径-2" d="M8.026 15.549 C7.895 15.549 7.863 15.451 7.928 15.353 L8.385 14.537 C8.45 14.439 8.58 14.342 8.711 14.342 L15.236 14.342 C15.366 14.342 15.431 14.439 15.431 14.57 L15.366 15.353 C15.366 15.483 15.236 15.581 15.138 15.581 Z" fill="#ffffff" fill-opacity="1" stroke="none"/>
    </g>
   </g>
  </g>
  <g id="group-9">
   <g id="CXHf1q_3_">
    <g id="group-10">
     <g id="group-11">
      <path id="路径-3" d="M41.89 8.959 C39.835 9.481 38.432 9.872 36.409 10.394 35.92 10.525 35.887 10.557 35.463 10.068 34.974 9.513 34.615 9.154 33.93 8.828 31.874 7.817 29.884 8.11 28.025 9.317 25.806 10.753 24.664 12.874 24.697 15.516 24.73 18.126 26.524 20.279 29.101 20.638 31.32 20.932 33.179 20.149 34.647 18.485 34.941 18.126 35.202 17.735 35.528 17.278 34.354 17.278 32.886 17.278 29.232 17.278 28.547 17.278 28.383 16.854 28.612 16.299 29.036 15.288 29.819 13.591 30.276 12.743 30.374 12.547 30.602 12.221 31.091 12.221 L42.967 12.221 C42.901 13.102 42.901 13.983 42.771 14.864 42.412 17.213 41.531 19.366 40.096 21.258 37.747 24.357 34.68 26.282 30.798 26.804 27.6 27.228 24.632 26.609 22.022 24.651 19.607 22.824 18.237 20.41 17.878 17.408 17.454 13.852 18.498 10.655 20.651 7.849 22.968 4.815 26.034 2.89 29.786 2.205 32.853 1.651 35.789 2.009 38.432 3.804 40.161 4.946 41.401 6.512 42.216 8.404 42.412 8.698 42.282 8.861 41.89 8.959 Z" fill="#ffffff" fill-opacity="1" stroke="none"/>
     </g>
     <g id="group-12">
      <path id="路径-4" d="M52.689 27 C49.72 26.935 47.012 26.087 44.728 24.129 42.804 22.465 41.596 20.345 41.205 17.832 40.618 14.146 41.629 10.883 43.848 7.98 46.229 4.848 49.1 3.217 52.982 2.531 56.31 1.944 59.442 2.27 62.281 4.195 64.858 5.957 66.456 8.339 66.881 11.471 67.435 15.875 66.163 19.464 63.129 22.53 60.976 24.716 58.333 26.087 55.299 26.706 54.418 26.87 53.537 26.902 52.689 27 Z M60.454 13.82 C60.421 13.396 60.421 13.069 60.356 12.743 59.768 9.513 56.8 7.686 53.7 8.404 50.666 9.089 48.709 11.014 47.991 14.081 47.404 16.625 48.643 19.203 50.992 20.247 52.787 21.03 54.581 20.932 56.31 20.051 58.888 18.713 60.29 16.625 60.454 13.82 Z" fill="#ffffff" fill-opacity="1" stroke="none"/>
     </g>
    </g>
   </g>
  </g>
 </g>
</svg>
