<?xml version="1.0" encoding="UTF-8"?>
<svg width="159px" height="53px" viewBox="0 0 159 53" xmlns="http://www.w3.org/2000/svg" xmlns:xlink="http://www.w3.org/1999/xlink" version="1.1">
 <!-- Generated by Pixelmator Pro 2.0.3 -->
 <path id="Golang" d="M136.115 37.891 L140.577 38.443 C140.651 38.971 140.822 39.335 141.091 39.533 141.462 39.816 142.045 39.957 142.842 39.957 143.861 39.957 144.626 39.802 145.135 39.49 145.478 39.283 145.738 38.948 145.914 38.485 146.034 38.155 146.094 37.547 146.094 36.66 L146.094 34.466 C144.927 36.089 143.454 36.9 141.675 36.9 139.692 36.9 138.121 36.047 136.963 34.339 136.055 32.99 135.601 31.31 135.601 29.301 135.601 26.781 136.196 24.857 137.387 23.526 138.578 22.196 140.058 21.531 141.828 21.531 143.653 21.531 145.159 22.347 146.345 23.979 L146.345 21.871 150 21.871 150 35.358 C150 37.132 149.856 38.457 149.569 39.335 149.282 40.212 148.879 40.901 148.36 41.401 147.841 41.901 147.148 42.292 146.282 42.575 145.416 42.858 144.32 43 142.995 43 140.493 43 138.719 42.564 137.672 41.691 136.625 40.818 136.101 39.712 136.101 38.372 136.101 38.24 136.106 38.08 136.115 37.891 Z M139.604 29.074 C139.604 30.669 139.907 31.836 140.514 32.577 141.121 33.317 141.869 33.688 142.759 33.688 143.713 33.688 144.519 33.308 145.177 32.549 145.835 31.789 146.164 30.664 146.164 29.173 146.164 27.616 145.849 26.461 145.219 25.706 144.589 24.951 143.792 24.574 142.828 24.574 141.892 24.574 141.121 24.944 140.514 25.685 139.907 26.425 139.604 27.555 139.604 29.074 Z M132.516 36.9 L128.61 36.9 128.61 29.23 C128.61 27.607 128.527 26.557 128.36 26.081 128.193 25.604 127.922 25.234 127.547 24.97 127.172 24.706 126.72 24.574 126.192 24.574 125.515 24.574 124.908 24.762 124.371 25.14 123.834 25.517 123.465 26.017 123.266 26.64 123.067 27.263 122.967 28.414 122.967 30.093 L122.967 36.9 119.062 36.9 119.062 21.871 122.689 21.871 122.689 24.078 C123.977 22.38 125.599 21.531 127.554 21.531 128.415 21.531 129.203 21.689 129.917 22.005 130.63 22.321 131.17 22.724 131.536 23.215 131.902 23.706 132.157 24.262 132.3 24.885 132.444 25.508 132.516 26.399 132.516 27.56 Z M106.178 26.456 L102.634 25.805 C103.032 24.352 103.718 23.276 104.691 22.578 105.663 21.88 107.109 21.531 109.027 21.531 110.769 21.531 112.066 21.741 112.919 22.161 113.771 22.581 114.371 23.114 114.718 23.76 115.066 24.406 115.24 25.593 115.24 27.319 L115.198 31.961 C115.198 33.282 115.26 34.256 115.386 34.884 115.511 35.511 115.745 36.183 116.087 36.9 L112.224 36.9 C112.122 36.636 111.997 36.245 111.848 35.726 111.783 35.49 111.737 35.334 111.709 35.259 111.042 35.919 110.329 36.414 109.569 36.745 108.809 37.075 107.998 37.24 107.137 37.24 105.617 37.24 104.42 36.82 103.544 35.98 102.668 35.141 102.231 34.079 102.231 32.796 102.231 31.947 102.43 31.19 102.828 30.525 103.227 29.86 103.785 29.35 104.503 28.996 105.221 28.643 106.256 28.334 107.609 28.069 109.435 27.72 110.699 27.395 111.404 27.093 L111.404 26.697 C111.404 25.932 111.218 25.387 110.848 25.062 110.477 24.736 109.777 24.574 108.749 24.574 108.054 24.574 107.512 24.713 107.123 24.991 106.734 25.27 106.419 25.758 106.178 26.456 Z M111.404 29.683 C110.903 29.853 110.111 30.055 109.027 30.291 107.943 30.527 107.234 30.758 106.9 30.985 106.391 31.353 106.136 31.82 106.136 32.386 106.136 32.942 106.34 33.424 106.748 33.829 107.155 34.235 107.674 34.438 108.304 34.438 109.008 34.438 109.68 34.202 110.32 33.73 110.792 33.372 111.102 32.933 111.251 32.414 111.353 32.074 111.404 31.428 111.404 30.475 Z M95.351 36.9 L95.351 16.153 99.256 16.153 99.256 36.9 Z M77.06 29.173 C77.06 27.852 77.38 26.574 78.019 25.338 78.659 24.102 79.564 23.159 80.736 22.507 81.908 21.856 83.217 21.531 84.663 21.531 86.896 21.531 88.726 22.269 90.153 23.746 91.58 25.222 92.293 27.088 92.293 29.343 92.293 31.617 91.573 33.501 90.132 34.997 88.691 36.492 86.877 37.24 84.691 37.24 83.338 37.24 82.047 36.929 80.82 36.306 79.592 35.683 78.659 34.77 78.019 33.568 77.38 32.365 77.06 30.9 77.06 29.173 Z M81.063 29.386 C81.063 30.876 81.41 32.018 82.105 32.81 82.8 33.603 83.657 33.999 84.677 33.999 85.696 33.999 86.551 33.603 87.241 32.81 87.931 32.018 88.276 30.867 88.276 29.357 88.276 27.885 87.931 26.753 87.241 25.961 86.551 25.168 85.696 24.772 84.677 24.772 83.657 24.772 82.8 25.168 82.105 25.961 81.41 26.753 81.063 27.895 81.063 29.386 Z M65.33 29.272 L65.33 25.777 74.197 25.777 74.197 34.042 C73.335 34.891 72.087 35.638 70.451 36.285 68.816 36.931 67.16 37.254 65.483 37.254 63.352 37.254 61.494 36.799 59.909 35.888 58.325 34.978 57.134 33.676 56.337 31.982 55.541 30.289 55.142 28.447 55.142 26.456 55.142 24.295 55.587 22.375 56.476 20.696 57.366 19.017 58.668 17.729 60.382 16.832 61.688 16.144 63.314 15.799 65.26 15.799 67.79 15.799 69.766 16.339 71.188 17.42 72.61 18.5 73.525 19.993 73.933 21.899 L69.847 22.677 C69.56 21.658 69.02 20.854 68.228 20.264 67.435 19.675 66.446 19.38 65.26 19.38 63.463 19.38 62.033 19.96 60.973 21.121 59.912 22.281 59.381 24.003 59.381 26.286 59.381 28.749 59.919 30.596 60.993 31.827 62.068 33.058 63.477 33.674 65.219 33.674 66.08 33.674 66.944 33.501 67.811 33.157 68.677 32.813 69.421 32.395 70.041 31.905 L70.041 29.272 Z" fill="#ffffff" fill-opacity="1" stroke="none"/>
 <path id="路径-副本" d="M27 2 C26.967 2 26.934 2.001 26.9 2.004 23.285 2.021 20.62 2.937 18.859 3.877 17.439 4.635 16.996 5.163 16.701 5.459 16.16 5.244 15.627 5 15 5 12.25 5 10 7.25 10 10 10 12.028 11.253 13.718 13 14.498 L13 23.879 10.439 26.439 C9.853 27.025 9.853 27.975 10.439 28.561 10.732 28.854 11.116 29 11.5 29 11.884 29 12.268 28.854 12.561 28.561 L12.734 28.387 C12.664 28.841 12.598 29.292 12.516 29.766 12.263 31.217 12 32.944 12 36 12 38.838 13.348 41.781 15.836 44.043 L14.439 45.439 C13.853 46.025 13.853 46.975 14.439 47.561 14.732 47.854 15.116 48 15.5 48 15.884 48 16.269 47.854 16.561 47.561 L18.299 45.822 C20.61 47.147 23.503 47.982 26.912 47.996 26.918 47.997 26.924 47.997 26.93 47.998 26.954 47.998 26.976 48 27 48 27.034 48 27.068 47.999 27.102 47.996 30.505 47.98 33.393 47.145 35.701 45.822 L37.439 47.561 C37.731 47.854 38.116 48 38.5 48 38.884 48 39.268 47.854 39.561 47.561 40.147 46.975 40.147 46.025 39.561 45.439 L38.162 44.041 C40.649 41.779 42 38.837 42 36 42 32.944 41.737 31.217 41.484 29.766 41.402 29.292 41.336 28.841 41.266 28.387 L41.439 28.561 C41.732 28.854 42.116 29 42.5 29 42.884 29 43.268 28.854 43.561 28.561 44.147 27.975 44.147 27.025 43.561 26.439 L41 23.879 41 14.498 C42.747 13.718 44 12.028 44 10 44 7.25 41.75 5 39 5 38.373 5 37.84 5.244 37.299 5.459 37.004 5.163 36.561 4.635 35.141 3.877 33.375 2.934 30.701 2.014 27.07 2.002 27.047 2 27.023 2 27 2 Z M27 4 C30.332 4 32.681 4.83 34.199 5.641 35.717 6.451 36.34 7.178 36.34 7.178 36.653 7.534 37.174 7.621 37.586 7.387 38.018 7.14 38.488 7 39 7 40.668 7 42 8.332 42 10 42 11.405 41.043 12.563 39.75 12.896 39.309 13.01 39.001 13.408 39 13.863 L39 25 C39 27.325 39.268 28.686 39.516 30.109 39.763 31.532 40 33.056 40 36 40 40.472 35.565 46 27 46 18.435 46 14 40.472 14 36 14 33.056 14.237 31.532 14.484 30.109 14.732 28.686 15 27.325 15 25 L15 13.863 C14.999 13.408 14.691 13.01 14.25 12.896 12.957 12.563 12 11.405 12 10 12 8.332 13.332 7 15 7 15.512 7 15.982 7.14 16.414 7.387 16.826 7.621 17.347 7.534 17.66 7.178 17.66 7.178 18.283 6.451 19.801 5.641 21.319 4.83 23.668 4 27 4 Z M21.5 8 C19.027 8 17 10.027 17 12.5 17 14.973 19.027 17 21.5 17 23.973 17 26 14.973 26 12.5 26 10.027 23.973 8 21.5 8 Z M32.498 8.002 C30.025 8.002 28 10.027 28 12.5 28 14.973 30.025 16.998 32.498 16.998 34.971 16.998 36.998 14.973 36.998 12.5 36.998 10.027 34.971 8.002 32.498 8.002 Z M15 9 C14.448 9 14 9.448 14 10 14 10.552 14.448 11 15 11 15.068 11 15.127 10.974 15.191 10.961 15.325 10.414 15.522 9.89 15.785 9.406 15.602 9.165 15.326 9 15 9 Z M39 9 C38.674 9 38.398 9.165 38.215 9.406 38.478 9.89 38.675 10.414 38.809 10.961 38.873 10.974 38.932 11 39 11 39.552 11 40 10.552 40 10 40 9.448 39.552 9 39 9 Z M21.5 10 C22.893 10 24 11.107 24 12.5 24 13.893 22.893 15 21.5 15 20.676 15 19.958 14.606 19.504 14 20.331 13.998 21 13.327 21 12.5 21 11.673 20.331 11.002 19.504 11 19.958 10.394 20.676 10 21.5 10 Z M32.498 10.002 C33.89 10.002 34.998 11.108 34.998 12.5 34.998 13.892 33.89 14.998 32.498 14.998 31.674 14.998 30.957 14.605 30.504 14 31.331 13.998 32 13.327 32 12.5 32 11.673 31.331 11.002 30.504 11 30.957 10.395 31.674 10.002 32.498 10.002 Z M27 16 C25.583 16 24.36 16.662 24.066 17.586 23.765 17.772 23.479 17.982 23.23 18.23 22.511 18.95 22 19.917 22 21 22 21.25 22.058 22.253 22.842 22.939 23.333 23.37 24.042 23.66 25 23.83 L25 25 C24.995 25.361 25.184 25.696 25.496 25.878 25.807 26.06 26.193 26.06 26.504 25.878 26.816 25.696 27.005 25.361 27 25 26.995 25.361 27.184 25.696 27.496 25.878 27.807 26.06 28.193 26.06 28.504 25.878 28.816 25.696 29.005 25.361 29 25 L29 23.83 C29.958 23.66 30.667 23.37 31.158 22.939 31.942 22.253 32 21.25 32 21 32 19.917 31.489 18.95 30.77 18.23 30.521 17.982 30.234 17.772 29.932 17.586 29.638 16.662 28.416 16.001 27 16 Z M24.904 19.428 C25.464 19.794 26.216 19.999 27 20 27.784 20 28.537 19.795 29.098 19.43 29.186 19.496 29.275 19.564 29.355 19.645 29.761 20.05 30 20.583 30 21 30 21.25 30.058 21.247 29.842 21.436 29.626 21.624 28.875 22 27 22 25.125 22 24.374 21.624 24.158 21.436 23.942 21.247 24 21.25 24 21 24 20.583 24.239 20.05 24.645 19.645 24.726 19.563 24.815 19.495 24.904 19.428 Z" fill="#ffffff" fill-opacity="1" stroke="none"/>
</svg>
