<?xml version="1.0" encoding="UTF-8"?>
<svg width="192px" height="53px" viewBox="0 0 192 53" xmlns="http://www.w3.org/2000/svg" xmlns:xlink="http://www.w3.org/1999/xlink" version="1.1">
 <!-- Generated by Pixelmator Pro 2.0.3 -->
 <g id="Layer_1-副本">
  <g id="group">
   <path id="路径" d="M142 16.7 C139.6 18 139.7 22.2 142.3 23.2 145.1 24.2 148.1 24.3 150.9 25 151.6 25.2 152.3 25.5 152.6 26.2 153.3 27.6 152.7 29.7 151.1 30.2 148.8 30.9 146.1 30.9 143.9 30 142.4 29.4 141.7 27.9 141.6 26.5 141 26.5 140.3 26.5 139.7 26.6 139.8 28 140.1 29.5 141.2 30.4 143 31.8 145.3 32 147.5 32.1 149.5 32.1 151.7 31.9 153.4 30.8 155.4 29.4 155.6 25.7 153.2 24.5 151 23.4 148.5 23.3 146.2 22.8 145.1 22.5 143.8 22.4 142.8 21.7 141.5 20.5 142.1 18 143.8 17.6 146 17 148.4 16.9 150.5 17.7 151.8 18.1 152.3 19.5 152.5 20.6 L154.4 20.6 C154.4 19.4 154 18.1 153 17.3 151.4 16 149.2 15.9 147.3 15.9 145.6 15.8 143.7 15.8 142 16.7 Z" fill="#ffffff" fill-opacity="1" stroke="none"/>
   <path id="路径-1" d="M70.7 17.2 C69.7 16.3 68.2 16 66.9 16 64 16 61.1 16.1 58.2 16.1 L58.2 31.5 59.7 31.5 C59.7 29.3 59.6 27.1 59.7 25 L67.1 25 C68.9 24.9 71 24.1 71.7 22.3 72.3 20.6 72.1 18.4 70.7 17.2 Z M69.9 22 C69.4 23.3 67.9 23.7 66.6 23.8 64.3 23.9 62 23.8 59.8 23.8 59.8 21.7 59.8 19.5 59.8 17.4 L66.4 17.4 C67.5 17.4 68.8 17.6 69.5 18.5 70.2 19.4 70.3 20.8 69.9 22 Z" fill="#ffffff" fill-opacity="1" stroke="none"/>
   <path id="路径-2" d="M176.1 16.1 L176.1 31.5 189.4 31.5 C189.4 31.1 189.4 30.7 189.4 30.2 185.6 30.1 181.8 30.2 177.9 30.1 177.9 25.4 177.9 20.7 177.9 16 177.3 16.1 176.7 16.1 176.1 16.1 Z" fill="#ffffff" fill-opacity="1" stroke="none"/>
   <path id="路径-3" d="M99.3 18.1 L99.3 21.4 C98.6 21.4 98 21.4 97.3 21.4 L97.3 22.4 99.3 22.4 99.3 29.4 C99.3 30.1 99.5 30.8 100.1 31.2 101.2 31.7 102.4 31.6 103.6 31.5 103.6 31.2 103.6 30.8 103.6 30.5 102.8 30.6 102 30.7 101.3 30.3 100.8 30 100.9 29.4 100.8 28.9 100.8 26.7 100.8 24.6 100.8 22.4 L103.5 22.4 C103.5 22 103.5 21.7 103.4 21.3 102.5 21.3 101.6 21.3 100.7 21.3 100.7 20.2 100.7 19.1 100.7 18 100.4 18.1 99.8 18.1 99.3 18.1 Z" fill="#ffffff" fill-opacity="1" stroke="none"/>
   <path id="路径-4" d="M86.6 22 C85.2 22.9 85.2 25.5 86.9 26.2 89.2 27 91.8 26.8 94.2 27.5 95.4 27.9 95.5 29.7 94.4 30.3 92.8 31.1 90.9 31 89.2 30.7 88 30.5 87 29.7 86.9 28.4 86.3 28.4 85.7 28.4 85.2 28.4 85.4 29.3 85.6 30.3 86.4 30.9 87.7 31.8 89.4 31.8 90.9 31.9 92.5 31.9 94.2 31.8 95.6 31 96.8 30.3 97.2 28.7 96.5 27.6 96 26.8 95.1 26.5 94.2 26.3 92.3 25.9 90.3 25.9 88.4 25.5 87.7 25.3 87.1 24.8 87.1 24.1 87.1 23.1 88.2 22.6 89.1 22.4 90.5 22.2 92.1 22.1 93.5 22.7 94.3 23 94.5 23.8 94.7 24.6 L96.4 24.6 C96.3 23.7 96 22.7 95.2 22.2 93.7 21.2 91.9 21.2 90.2 21.3 89 21.2 87.7 21.3 86.6 22 Z" fill="#ffffff" fill-opacity="1" stroke="none"/>
   <path id="路径-5" d="M122.1 21.5 C121.4 21.8 121 22.5 120.6 23.2 120.6 22.6 120.6 22 120.6 21.5 120.1 21.5 119.6 21.5 119 21.5 118.9 24.9 119 28.2 119 31.6 L120.5 31.6 C120.5 29.9 120.5 28.1 120.5 26.4 120.5 25.2 120.9 23.8 121.9 23.1 123 22.3 124.4 22.5 125.7 22.5 125.7 22.1 125.7 21.6 125.7 21.2 124.5 21.1 123.3 21 122.1 21.5 Z" fill="#ffffff" fill-opacity="1" stroke="none"/>
   <path id="路径-6" d="M159.7 16.9 C161.9 15.8 164.4 15.6 166.8 15.8 169.1 16 171.4 16.8 172.9 18.6 174.8 20.6 175.2 23.8 174.4 26.4 174 27.9 173 29 171.9 30 172.8 30.6 173.7 31.2 174.6 31.9 174.2 32.3 173.8 32.6 173.4 33 172.5 32.4 171.6 31.7 170.7 31.2 170 31.2 169.3 31.6 168.5 31.8 166.5 32.2 164.3 32.2 162.3 31.8 160.1 31.4 157.9 30.1 156.7 28.1 155.5 26.2 155.4 23.7 155.9 21.6 156.5 19.5 157.9 17.8 159.7 16.9 Z M162.7 17.3 C160.6 17.8 158.6 19.3 157.9 21.4 157.2 23.7 157.4 26.4 159.1 28.3 160.6 30 162.8 30.7 165 30.7 167.4 30.8 170 30.1 171.6 28.2 173.8 25.4 173.5 20.9 170.6 18.7 168.4 16.8 165.4 16.7 162.7 17.3 Z" fill="#ffffff" fill-opacity="1" stroke="none"/>
   <path id="路径-7" d="M99.3 18.1 L100.9 18.1 100.9 21.4 103.6 21.4 C103.6 21.8 103.6 22.1 103.7 22.5 102.8 22.5 101.9 22.5 101 22.5 L101 29 C101 29.5 101 30.1 101.5 30.4 102.2 30.7 103 30.6 103.8 30.6 L103.8 31.6 C102.6 31.7 101.4 31.8 100.3 31.3 99.6 31 99.4 30.2 99.5 29.5 99.5 27.2 99.5 24.8 99.5 22.5 98.8 22.5 98.1 22.5 97.5 22.5 97.5 22.2 97.5 21.8 97.5 21.5 L99.5 21.5 C99.3 20.3 99.3 19.2 99.3 18.1 Z" fill="#ffffff" fill-opacity="1" stroke="none"/>
   <path id="路径-8" d="M82.1 22 C80.3 21 78.1 20.9 76.1 21.2 74.4 21.5 72.8 22.4 72.1 24 71.4 25.6 71.4 27.5 72.2 29.1 73.1 30.8 75 31.7 76.8 31.8 79.1 32 81.7 31.7 83.4 29.9 85.2 27.6 84.8 23.5 82.1 22 Z M81.8 29.5 C80.9 30.4 79.6 30.8 78.4 30.8 77 30.9 75.5 30.6 74.5 29.7 73.2 28.5 73 26.5 73.5 24.8 74 23.3 75.4 22.4 76.9 22.2 78.3 22 79.9 22.1 81.2 22.9 82.2 23.5 82.7 24.6 82.8 25.7 83 27.1 82.8 28.5 81.8 29.5 Z" fill="#ffffff" fill-opacity="1" stroke="none"/>
   <path id="路径-9" d="M86.6 22 C87.6 21.3 88.9 21.2 90.1 21.1 91.8 21 93.7 21 95.1 22 95.9 22.5 96.2 23.5 96.3 24.4 95.7 24.4 95.2 24.4 94.6 24.4 94.5 23.6 94.2 22.9 93.4 22.5 92 21.9 90.5 21.9 89 22.2 88.1 22.3 87 22.8 87 23.9 86.9 24.6 87.6 25.2 88.3 25.3 90.2 25.8 92.2 25.7 94.1 26.1 95 26.3 95.9 26.7 96.4 27.4 97.1 28.5 96.7 30.2 95.5 30.8 94.1 31.6 92.4 31.7 90.8 31.7 89.3 31.6 87.6 31.6 86.3 30.7 85.5 30.1 85.2 29.2 85.1 28.2 L86.8 28.2 C86.8 29.5 87.9 30.4 89.1 30.5 90.8 30.7 92.7 30.9 94.3 30.1 95.4 29.5 95.3 27.7 94.1 27.3 91.7 26.6 89.1 26.8 86.8 26 85.2 25.5 85.2 22.9 86.6 22 Z" fill="#ffffff" fill-opacity="1" stroke="none"/>
   <path id="路径-10" d="M108.4 21.3 C110 20.9 111.8 20.9 113.4 21.4 114.3 21.7 115 22.4 115.7 23 115.7 22.4 115.8 21.9 115.8 21.4 L117.3 21.4 C117.4 24.5 117.3 27.6 117.4 30.7 117.5 32 117.2 33.4 116.2 34.3 114.9 35.5 113 35.7 111.3 35.7 109.8 35.7 108.2 35.6 106.8 34.9 105.9 34.4 105.4 33.4 105.2 32.4 L106.7 32.4 C107 33.1 107.3 33.9 108 34.2 109.1 34.7 110.3 34.7 111.5 34.7 112.8 34.6 114.3 34.4 115.1 33.3 115.9 32.2 115.7 30.8 115.7 29.5 114.1 31.2 111.6 31.5 109.4 31.2 108 31 106.6 30.5 105.6 29.4 104.5 28 104.4 26.1 104.8 24.5 105.2 22.9 106.8 21.7 108.4 21.3 Z M109.7 22.3 C108.6 22.5 107.4 23 106.8 24 106.1 25.2 106.1 26.8 106.5 28 107 29.3 108.5 30 109.8 30.2 111.5 30.4 113.5 30.2 114.7 28.9 116.1 27.2 115.9 24.3 114.1 23 112.9 22.1 111.2 22.1 109.7 22.3 Z" fill="#ffffff" fill-opacity="1" stroke="none"/>
   <path id="路径-11" d="M122.1 21.5 C123.3 21 124.5 21.1 125.7 21.1 L125.7 22.4 C124.4 22.4 123 22.2 121.9 23 120.9 23.7 120.5 25.1 120.5 26.3 L120.5 31.5 C120 31.5 119.5 31.5 119 31.5 118.9 28.1 118.9 24.8 119 21.4 L120.6 21.4 120.6 23.1 C121 22.5 121.4 21.8 122.1 21.5 Z" fill="#ffffff" fill-opacity="1" stroke="none"/>
   <path id="路径-12" d="M126.3 23.6 C127.3 21.9 129.4 21.2 131.3 21.1 133.3 21 135.5 21.3 136.9 22.8 138 23.8 138.3 25.3 138.4 26.8 134.6 26.8 130.9 26.8 127.1 26.8 127.2 27.8 127.5 28.9 128.3 29.6 129.8 30.9 132 31.1 133.8 30.6 135 30.3 136 29.4 136.4 28.2 L138.1 28.2 C137.6 29.9 136.1 31.1 134.4 31.5 132.1 32 129.4 31.9 127.4 30.5 125.4 29.1 125 25.8 126.3 23.6 Z M129.2 22.8 C128.1 23.4 127.5 24.6 127.3 25.8 L136.9 25.8 C136.8 25.1 136.6 24.3 136.1 23.8 134.4 21.8 131.3 21.6 129.2 22.8 Z" fill="#ffffff" fill-opacity="1" stroke="none"/>
  </g>
 </g>
 <g id="New-Group">
  <path id="形状-副本-6" d="M40.049 28.34 C39.979 28.353 39.897 28.272 39.829 28.197 39.713 28.068 39.581 27.708 39.411 27.385 39.198 26.98 38.853 26.349 38.585 25.842 38.279 25.264 37.787 24.375 37.438 23.653 37.099 22.954 36.72 22.115 36.527 21.607 36.367 21.184 36.175 20.625 36.097 20.244 35.997 19.76 35.943 19.35 35.943 18.701 35.943 18.084 35.97 17.746 36.068 17.444 36.131 17.251 36.277 17.006 36.41 16.856 36.55 16.7 36.805 16.515 37.023 16.399 37.253 16.278 37.604 16.167 37.865 16.109 38.173 16.04 38.72 15.982 39.191 15.964 39.724 15.943 40.107 15.909 40.357 16.001 40.538 16.068 40.633 16.14 40.688 16.267 40.802 16.529 40.611 17.352 40.544 18.22 40.473 19.132 40.358 20.091 40.355 20.56 40.352 21.028 40.453 21.985 40.513 22.893 40.574 23.821 40.686 24.855 40.674 25.411 40.663 25.946 40.605 26.421 40.507 26.99 40.434 27.416 40.341 27.867 40.249 28.067 40.192 28.189 40.128 28.326 40.049 28.34 Z M38.067 18.567 C38.163 18.558 38.339 18.453 38.5 18.354 38.675 18.246 38.888 18.09 39.009 17.968 39.111 17.864 39.236 17.737 39.247 17.645 39.257 17.553 39.214 17.452 39.116 17.345 39.012 17.233 38.801 17.133 38.63 17.085 38.444 17.033 38.192 17.031 37.996 17.051 37.809 17.07 37.566 17.138 37.408 17.204 37.263 17.265 37.081 17.356 36.993 17.452 36.915 17.537 36.833 17.665 36.84 17.767 36.848 17.888 36.949 18 37.075 18.119 37.206 18.243 37.446 18.368 37.632 18.446 37.797 18.516 37.974 18.576 38.067 18.567 Z" fill="#ffffff" fill-opacity="1" stroke="none"/>
  <path id="形状-副本-5" d="M30.941 49.772 C30.661 49.782 30.312 49.765 30.034 49.703 29.763 49.643 29.394 49.501 29.138 49.365 28.887 49.233 28.582 49.017 28.399 48.844 28.212 48.668 27.972 48.357 27.808 48.101 27.633 47.827 27.423 47.409 27.299 47.086 27.161 46.725 27.005 46.128 26.903 45.64 26.792 45.111 26.677 44.348 26.632 43.784 26.549 42.765 26.587 41.029 26.541 38.509 26.492 35.821 26.565 34.503 26.448 33.753 26.409 33.499 26.311 33.18 26.219 32.984 26.127 32.791 25.954 32.52 25.783 32.341 25.608 32.157 25.332 31.953 25.116 31.843 24.896 31.731 24.539 31.663 24.28 31.581 24.052 31.509 23.793 31.486 23.715 31.401 23.657 31.337 23.644 31.219 23.649 31.105 23.659 30.884 23.864 30.375 24.048 29.853 24.272 29.213 24.663 28.29 24.922 27.579 25.184 26.862 25.535 26.041 25.663 25.438 25.855 24.539 25.882 24.229 25.895 22.795 25.907 21.428 25.839 20.93 25.693 19.899 25.601 19.251 25.419 18.458 25.278 17.97 25.155 17.544 24.972 17.003 24.801 16.67 24.643 16.36 24.388 15.961 24.16 15.721 23.912 15.459 23.625 15.207 23.296 15.07 22.784 14.856 22.594 14.844 21.589 14.825 20.625 14.808 20.321 14.88 19.688 15.026 19.258 15.126 18.649 15.418 18.157 15.586 17.692 15.744 17.324 15.979 17.169 15.9 17.056 15.842 17.057 15.734 17.032 15.484 17.003 15.207 17.103 14.685 17.178 14.215 17.258 13.707 17.39 13.048 17.501 12.615 17.607 12.199 17.785 11.623 17.938 11.215 18.099 10.787 18.372 10.159 18.612 9.694 18.854 9.225 19.207 8.62 19.481 8.23 19.743 7.86 20.138 7.385 20.44 7.078 20.732 6.781 21.163 6.416 21.481 6.184 21.786 5.963 22.211 5.7 22.516 5.553 22.868 5.384 23.519 5.151 24.095 4.983 24.702 4.806 25.483 4.615 26.003 4.553 26.654 4.475 27.044 4.486 27.749 4.523 28.264 4.55 28.912 4.647 29.328 4.717 29.716 4.781 30.253 4.892 30.632 4.992 31.022 5.095 31.585 5.266 31.996 5.423 32.434 5.589 33.071 5.87 33.539 6.115 34.007 6.36 34.6 6.721 34.986 6.987 35.358 7.243 35.858 7.632 36.197 7.935 36.558 8.258 37.082 8.782 37.461 9.22 37.856 9.677 38.362 10.342 38.689 10.835 39.02 11.333 39.437 12.08 39.726 12.637 39.982 13.131 40.257 13.662 40.333 13.945 40.395 14.174 40.442 14.285 40.372 14.372 40.257 14.515 39.781 14.446 39.197 14.517 38.591 14.59 37.928 14.62 37.513 14.716 37.17 14.795 36.722 14.946 36.433 15.092 36.149 15.236 35.772 15.484 35.536 15.71 35.268 15.966 35.045 16.262 34.876 16.584 34.723 16.877 34.598 17.282 34.541 17.601 34.477 17.961 34.467 18.425 34.495 18.884 34.527 19.381 34.631 19.939 34.751 20.462 34.862 20.94 35.066 21.57 35.215 22.002 35.368 22.444 35.625 23.092 35.834 23.581 36.055 24.095 36.39 24.819 36.654 25.34 36.934 25.891 37.382 26.701 37.737 27.313 38.107 27.952 38.659 28.829 39.051 29.466 39.391 30.019 39.785 30.566 39.91 30.85 39.992 31.038 40.078 31.198 40.04 31.316 39.993 31.464 39.72 31.575 39.443 31.799 39.148 32.036 38.826 32.218 38.655 32.432 38.511 32.61 38.372 32.904 38.307 33.13 38.205 33.487 38.203 34.142 38.13 34.937 38.062 35.681 38.009 36.516 37.959 36.966 37.914 37.368 37.805 38.014 37.741 38.545 37.665 39.175 37.581 40.195 37.486 41.021 37.39 41.864 37.276 42.942 37.157 43.637 37.055 44.232 36.909 44.927 36.791 45.324 36.691 45.661 36.517 46.109 36.375 46.413 36.237 46.708 36.028 47.101 35.848 47.354 35.666 47.61 35.369 47.958 35.113 48.185 34.849 48.419 34.437 48.697 34.12 48.872 33.805 49.045 33.353 49.224 33.033 49.333 32.72 49.441 32.271 49.555 31.946 49.622 31.633 49.687 31.22 49.762 30.941 49.772 Z" fill="#ffffff" fill-opacity="1" stroke="none"/>
  <path id="形状-副本-4" d="M21.67 31.077 C21.435 31.081 21.067 31.015 20.78 30.936 20.461 30.849 19.996 30.679 19.668 30.494 19.241 30.254 18.886 30.016 18.492 29.606 18.016 29.111 17.827 28.831 17.468 28.131 17.133 27.478 16.988 27.038 16.844 26.379 16.697 25.703 16.69 25.355 16.697 24.694 16.702 24.194 16.846 23.477 16.887 22.935 16.949 22.109 16.981 21.672 16.99 20.531 16.996 19.762 16.889 18.913 16.932 18.47 16.975 18.024 16.964 17.902 17.103 17.708 17.233 17.529 17.683 17.309 18.108 17.103 18.759 16.789 19.2 16.602 19.974 16.405 20.752 16.208 21.075 16.172 21.589 16.178 21.909 16.181 22.312 16.246 22.556 16.335 22.804 16.424 23.038 16.553 23.221 16.727 23.393 16.892 23.573 17.206 23.7 17.456 23.834 17.721 23.97 18.12 24.057 18.414 24.155 18.743 24.286 19.288 24.355 19.741 24.449 20.347 24.525 21.104 24.545 21.958 24.569 22.946 24.556 23.463 24.465 24.111 24.403 24.559 24.236 25.164 24.103 25.591 23.955 26.063 23.631 26.803 23.399 27.421 23.149 28.089 22.806 29.033 22.56 29.717 22.356 30.287 22.257 30.866 22.111 30.991 22.04 31.053 21.861 31.074 21.67 31.077 Z M21.973 19.023 C22.242 19.022 22.474 18.986 22.627 18.906 22.746 18.844 22.87 18.702 22.944 18.589 23.017 18.478 23.097 18.309 23.103 18.185 23.109 18.046 23.087 17.952 23.005 17.854 22.917 17.75 22.676 17.653 22.462 17.587 22.182 17.499 21.86 17.446 21.516 17.445 21.199 17.444 20.917 17.454 20.76 17.554 20.62 17.644 20.574 17.728 20.548 17.881 20.527 18.006 20.594 18.177 20.649 18.292 20.705 18.408 20.822 18.55 20.918 18.642 21.017 18.736 21.171 18.857 21.302 18.911 21.461 18.976 21.716 19.025 21.973 19.023 Z" fill="#ffffff" fill-opacity="1" stroke="none"/>
  <path id="形状-副本-3" d="M20.548 37.246 C20.177 37.245 19.633 37.174 19.226 37.099 18.856 37.032 18.448 36.96 18.27 36.856 18.134 36.776 18.041 36.721 18.05 36.627 18.058 36.534 18.215 36.475 18.36 36.407 18.592 36.299 19.131 36.217 19.625 36.073 20.141 35.923 20.753 35.787 21.061 35.615 21.451 35.396 21.682 35.139 22.214 34.62 22.616 34.229 22.996 33.674 23.295 33.432 23.639 33.154 23.713 33.055 24.005 33.019 24.215 32.993 24.404 33.079 24.571 33.181 24.715 33.269 24.879 33.443 24.957 33.593 25.056 33.782 25.108 33.986 25.098 34.256 25.087 34.582 25.022 34.832 24.824 35.212 24.609 35.622 24.441 35.803 24.113 36.084 23.857 36.304 23.414 36.541 23.07 36.697 22.707 36.862 22.206 37.032 21.814 37.116 21.433 37.198 20.916 37.248 20.548 37.246 Z" fill="#ffffff" fill-opacity="1" stroke="none"/>
  <path id="形状-副本-2" d="M41.972 35.283 C41.548 35.298 41.086 35.274 40.748 35.216 40.478 35.169 40.165 35.092 40.009 34.998 39.885 34.924 39.753 34.798 39.702 34.684 39.647 34.563 39.646 34.347 39.669 34.175 39.693 33.989 39.769 33.73 39.874 33.565 39.999 33.368 40.181 33.177 40.43 33.032 40.714 32.866 40.875 32.823 41.11 32.827 41.307 32.83 41.613 32.989 41.883 33.084 42.168 33.184 42.523 33.359 42.777 33.415 43.092 33.484 43.563 33.517 44.086 33.521 44.596 33.525 45.26 33.462 45.704 33.414 46.076 33.374 46.47 33.265 46.673 33.268 46.831 33.27 47.004 33.23 47.067 33.339 47.148 33.478 47.119 33.477 46.943 33.69 46.78 33.888 46.34 34.077 45.974 34.258 45.586 34.451 45.074 34.655 44.735 34.768 44.397 34.88 43.866 35.02 43.443 35.101 43.004 35.184 42.4 35.269 41.972 35.283 Z" fill="#ffffff" fill-opacity="1" stroke="none"/>
  <path id="形状-副本-1" d="M12.331 36.496 C12.16 36.518 11.943 36.485 11.781 36.439 11.614 36.391 11.378 36.268 11.207 36.157 11.013 36.031 10.729 35.801 10.525 35.59 10.291 35.35 9.973 34.939 9.748 34.598 9.481 34.195 9.105 33.497 8.816 32.911 8.487 32.244 8.045 31.206 7.716 30.399 7.382 29.581 6.972 28.483 6.707 27.733 6.452 27.013 6.124 26.009 5.905 25.293 5.688 24.581 5.405 23.583 5.22 22.863 5.035 22.145 4.798 21.136 4.649 20.41 4.502 19.692 4.324 18.704 4.222 18.006 4.123 17.327 4.005 16.403 3.962 15.756 3.916 15.079 3.891 14.191 3.918 13.459 3.944 12.733 4.017 11.939 4.115 11.344 4.198 10.837 4.354 10.188 4.487 9.765 4.61 9.376 4.81 8.873 4.975 8.545 5.131 8.235 5.378 7.837 5.571 7.576 5.756 7.326 6.035 7.015 6.243 6.813 6.45 6.612 6.768 6.342 7.022 6.167 7.313 5.968 7.818 5.679 8.254 5.475 8.694 5.269 9.253 5.053 9.615 4.959 10.011 4.856 10.731 4.75 11.362 4.698 12.271 4.623 12.698 4.613 13.443 4.662 13.997 4.699 14.814 4.85 15.439 4.964 16.103 5.085 17.061 5.295 17.771 5.462 18.373 5.604 18.948 5.695 19.113 5.807 19.171 5.847 19.24 5.917 19.243 5.985 19.251 6.133 18.987 6.444 18.765 6.803 18.498 7.236 18.076 7.814 17.816 8.258 17.563 8.692 17.254 9.284 17.066 9.699 16.891 10.086 16.693 10.604 16.577 10.955 16.45 11.339 16.27 11.998 16.137 12.557 15.984 13.202 15.749 14.185 15.656 14.962 15.494 16.321 15.557 16.759 15.497 18.939 15.442 20.912 15.492 21.631 15.438 22.815 15.405 23.537 15.273 24.477 15.263 25.109 15.252 25.84 15.247 26.245 15.338 26.76 15.404 27.132 15.579 27.638 15.73 27.997 15.879 28.352 16.132 28.806 16.324 29.109 16.525 29.428 16.91 29.871 17.168 30.253 17.447 30.667 17.671 30.873 17.659 31.052 17.634 31.399 16.779 32.158 15.999 33.064 15.172 34.027 14.284 35.038 13.816 35.5 13.516 35.798 13.17 36.131 12.941 36.268 12.761 36.376 12.508 36.474 12.331 36.496 Z" fill="#ffffff" fill-opacity="1" stroke="none"/>
  <path id="形状-副本" d="M41.526 29.789 C41.432 29.743 41.448 29.665 41.457 29.412 41.466 29.142 41.64 28.678 41.751 28.263 41.867 27.827 42.063 27.289 42.121 26.93 42.198 26.465 42.228 26.062 42.204 25.37 42.181 24.662 42.036 23.964 41.936 23.151 41.845 22.42 41.704 21.768 41.701 21.285 41.698 20.82 41.802 20.24 41.891 19.609 41.972 19.032 42.135 18.316 42.188 17.851 42.241 17.386 42.31 16.657 42.293 16.076 42.269 15.244 42.236 14.929 42.081 14.269 41.974 13.812 41.728 13.191 41.535 12.748 41.333 12.287 40.99 11.636 40.71 11.161 40.428 10.683 40.017 10.06 39.705 9.65 39.381 9.224 38.838 8.603 38.393 8.135 37.956 7.676 37.393 7.132 37.02 6.819 36.687 6.541 36.211 6.203 35.871 5.983 35.541 5.768 35.056 5.516 34.723 5.32 34.427 5.146 34.072 4.978 33.916 4.837 33.804 4.736 33.67 4.618 33.682 4.525 33.696 4.424 33.797 4.384 33.951 4.313 34.157 4.22 34.619 4.163 35.046 4.107 35.532 4.043 36.08 4.001 36.481 4 36.869 3.999 37.474 4.051 37.953 4.101 38.471 4.155 39.22 4.245 39.77 4.353 40.325 4.462 41.075 4.645 41.588 4.817 42.11 4.992 42.853 5.307 43.395 5.576 43.945 5.849 44.678 6.262 45.165 6.596 45.654 6.931 46.221 7.369 46.603 7.756 46.996 8.154 47.278 8.5 47.479 8.871 47.656 9.199 47.786 9.62 47.87 10.02 47.96 10.449 47.991 11 47.999 11.524 48.007 12.026 47.961 12.717 47.908 13.203 47.852 13.707 47.719 14.459 47.604 15.033 47.482 15.638 47.273 16.496 47.109 17.122 46.943 17.757 46.689 18.643 46.492 19.275 46.297 19.903 46.012 20.759 45.794 21.356 45.58 21.946 45.266 22.759 45.022 23.33 44.766 23.927 44.354 24.812 44.021 25.483 43.695 26.14 43.252 26.944 42.979 27.457 42.736 27.912 42.42 28.507 42.2 28.901 42.021 29.222 41.871 29.563 41.755 29.673 41.69 29.734 41.588 29.82 41.526 29.789 Z" fill="#ffffff" fill-opacity="1" stroke="none"/>
 </g>
</svg>
