<?xml version="1.0" encoding="UTF-8"?>
<svg width="159px" height="53px" viewBox="0 0 159 53" xmlns="http://www.w3.org/2000/svg" xmlns:xlink="http://www.w3.org/1999/xlink" version="1.1">
 <!-- Generated by Pixelmator Pro 2.0.3 -->
 <path id="TDengine" d="M151.903 33.8 L153.924 33.8 153.924 33.922 C153.924 34.525 153.71 35.14 153.283 35.767 152.856 36.394 152.291 36.871 151.588 37.196 150.885 37.522 150.078 37.685 149.165 37.685 147.318 37.685 145.893 37.013 144.89 35.669 143.887 34.325 143.385 32.627 143.385 30.574 143.385 28.473 143.915 26.732 144.977 25.351 146.038 23.97 147.405 23.28 149.078 23.28 149.998 23.28 150.831 23.504 151.577 23.952 152.323 24.4 152.914 25.098 153.348 26.047 153.783 26.996 154 28.318 154 30.012 L154 30.77 145.384 30.77 C145.384 32.228 145.734 33.429 146.433 34.374 147.132 35.319 148.1 35.791 149.339 35.791 150.23 35.791 150.88 35.598 151.289 35.211 151.698 34.824 151.903 34.394 151.903 33.922 Z M145.514 29.059 L152.066 29.059 152.066 28.79 C152.066 28.155 151.93 27.538 151.659 26.939 151.387 26.341 151.012 25.897 150.534 25.607 150.056 25.318 149.498 25.174 148.861 25.174 148.108 25.174 147.412 25.514 146.775 26.194 146.137 26.874 145.717 27.829 145.514 29.059 Z M133.009 37.306 L130.988 37.306 130.988 23.659 133.009 23.659 133.009 26.017 C133.436 25.276 133.851 24.726 134.253 24.367 134.655 24.009 135.075 23.738 135.513 23.555 135.951 23.372 136.439 23.28 136.975 23.28 137.735 23.28 138.418 23.455 139.023 23.805 139.627 24.156 140.096 24.671 140.43 25.351 140.763 26.031 140.929 27.12 140.929 28.619 L140.929 37.306 138.909 37.306 138.909 29.597 C138.909 28.375 138.836 27.509 138.691 27 138.546 26.491 138.264 26.092 137.844 25.803 137.424 25.514 136.967 25.369 136.475 25.369 135.881 25.369 135.316 25.565 134.78 25.956 134.244 26.347 133.815 26.892 133.492 27.593 133.17 28.293 133.009 29.295 133.009 30.599 Z M125.762 23.659 L127.783 23.659 127.783 37.306 125.762 37.306 Z M125.762 20.629 L125.762 18.344 127.783 18.344 127.783 20.629 Z M120.536 34.423 C120.123 35.384 119.587 36.105 118.928 36.585 118.269 37.066 117.487 37.306 116.581 37.306 115.14 37.306 113.95 36.669 113.012 35.394 112.074 34.119 111.605 32.444 111.605 30.366 111.605 28.998 111.815 27.752 112.235 26.628 112.655 25.504 113.246 24.665 114.006 24.111 114.767 23.557 115.658 23.28 116.679 23.28 117.439 23.28 118.12 23.449 118.721 23.787 119.323 24.125 119.927 24.811 120.536 25.846 L120.536 23.659 122.557 23.659 122.557 34.814 C122.557 37.616 122.296 39.465 121.775 40.361 121.253 41.257 120.592 41.921 119.792 42.352 118.991 42.784 118.051 43 116.972 43 115.973 43 115.076 42.833 114.283 42.499 113.49 42.165 112.887 41.707 112.474 41.125 112.061 40.542 111.855 39.937 111.855 39.31 L111.855 39.102 113.876 39.102 113.876 39.298 C113.876 39.901 114.165 40.383 114.745 40.746 115.324 41.108 116.06 41.289 116.951 41.289 117.675 41.289 118.296 41.149 118.814 40.868 119.332 40.587 119.748 40.131 120.063 39.499 120.378 38.868 120.536 37.722 120.536 36.06 Z M120.536 30.073 C120.536 28.615 120.203 27.434 119.536 26.53 118.87 25.626 118.073 25.174 117.146 25.174 116.161 25.174 115.342 25.63 114.691 26.542 114.039 27.454 113.713 28.737 113.713 30.391 113.713 31.433 113.843 32.346 114.104 33.128 114.365 33.91 114.772 34.502 115.326 34.905 115.88 35.309 116.472 35.51 117.103 35.51 118.124 35.51 118.951 35.003 119.585 33.989 120.219 32.975 120.536 31.67 120.536 30.073 Z M101.229 37.306 L99.208 37.306 99.208 23.659 101.229 23.659 101.229 26.017 C101.656 25.276 102.071 24.726 102.473 24.367 102.875 24.009 103.295 23.738 103.733 23.555 104.172 23.372 104.659 23.28 105.195 23.28 105.955 23.28 106.638 23.455 107.243 23.805 107.847 24.156 108.316 24.671 108.65 25.351 108.983 26.031 109.149 27.12 109.149 28.619 L109.149 37.306 107.129 37.306 107.129 29.597 C107.129 28.375 107.056 27.509 106.911 27 106.766 26.491 106.484 26.092 106.064 25.803 105.644 25.514 105.187 25.369 104.695 25.369 104.101 25.369 103.536 25.565 103 25.956 102.464 26.347 102.035 26.892 101.712 27.593 101.39 28.293 101.229 29.295 101.229 30.599 Z M94.33 33.8 L96.351 33.8 96.351 33.922 C96.351 34.525 96.137 35.14 95.71 35.767 95.282 36.394 94.717 36.871 94.015 37.196 93.312 37.522 92.504 37.685 91.592 37.685 89.745 37.685 88.32 37.013 87.316 35.669 86.313 34.325 85.812 32.627 85.812 30.574 85.812 28.473 86.342 26.732 87.403 25.351 88.464 23.97 89.832 23.28 91.505 23.28 92.425 23.28 93.258 23.504 94.004 23.952 94.75 24.4 95.34 25.098 95.775 26.047 96.209 26.996 96.427 28.318 96.427 30.012 L96.427 30.77 87.811 30.77 C87.811 32.228 88.16 33.429 88.859 34.374 89.558 35.319 90.527 35.791 91.766 35.791 92.656 35.791 93.307 35.598 93.716 35.211 94.125 34.824 94.33 34.394 94.33 33.922 Z M87.941 29.059 L94.493 29.059 94.493 28.79 C94.493 28.155 94.357 27.538 94.085 26.939 93.814 26.341 93.439 25.897 92.961 25.607 92.483 25.318 91.925 25.174 91.287 25.174 90.534 25.174 89.839 25.514 89.201 26.194 88.564 26.874 88.144 27.829 87.941 29.059 Z M70.807 37.306 L70.807 18.344 75.468 18.344 C77.735 18.344 79.394 18.69 80.444 19.382 81.495 20.075 82.315 21.132 82.905 22.553 83.495 23.974 83.791 25.707 83.791 27.752 83.791 29.666 83.524 31.326 82.992 32.731 82.46 34.136 81.654 35.25 80.575 36.072 79.495 36.895 77.895 37.306 75.772 37.306 Z M73.002 35.217 L75.588 35.217 C77.13 35.217 78.295 34.962 79.081 34.453 79.867 33.944 80.468 33.146 80.884 32.059 81.301 30.971 81.509 29.605 81.509 27.959 81.509 26.314 81.319 24.899 80.939 23.714 80.558 22.528 79.979 21.655 79.2 21.093 78.422 20.531 77.199 20.25 75.533 20.25 L73.002 20.25 Z M61.039 37.306 L61.039 20.25 55.303 20.25 55.303 18.344 68.873 18.344 68.873 20.25 63.223 20.25 63.223 37.306 Z" fill="#ffffff" fill-opacity="1" stroke="none"/>
 <g id="New-Group">
  <path id="形状-副本-6" d="M26.5 7.53 C21.772 8.981 20.809 8.935 19.747 8.159 18.982 7.599 18.537 6.96 18.758 6.739 18.98 6.518 20.804 5.632 22.812 4.771 26.463 3.206 26.463 3.206 30.167 4.823 32.204 5.712 34.045 6.598 34.257 6.791 34.47 6.984 34.018 7.599 33.253 8.159 32.191 8.935 31.228 8.981 29.181 8.353 L26.5 7.53 Z" fill="#ffffff" fill-opacity="1" stroke="none"/>
  <path id="形状-副本-5" d="M38.6 18.344 C38.108 18.532 37.062 18.216 36.276 17.642 34.932 16.659 34.998 16.501 37.385 14.989 39.923 13.382 39.923 13.382 37.382 12.068 35.096 10.886 34.961 10.635 36.035 9.561 36.968 8.628 37.717 8.538 39.47 9.15 40.704 9.58 43.252 10.716 45.132 11.676 48.552 13.42 48.552 13.42 44.023 15.71 41.532 16.97 39.092 18.155 38.6 18.344 Z" fill="#ffffff" fill-opacity="1" stroke="none"/>
  <path id="形状-副本-4" d="M27.001 22.986 C25.464 23.193 23.447 22.714 21.553 21.691 18.86 20.237 18.669 19.944 19.728 18.885 20.714 17.899 21.372 17.856 23.705 18.626 25.865 19.339 27.135 19.339 29.295 18.626 31.628 17.857 32.286 17.899 33.271 18.884 34.328 19.941 34.189 20.201 31.946 21.36 30.568 22.073 28.343 22.804 27.001 22.986 Z" fill="#ffffff" fill-opacity="1" stroke="none"/>
  <path id="形状-副本-3" d="M16.608 17.773 C15.398 18.42 13.983 18.061 9.736 16.027 4.388 13.466 4.388 13.466 7.491 11.922 9.198 11.074 11.752 9.919 13.167 9.358 15.382 8.478 15.908 8.504 16.949 9.545 18.044 10.64 17.922 10.877 15.651 12.051 13.144 13.347 13.144 13.347 14.973 14.568 15.979 15.239 17.101 16.051 17.467 16.373 17.833 16.694 17.446 17.324 16.608 17.773 Z" fill="#ffffff" fill-opacity="1" stroke="none"/>
  <path id="形状-副本-2" d="M27.276 31.352 C26.636 31.563 21.137 29.339 15.056 26.41 4 21.084 4 21.084 4 18.326 4 15.569 4 15.569 8.073 17.382 10.314 18.379 15.377 20.822 19.325 22.812 26.504 26.429 26.504 26.429 31.739 23.805 34.618 22.362 39.68 19.937 42.987 18.416 49 15.65 49 15.65 49 18.367 49 21.085 49 21.085 38.72 26.027 33.066 28.745 27.916 31.141 27.276 31.352 Z" fill="#ffffff" fill-opacity="1" stroke="none"/>
  <path id="形状-副本-1" d="M26.969 39.214 C26.498 39.354 21.224 37.073 15.25 34.146 4.489 28.874 4.386 28.799 4.145 26.035 3.903 23.246 3.903 23.246 6.473 24.328 7.887 24.924 12.972 27.385 17.774 29.798 26.504 34.185 26.504 34.185 32.903 30.961 36.422 29.188 41.484 26.755 44.151 25.555 49 23.373 49 23.373 49 26.112 49 28.851 49 28.851 38.413 33.906 32.591 36.686 27.441 39.074 26.969 39.214 Z" fill="#ffffff" fill-opacity="1" stroke="none"/>
  <path id="形状-副本" d="M26.888 47.01 C26.461 47.146 21.224 44.817 15.25 41.834 4.533 36.483 4.385 36.374 4.141 33.635 3.954 31.536 4.154 30.959 4.959 31.268 5.545 31.493 10.02 33.696 14.904 36.163 19.788 38.631 24.69 40.794 25.796 40.971 27.105 41.181 30.085 40.144 34.33 38.002 37.918 36.192 42.686 33.895 44.927 32.898 49 31.086 49 31.086 49 33.846 49 36.605 49 36.605 38.332 41.684 32.464 44.478 27.315 46.874 26.888 47.01 Z" fill="#ffffff" fill-opacity="1" stroke="none"/>
 </g>
</svg>
