<?xml version="1.0" encoding="UTF-8"?>
<svg width="192px" height="53px" viewBox="0 0 192 53" xmlns="http://www.w3.org/2000/svg" xmlns:xlink="http://www.w3.org/1999/xlink" version="1.1">
 <!-- Generated by Pixelmator Pro 2.0.3 -->
 <path id="UDP-Protocol" d="M187.804 15.6 L184.235 15.6 184.235 31.033 C184.235 33.517 185.599 34.23 187.405 34.23 187.971 34.23 188.601 34.138 189 34 L189 31.424 C188.874 31.47 188.727 31.47 188.643 31.47 188.013 31.47 187.804 31.102 187.804 30.389 Z M176.489 20.66 C173.173 20.66 170.633 22.73 170.633 27.629 170.633 32.183 173.236 34.23 176.489 34.23 179.806 34.23 182.346 32.16 182.346 27.261 182.346 22.707 179.743 20.66 176.489 20.66 Z M176.489 31.355 C174.936 31.355 174.306 29.63 174.306 27.491 174.306 24.754 175.02 23.535 176.489 23.535 178.043 23.535 178.672 25.26 178.672 27.399 178.672 30.113 177.959 31.355 176.489 31.355 Z M166.036 29.193 C165.742 31.033 164.986 31.585 164.231 31.585 163.013 31.585 162.216 30.481 162.216 27.399 162.216 24.156 163.139 23.282 164.189 23.282 165.133 23.282 165.826 24.156 166.099 26.065 L169.374 25.168 C168.639 21.902 166.918 20.66 164.189 20.66 160.767 20.66 158.647 23.351 158.647 27.652 158.647 31.884 160.599 34.23 164.084 34.23 166.372 34.23 168.492 33.425 169.478 30.228 Z M151.531 20.66 C148.215 20.66 145.675 22.73 145.675 27.629 145.675 32.183 148.278 34.23 151.531 34.23 154.848 34.23 157.388 32.16 157.388 27.261 157.388 22.707 154.785 20.66 151.531 20.66 Z M151.531 31.355 C149.978 31.355 149.348 29.63 149.348 27.491 149.348 24.754 150.062 23.535 151.531 23.535 153.085 23.535 153.714 25.26 153.714 27.399 153.714 30.113 153.001 31.355 151.531 31.355 Z M142.085 23.65 L144.667 23.65 144.667 20.89 142.085 20.89 142.085 16.957 138.622 19.142 138.622 20.89 136.901 20.89 136.901 23.65 138.622 23.65 138.622 30.205 C138.622 32.942 140.217 34.23 142.484 34.23 143.282 34.23 144.205 34.092 144.835 33.862 L144.835 31.102 C144.604 31.194 144.205 31.286 143.828 31.286 142.631 31.286 142.085 30.849 142.085 29.584 Z M130.204 20.66 C126.888 20.66 124.348 22.73 124.348 27.629 124.348 32.183 126.951 34.23 130.204 34.23 133.521 34.23 136.061 32.16 136.061 27.261 136.061 22.707 133.458 20.66 130.204 20.66 Z M130.204 31.355 C128.651 31.355 128.021 29.63 128.021 27.491 128.021 24.754 128.735 23.535 130.204 23.535 131.758 23.535 132.388 25.26 132.388 27.399 132.388 30.113 131.674 31.355 130.204 31.355 Z M119.541 24.34 L119.541 20.89 116.644 20.89 116.644 34 120.234 34 120.234 26.916 C120.234 24.294 121.157 23.857 122.711 23.857 123.026 23.857 123.403 23.88 123.718 23.949 L123.718 20.683 C123.403 20.614 123.026 20.591 122.711 20.591 121.031 20.591 119.982 21.856 119.646 24.34 Z M103.399 16.06 L103.399 34 107.073 34 107.073 28.319 108.374 28.319 C112.11 28.319 114.755 26.387 114.755 21.971 114.755 17.946 112.656 16.06 108.773 16.06 Z M107.073 25.329 L107.073 19.05 108.584 19.05 C109.927 19.05 110.872 20.039 110.872 22.201 110.872 24.409 109.927 25.329 108.584 25.329 Z M84.948 16.06 L84.948 34 88.622 34 88.622 28.319 89.923 28.319 C93.659 28.319 96.304 26.387 96.304 21.971 96.304 17.946 94.205 16.06 90.322 16.06 Z M88.622 25.329 L88.622 19.05 90.133 19.05 C91.476 19.05 92.421 20.039 92.421 22.201 92.421 24.409 91.476 25.329 90.133 25.329 Z M69.583 16.06 L69.583 34 74.852 34 C79.323 34 82.429 31.217 82.429 24.823 82.429 18.797 79.595 16.06 75.061 16.06 Z M73.361 31.01 L73.361 19.05 74.663 19.05 C77.14 19.05 78.567 20.752 78.567 25.03 78.567 29.4 77.14 31.01 75.061 31.01 Z M62.341 16.06 L62.341 27.376 C62.341 30.09 61.207 31.217 59.612 31.217 58.017 31.217 56.883 30.09 56.883 27.376 L56.883 16.06 53 16.06 53 27.56 C53 32.183 55.75 34.23 59.612 34.23 63.495 34.23 66.224 32.183 66.224 27.56 L66.224 16.06 Z" fill="#ffffff" fill-opacity="1" stroke="none"/>
 <g id="New-Group">
  <path id="形状-副本-1" d="M43.679 7.151 C21.909 7.151 13.676 7.425 12.962 7.151 11.968 6.769 13.19 5.786 13.837 4.577 14.608 3.137 15.745 3 26.905 3 38.595 3 44.954 3 45.68 3 46.841 3 47 4.935 47 19.06 47 34.066 46.891 35.219 45.34 36.623 43.685 38.12 43.679 38.073 43.679 22.638 Z" fill="#ffffff" fill-opacity="1" stroke="none"/>
  <path id="形状-副本" d="M8.008 47 C6.765 47 5.13 46.317 4.374 45.482 3.618 44.647 3 43.203 3 42.273 3 41.343 3.747 39.633 4.66 38.472 6.091 36.653 6.321 35.104 6.321 27.281 6.321 19.255 6.128 18.026 4.66 16.698 3.747 15.872 3 14.191 3 12.962 3 11.734 3.683 10.111 4.518 9.355 5.353 8.599 6.976 7.981 8.125 7.981 9.274 7.981 10.891 8.728 11.717 9.642 13.094 11.163 14.274 11.302 25.862 11.302 38.271 11.302 39.037 10.299 39.528 12.132 39.804 13.159 39.511 20.052 39.517 26.18 39.526 35.289 39.774 37.594 40.877 38.813 41.619 39.633 42.226 41.249 42.226 42.404 42.226 43.559 41.76 45.066 41.191 45.752 40.621 46.438 38.939 47 37.453 47 35.967 47 34.285 46.44 33.717 45.755 32.901 44.772 30.54 44.509 22.509 44.509 14.479 44.509 12.118 44.772 11.302 45.755 10.733 46.44 9.251 47 8.008 47 Z M22.302 40.289 C27.667 40.327 32.057 40.073 32.057 39.723 32.057 39.374 27.382 34.424 21.669 28.723 15.956 23.023 10.912 18.234 10.461 18.082 9.953 17.91 9.642 21.458 9.642 27.421 9.642 35.42 9.886 37.305 11.094 38.629 12.36 40.016 13.801 40.229 22.302 40.289 Z M35.377 14.623 L12.57 14.623 23.755 25.83 C29.906 31.994 35.038 37.038 35.158 37.038 35.279 37.038 35.377 31.994 35.377 25.83 L35.377 14.623 Z" fill="#ffffff" fill-opacity="1" stroke="none"/>
 </g>
</svg>
