<?xml version="1.0" encoding="UTF-8"?>
<svg width="66px" height="39px" viewBox="0 0 66 39" xmlns="http://www.w3.org/2000/svg" xmlns:xlink="http://www.w3.org/1999/xlink" version="1.1">
 <!-- Generated by Pixelmator Pro 2.0.3 -->
 <path id="UDP" d="M48.077 7 L58.926 7 C61.289 7 63.058 7.627 64.235 8.882 65.412 10.137 66 11.922 66 14.239 66 16.619 65.359 18.48 64.077 19.82 62.794 21.161 60.837 21.831 58.205 21.831 L54.632 21.831 54.632 30.582 48.077 30.582 Z M54.632 17.054 L56.231 17.054 C57.49 17.054 58.373 16.81 58.882 16.322 59.392 15.834 59.646 15.209 59.646 14.448 59.646 13.708 59.425 13.08 58.983 12.566 58.541 12.051 57.711 11.794 56.491 11.794 L54.632 11.794 Z M25.24 7 L34.936 7 C36.848 7 38.392 7.29 39.569 7.869 40.745 8.448 41.718 9.279 42.486 10.362 43.255 11.445 43.812 12.705 44.158 14.142 44.503 15.579 44.676 17.102 44.676 18.71 44.676 21.231 44.419 23.185 43.905 24.574 43.392 25.962 42.678 27.126 41.766 28.064 40.853 29.003 39.874 29.627 38.827 29.938 37.395 30.367 36.099 30.582 34.936 30.582 L25.24 30.582 Z M31.767 12.34 L31.767 25.225 33.366 25.225 C34.73 25.225 35.7 25.056 36.276 24.718 36.853 24.381 37.304 23.791 37.631 22.949 37.957 22.107 38.121 20.743 38.121 18.855 38.121 16.357 37.756 14.646 37.026 13.724 36.296 12.802 35.085 12.34 33.395 12.34 Z M14.319 7 L20.831 7 20.831 21.059 C20.831 22.453 20.637 23.769 20.248 25.008 19.859 26.247 19.249 27.33 18.418 28.257 17.587 29.185 16.715 29.836 15.803 30.212 14.535 30.737 13.012 31 11.235 31 10.208 31 9.086 30.92 7.871 30.759 6.656 30.598 5.64 30.279 4.824 29.802 4.007 29.324 3.261 28.646 2.583 27.767 1.906 26.887 1.443 25.981 1.193 25.048 0.79 23.547 0.588 22.217 0.588 21.059 L0.588 7 7.1 7 7.1 21.397 C7.1 22.684 7.42 23.689 8.058 24.413 8.697 25.137 9.583 25.499 10.717 25.499 11.841 25.499 12.722 25.142 13.361 24.429 13.999 23.716 14.319 22.705 14.319 21.397 Z" fill="#ffffff" fill-opacity="1" stroke="none"/>
</svg>
