<?xml version="1.0" encoding="UTF-8"?>
<svg width="380px" height="370px" viewBox="0 0 380 370" xmlns="http://www.w3.org/2000/svg" xmlns:xlink="http://www.w3.org/1999/xlink" version="1.1">
 <!-- Generated by Pixelmator Pro 2.0.3 -->
 <g id="group">
  <defs>
   <linearGradient id="linear-gradient" gradientUnits="userSpaceOnUse" x1="1.536" y1="226.077" x2="30.227" y2="226.077">
    <stop offset="0" stop-color="#4dc2c1" stop-opacity="1"/>
    <stop offset="0.6" stop-color="#15b6b6" stop-opacity="1"/>
    <stop offset="1" stop-color="#2b8698" stop-opacity="1"/>
   </linearGradient>
  </defs>
  <path id="路径" d="M26.434 216.371 C29.117 219.281 30.366 223.002 30.215 226.665 30.065 230.33 28.515 233.936 25.601 236.616 19.773 241.977 10.698 241.605 5.331 235.784 2.646 232.874 1.398 229.153 1.549 225.49 1.699 221.826 3.249 218.22 6.163 215.539 11.99 210.178 21.066 210.55 26.434 216.371 Z" fill-opacity="1" fill="url(#linear-gradient)" stroke="none"/>
  <defs>
   <linearGradient id="linear-gradient-1" gradientUnits="userSpaceOnUse" x1="82.304" y1="142.478" x2="229.345" y2="142.478">
    <stop offset="0" stop-color="#4dc2c1" stop-opacity="1"/>
    <stop offset="0.6" stop-color="#15b6b6" stop-opacity="1"/>
    <stop offset="1" stop-color="#2b8698" stop-opacity="1"/>
   </linearGradient>
  </defs>
  <path id="路径-1" d="M227.587 125.881 C227.552 126.252 227.504 126.62 227.489 126.992 227.356 130.215 227.979 133.465 229.345 136.467 L184.957 177.301 140.568 218.135 C137.352 216.345 133.752 215.475 130.15 215.518 L82.304 76.139 C84.329 75.057 86.244 73.739 87.978 72.144 89.712 70.548 91.185 68.749 92.431 66.821 Z" fill-opacity="1" fill="url(#linear-gradient-1)" stroke="none"/>
  <defs>
   <linearGradient id="linear-gradient-2" gradientUnits="userSpaceOnUse" x1="35.41" y1="286.236" x2="126.473" y2="286.236">
    <stop offset="0" stop-color="#4dc2c1" stop-opacity="1"/>
    <stop offset="0.6" stop-color="#15b6b6" stop-opacity="1"/>
    <stop offset="1" stop-color="#2b8698" stop-opacity="1"/>
   </linearGradient>
  </defs>
  <path id="路径-2" d="M41.828 234.68 L110.107 240.954 C110.904 244.449 112.583 247.698 115.081 250.406 117.708 253.256 120.958 255.183 124.43 256.217 L125.854 310.789 126.473 334.485 C124.483 335.285 122.588 336.386 120.848 337.792 L35.41 245.148 C38.352 242.149 40.535 238.588 41.828 234.68 Z" fill-opacity="1" fill="url(#linear-gradient-2)" stroke="none"/>
  <defs>
   <linearGradient id="linear-gradient-3" gradientUnits="userSpaceOnUse" x1="23.136" y1="153.273" x2="117.842" y2="153.273">
    <stop offset="0" stop-color="#1d887e" stop-opacity="1"/>
    <stop offset="1" stop-color="#1c4e58" stop-opacity="1"/>
   </linearGradient>
  </defs>
  <path id="路径-3" d="M111.294 228.025 L42.883 221.739 C42.047 216.48 39.688 211.581 35.994 207.575 32.472 203.756 28.03 201.101 23.136 199.765 L62.713 78.52 C64.534 78.979 66.411 79.265 68.33 79.343 68.446 79.348 68.56 79.35 68.674 79.35 69.003 79.35 69.329 79.335 69.657 79.333 L117.842 219.701 C117.31 220.104 116.791 220.53 116.29 220.991 114.111 222.993 112.436 225.391 111.294 228.025 Z" fill-opacity="1" fill="url(#linear-gradient-3)" stroke="none"/>
  <defs>
   <linearGradient id="linear-gradient-4" gradientUnits="userSpaceOnUse" x1="149.375" y1="223.737" x2="300.191" y2="223.737">
    <stop offset="0" stop-color="#4dc2c1" stop-opacity="1"/>
    <stop offset="0.6" stop-color="#15b6b6" stop-opacity="1"/>
    <stop offset="1" stop-color="#2b8698" stop-opacity="1"/>
   </linearGradient>
  </defs>
  <path id="路径-4" d="M151.11 238.52 C151.501 234.858 150.934 231.11 149.375 227.683 L238.153 146.015 C241.444 147.845 245.136 148.717 248.821 148.628 L300.191 292.598 C298.279 293.652 296.466 294.913 294.819 296.429 293.172 297.944 291.765 299.644 290.557 301.46 Z" fill-opacity="1" fill="url(#linear-gradient-4)" stroke="none"/>
  <defs>
   <linearGradient id="linear-gradient-5" gradientUnits="userSpaceOnUse" x1="96.449" y1="66.834" x2="241.346" y2="66.834">
    <stop offset="0" stop-color="#4dc2c1" stop-opacity="1"/>
    <stop offset="0.6" stop-color="#15b6b6" stop-opacity="1"/>
    <stop offset="1" stop-color="#2b8698" stop-opacity="1"/>
   </linearGradient>
  </defs>
  <path id="路径-5" d="M224.659 34.014 C228.723 38.421 234.009 41.282 239.808 42.34 L239.862 44.686 241.346 108.229 C238.765 109.138 236.321 110.569 234.184 112.535 233.683 112.995 233.215 113.477 232.77 113.973 L186.439 93.729 96.654 54.497 C96.694 54.057 96.755 53.622 96.773 53.178 96.85 51.321 96.736 49.486 96.449 47.692 L217.746 19.695 C218.56 25.012 220.929 29.969 224.659 34.014 Z" fill-opacity="1" fill="url(#linear-gradient-5)" stroke="none"/>
  <defs>
   <linearGradient id="linear-gradient-6" gradientUnits="userSpaceOnUse" x1="252.794" y1="83.986" x2="345.148" y2="83.986">
    <stop offset="0" stop-color="#1d887e" stop-opacity="1"/>
    <stop offset="1" stop-color="#1c4e58" stop-opacity="1"/>
   </linearGradient>
  </defs>
  <path id="路径-6" d="M339.089 132.404 L268.722 123.804 C268.006 120.162 266.332 116.666 263.636 113.743 261.023 110.91 257.793 108.988 254.343 107.951 L252.814 42.483 252.794 41.601 C256.653 40.42 260.239 38.411 263.296 35.599 L263.326 35.569 345.148 124.293 345.116 124.319 C342.578 126.654 340.562 129.399 339.089 132.404 Z" fill-opacity="1" fill="url(#linear-gradient-6)" stroke="none"/>
  <defs>
   <linearGradient id="linear-gradient-7" gradientUnits="userSpaceOnUse" x1="261.07" y1="213.311" x2="355.882" y2="213.311">
    <stop offset="0" stop-color="#4dc2c1" stop-opacity="1"/>
    <stop offset="0.6" stop-color="#15b6b6" stop-opacity="1"/>
    <stop offset="1" stop-color="#2b8698" stop-opacity="1"/>
   </linearGradient>
  </defs>
  <path id="路径-7" d="M314.466 289.229 C313.905 289.206 313.35 289.231 312.792 289.242 L261.07 144.285 C261.532 143.927 261.989 143.561 262.426 143.159 264.474 141.275 266.047 139.069 267.16 136.693 L336.335 145.148 C336.506 151.753 339.005 158.003 343.529 162.909 346.929 166.596 351.188 169.191 355.882 170.571 L319.583 289.929 C317.919 289.544 316.21 289.301 314.466 289.229 Z" fill-opacity="1" fill="url(#linear-gradient-7)" stroke="none"/>
  <defs>
   <linearGradient id="linear-gradient-8" gradientUnits="userSpaceOnUse" x1="137.425" y1="299.987" x2="286.321" y2="299.987">
    <stop offset="0" stop-color="#1d887e" stop-opacity="1"/>
    <stop offset="1" stop-color="#1c4e58" stop-opacity="1"/>
   </linearGradient>
  </defs>
  <path id="路径-8" d="M156.238 349.617 C155.355 346.06 153.595 342.759 151.04 339.988 147.833 336.511 143.756 334.311 139.446 333.383 L137.425 255.906 C139.988 254.996 142.412 253.569 144.535 251.615 144.972 251.213 145.375 250.787 145.77 250.356 L286.174 313.728 C286.117 314.282 286.046 314.833 286.024 315.395 285.949 317.198 286.053 318.98 286.322 320.725 Z" fill-opacity="1" fill="url(#linear-gradient-8)" stroke="none"/>
  <defs>
   <linearGradient id="linear-gradient-9" gradientUnits="userSpaceOnUse" x1="55.107" y1="52.056" x2="83.798" y2="52.056">
    <stop offset="0" stop-color="#1d887e" stop-opacity="1"/>
    <stop offset="1" stop-color="#1c4e58" stop-opacity="1"/>
   </linearGradient>
  </defs>
  <path id="路径-9" d="M69.457 66.385 C65.587 66.385 61.73 64.831 58.902 61.764 56.217 58.853 54.969 55.132 55.12 51.469 55.27 47.805 56.82 44.199 59.734 41.518 62.491 38.982 65.975 37.729 69.449 37.729 73.319 37.729 77.176 39.283 80.004 42.35 82.688 45.26 83.937 48.981 83.786 52.645 83.636 56.308 82.085 59.915 79.172 62.595 76.415 65.131 72.931 66.385 69.457 66.385 Z" fill-opacity="1" fill="url(#linear-gradient-9)" stroke="none"/>
  <defs>
   <linearGradient id="linear-gradient-10" gradientUnits="userSpaceOnUse" x1="230.426" y1="15.512" x2="259.117" y2="15.512">
    <stop offset="0" stop-color="#4dc2c1" stop-opacity="1"/>
    <stop offset="0.6" stop-color="#15b6b6" stop-opacity="1"/>
    <stop offset="1" stop-color="#2b8698" stop-opacity="1"/>
   </linearGradient>
  </defs>
  <path id="路径-10" d="M254.49 26.051 C248.663 31.411 239.588 31.039 234.22 25.219 231.536 22.309 230.287 18.587 230.438 14.924 230.588 11.26 232.139 7.654 235.052 4.974 240.88 -0.388 249.955 -0.015 255.323 5.805 258.007 8.715 259.255 12.436 259.104 16.1 258.954 19.764 257.404 23.37 254.49 26.051 Z" fill-opacity="1" fill="url(#linear-gradient-10)" stroke="none"/>
  <defs>
   <linearGradient id="linear-gradient-11" gradientUnits="userSpaceOnUse" x1="349.296" y1="144.407" x2="377.987" y2="144.407">
    <stop offset="0" stop-color="#1d887e" stop-opacity="1"/>
    <stop offset="1" stop-color="#1c4e58" stop-opacity="1"/>
   </linearGradient>
  </defs>
  <path id="路径-11" d="M363.645 158.734 C359.775 158.734 355.918 157.18 353.09 154.114 350.406 151.203 349.157 147.482 349.308 143.818 349.459 140.155 351.009 136.548 353.922 133.868 356.679 131.332 360.163 130.079 363.637 130.079 367.507 130.079 371.365 131.633 374.193 134.7 376.877 137.61 378.125 141.331 377.975 144.995 377.824 148.658 376.274 152.265 373.36 154.945 370.603 157.481 367.119 158.734 363.645 158.734 Z" fill-opacity="1" fill="url(#linear-gradient-11)" stroke="none"/>
  <defs>
   <linearGradient id="linear-gradient-12" gradientUnits="userSpaceOnUse" x1="298.998" y1="316.516" x2="327.689" y2="316.516">
    <stop offset="0" stop-color="#4dc2c1" stop-opacity="1"/>
    <stop offset="0.6" stop-color="#15b6b6" stop-opacity="1"/>
    <stop offset="1" stop-color="#2b8698" stop-opacity="1"/>
   </linearGradient>
  </defs>
  <path id="路径-12" d="M299.011 315.928 C299.161 312.264 300.711 308.658 303.625 305.977 309.452 300.616 318.528 300.989 323.895 306.809 326.579 309.719 327.828 313.44 327.677 317.104 327.527 320.768 325.977 324.374 323.062 327.055 317.236 332.416 308.16 332.043 302.792 326.223 300.109 323.313 298.86 319.592 299.011 315.928 Z" fill-opacity="1" fill="url(#linear-gradient-12)" stroke="none"/>
  <defs>
   <linearGradient id="linear-gradient-13" gradientUnits="userSpaceOnUse" x1="120.407" y1="354.972" x2="149.098" y2="354.972">
    <stop offset="0" stop-color="#1d887e" stop-opacity="1"/>
    <stop offset="1" stop-color="#1c4e58" stop-opacity="1"/>
   </linearGradient>
  </defs>
  <path id="路径-13" d="M134.756 369.3 C130.887 369.3 127.029 367.746 124.2 364.679 121.517 361.769 120.268 358.048 120.419 354.384 120.569 350.721 122.119 347.114 125.033 344.434 127.79 341.897 131.274 340.644 134.748 340.644 138.618 340.644 142.475 342.199 145.304 345.265 147.987 348.176 149.236 351.896 149.085 355.56 148.934 359.224 147.384 362.83 144.471 365.511 141.714 368.047 138.23 369.3 134.756 369.3 Z" fill-opacity="1" fill="url(#linear-gradient-13)" stroke="none"/>
 </g>
</svg>
