<?xml version="1.0" encoding="UTF-8"?>
<svg width="380px" height="380px" viewBox="0 0 380 380" xmlns="http://www.w3.org/2000/svg" xmlns:xlink="http://www.w3.org/1999/xlink" version="1.1">
 <!-- Generated by Pixelmator Pro 2.0.3 -->
 <g id="#ffffffff">
  <path id="路径" d="M206.197 0.254 C207.161 -0.335 208.152 0.244 209.121 0.548 215.73 2.845 222.344 5.102 228.958 7.34 229.721 7.644 230.564 7.752 231.223 8.645 246.031 26.714 260.794 44.901 275.635 62.871 275.455 70.232 275.074 77.574 274.791 84.925 269.461 87.457 264.148 90.058 258.818 92.551 299.185 141.948 339.573 191.276 380 240.506 379.205 262.167 378.291 283.808 377.398 305.459 326.655 329.662 275.934 353.993 225.197 378.254 223.411 378.883 221.626 380.718 219.785 379.697 194.939 371.021 170.05 362.728 145.226 353.885 96.791 294.781 48.536 235.157 0.096 176.034 -0.35 167.966 0.918 160.007 0.662 151.929 1.272 159.82 -0.252 167.642 0.303 175.524 16.232 195.369 32.4 214.664 48.422 234.303 L107.902 306.735 C120.537 321.968 133.031 337.642 145.759 352.609 162.336 358.419 178.956 363.935 195.549 369.637 204.15 372.434 212.719 375.761 221.342 378.225 273.032 353.512 324.701 328.642 376.374 303.82 377.202 283.072 378.084 262.324 378.895 241.576 359.634 218.07 340.401 194.495 321.157 170.94 320.808 179.685 320.395 188.42 320.111 197.175 322.757 201.189 325.866 204.31 328.697 207.98 336.253 217.187 343.792 226.452 351.365 235.628 350.646 254.041 349.884 272.453 349.144 290.875 305.217 311.888 261.29 332.881 217.363 353.914 216.388 354.503 215.387 353.963 214.418 353.669 193.611 346.386 172.755 339.438 151.965 332.028 122.748 296.459 93.666 260.499 64.503 224.773 52.521 209.983 40.446 195.398 28.513 180.47 29.009 174.287 28.622 167.986 29.428 161.891 29.608 158.544 29.205 155.119 29.695 151.841 30.517 147.051 29.537 141.918 30.31 137.119 30.92 133.576 30.255 129.797 30.577 126.166 46.533 119.109 62.38 111.14 78.276 103.523 105.474 90.342 132.683 77.24 159.87 64 160.643 62.95 161.443 63.98 162.156 64.52 155.28 67.131 148.541 70.87 141.72 73.932 110.956 88.507 80.198 103.18 49.418 117.706 47.322 119.511 44.987 119.924 42.76 120.866 38.928 123.418 34.866 124.674 30.969 126.666 29.858 130.514 31.339 135.234 30.217 139.121 29.793 143.125 30.489 147.287 29.885 151.272 29.303 154.717 29.738 158.328 29.569 161.852 28.747 167.947 29.243 174.248 28.698 180.421 63.033 222.045 97.292 263.865 131.599 305.557 138.519 313.88 145.345 322.478 152.319 330.634 173.066 337.936 193.878 344.787 214.646 351.971 215.441 352.147 216.274 352.736 217.08 352.216 260.756 331.242 304.433 310.278 348.104 289.275 348.801 271.717 349.558 254.178 350.233 236.62 340.134 224.341 330.074 211.946 319.986 199.638 319.758 204.987 319.567 210.346 319.317 215.695 318.897 215.871 318.07 216.225 317.651 216.401 321.472 221.79 325.681 226.246 329.617 231.379 328.903 247.681 328.288 263.993 327.602 280.295 289.31 298.569 251.05 317.129 212.741 335.237 194.743 329.299 176.784 322.92 158.792 316.874 157.953 316.54 157.05 316.412 156.331 315.529 121.294 272.718 86.273 229.857 51.225 187.075 50.779 186.31 49.951 185.996 49.853 184.759 50.452 168.643 51.187 152.538 51.781 136.432 67.786 128.59 83.829 121.023 99.856 113.318 100.123 107.39 100.302 101.443 100.613 95.515 114.239 89.086 127.838 82.481 141.453 75.984 149.216 72.431 156.903 68.25 164.709 65.099 164.649 64.559 164.535 63.499 164.475 62.96 166.745 64.608 169.092 62.842 171.237 61.448 166.664 56.129 162.221 50.475 157.698 45.018 157.774 42.732 157.866 40.445 157.964 38.168 133.548 49.72 109.143 61.37 84.733 72.951 70.546 79.595 56.413 86.632 42.188 93.002 48.699 89.312 55.384 86.574 61.961 83.227 93.982 67.759 126.003 52.291 158.019 36.804 158.198 32.23 158.389 27.656 158.574 23.083 174.448 15.476 190.328 7.88 206.197 0.254 M160.659 26.145 C160.474 29.884 160.327 33.633 160.191 37.392 184.808 45.804 209.447 54.028 234.043 62.587 241.567 71.312 248.91 80.596 256.325 89.636 261.813 87.104 267.284 84.463 272.749 81.784 272.929 76.15 273.239 70.536 273.386 64.913 258.889 47.384 244.506 29.551 230.015 12.022 222.497 8.832 214.799 6.614 207.194 3.993 191.651 11.129 176.185 18.853 160.659 26.145 M160.115 38.659 C160.245 40.268 159.45 42.83 160.577 43.762 165.079 49.288 169.603 54.755 174.1 60.31 179.68 57.689 185.249 54.98 190.824 52.311 191.57 51.84 192.332 51.761 193.105 52.085 207.308 56.904 221.5 61.919 235.72 66.601 234.146 63.421 231.702 63.45 229.568 62.616 206.415 54.627 183.268 46.638 160.115 38.659 M185.445 70.183 C199.071 74.757 212.687 79.458 226.313 84.032 226.922 84.247 227.565 84.454 228.087 85.17 231.648 89.469 235.17 93.876 238.747 98.145 240.777 96.918 242.987 96.535 244.92 94.798 241.033 90.274 237.288 85.357 233.39 80.871 220.553 76.15 207.645 72.028 194.782 67.494 191.608 65.767 188.488 68.78 185.445 70.183 M183.159 70.88 C183.91 72.519 184.961 73.55 185.924 74.747 190.905 80.744 195.81 86.976 200.83 92.865 207.912 95.642 215.087 97.733 222.192 100.353 223.814 101.178 224.979 104.888 226.841 103.808 230.39 102.159 233.929 100.393 237.484 98.734 234.348 94.7 231.12 90.931 227.957 86.976 226.824 85.465 225.355 85.455 224.037 84.905 210.406 80.273 196.801 75.375 183.159 70.88 M108.289 107.067 C108.234 107.636 108.12 108.774 108.065 109.344 127.261 100.196 146.439 90.99 165.618 81.764 166.228 81.411 166.854 81.342 167.486 81.578 176.773 84.699 186.033 88.056 195.337 91.029 190.285 84.846 185.238 78.673 180.181 72.509 156.222 84.071 132.225 95.397 108.289 107.067 M107.967 113.505 C107.788 117.637 107.624 121.779 107.456 125.92 128.045 116.125 148.606 106.095 169.211 96.408 184.961 101.521 200.666 107.174 216.405 112.445 217.455 112.847 218.631 112.945 219.513 114.231 245.758 146.384 272.058 178.409 298.298 210.581 300.764 209.443 303.23 208.265 305.685 207.058 304.291 204.967 302.729 203.299 301.248 201.434 275.831 170.361 250.408 139.298 224.995 108.225 224.44 107.459 223.732 107.243 223.079 107.027 216.557 104.819 210.041 102.581 203.519 100.343 201.869 99.872 200.851 96.889 199.202 96.447 188.646 92.835 178.09 89.243 167.535 85.592 166.974 85.386 166.424 85.435 165.885 85.739 146.581 95.004 127.271 104.259 107.967 113.505 M241.186 101.246 C264.954 130.043 288.613 159.123 312.343 188.008 312.484 184.582 312.626 181.167 312.751 177.742 290.986 151.203 269.249 124.595 247.5 98.017 245.399 99.107 243.227 99.813 241.186 101.246 M107.374 128.05 C107.298 129.836 107.222 131.632 107.156 133.438 108.8 135.441 110.466 137.413 112.083 139.514 131.115 130.523 150.114 121.317 169.135 112.219 170.436 111.689 171.748 110.511 173.104 111.277 186.763 115.968 200.421 120.64 214.08 125.312 214.554 125.449 214.995 125.744 215.409 126.215 239.721 155.934 264.039 185.642 288.352 215.381 291.204 214.046 294.046 212.593 296.915 211.327 270.953 179.518 244.942 147.817 218.974 116.017 218.201 114.908 217.178 114.781 216.252 114.437 200.574 109.186 184.923 103.533 169.233 98.469 148.595 108.195 127.996 118.216 107.374 128.05 M228.142 107.263 C254.942 140.103 281.792 172.815 308.592 205.654 309.621 205.173 310.655 204.693 311.684 204.212 311.88 199.54 312.054 194.868 312.267 190.196 288.167 160.654 264.039 131.171 239.928 101.649 235.997 103.494 232.078 105.427 228.142 107.263 M113.569 140.927 C115.251 143.744 117.336 145.638 119.16 148.151 137.473 139.592 155.721 130.474 174.046 122.034 186.757 126.352 199.529 130.465 212.18 135.225 235.067 163.039 257.904 191.011 280.736 218.992 282.766 218.099 284.791 217.088 286.816 216.127 263.114 186.712 239.182 157.867 215.409 128.639 214.505 127.314 213.329 127.078 212.235 126.715 198.788 122.23 185.38 117.352 171.922 113.053 152.45 122.191 133.026 131.691 113.569 140.927 M53.866 139.435 C53.278 154.069 52.668 168.702 52.091 183.336 87.035 226.03 121.975 268.733 156.908 311.456 157.605 312.457 158.476 312.791 159.347 313.046 177.121 319.023 194.874 325.334 212.659 331.193 224.309 325.854 235.905 320.083 247.533 314.587 273.544 302.063 299.582 289.736 325.577 277.095 326.105 262.501 326.748 247.906 327.325 233.312 323.051 228.257 318.93 222.683 314.559 217.972 312.131 218.992 309.741 220.268 307.329 221.397 309.256 224.116 311.33 226.491 313.394 228.895 313.018 243.156 312.272 257.387 311.739 271.638 289.958 282.061 268.176 292.514 246.395 302.947 234.255 308.639 222.164 314.822 209.992 320.211 194.019 314.881 178.08 309.267 162.113 303.879 160.556 303.644 159.385 301.7 158.144 300.238 127.413 262.658 96.666 225.107 65.935 187.517 66.534 173.335 67.067 159.143 67.688 144.971 78.195 139.985 88.685 134.911 99.186 129.895 99.35 125.754 99.524 121.612 99.687 117.48 84.411 124.792 69.141 132.123 53.866 139.435 M120.516 149.642 C124.724 155.07 129.084 160.115 133.331 165.454 148.198 158.456 163.022 151.144 177.894 144.195 187.024 146.865 196.088 150.398 205.196 153.342 206.638 153.647 207.722 155.561 208.908 156.905 226.089 177.918 243.27 198.931 260.462 219.915 260.343 222.909 260.223 225.922 260.098 228.925 266.451 225.686 272.945 223.164 279.211 219.473 257.457 192.984 235.758 166.376 214.026 139.838 212.937 138.611 211.952 136.834 210.629 136.52 198.44 132.437 186.273 128.08 174.078 124.095 156.195 132.369 138.377 141.163 120.516 149.642 M68.711 146.59 C68.183 159.889 67.628 173.197 67.094 186.506 98.413 224.734 129.689 263.099 161.035 301.259 176.664 307.069 192.424 312.045 208.097 317.59 209.083 317.885 210.112 318.503 211.097 317.796 244.299 301.838 277.518 286.007 310.71 269.999 311.172 256.632 311.891 243.294 312.25 229.926 310.04 227.472 307.944 224.734 305.794 222.143 302.958 223.458 300.132 224.852 297.301 226.187 296.79 238.592 296.294 251.008 295.783 263.423 278.776 271.56 261.769 279.725 244.768 287.872 232.268 293.721 219.818 300.101 207.292 305.626 193.012 300.778 178.711 296.027 164.464 290.885 136.973 257.505 109.573 223.821 82.12 190.324 82.62 177.958 83.121 165.581 83.628 153.215 89.659 150.329 95.686 147.414 101.718 144.549 100.781 143.243 99.807 142.046 98.805 140.937 98.827 137.953 98.969 134.979 99.099 132.015 88.973 136.873 78.842 141.722 68.711 146.59 M101.647 146.629 C96.002 149.397 90.334 152.047 84.678 154.805 84.313 166.337 83.519 177.938 83.432 189.431 97.183 206.381 111.005 223.154 124.784 240.035 138.225 256.357 151.557 272.973 165.058 289.098 178.738 293.966 192.468 298.491 206.165 303.271 207.482 304.036 208.783 302.986 210.063 302.436 238.289 288.863 266.527 275.407 294.748 261.804 295.173 250.154 295.728 238.533 296.126 226.883 292.288 228.424 288.531 230.505 284.715 232.203 284.318 240.536 284.062 248.898 283.654 257.23 257.626 269.597 231.637 282.228 205.604 294.555 198.113 292.445 190.671 289.501 183.202 287.077 177.862 285.064 172.423 283.73 167.148 281.325 142.868 251.773 118.632 222.074 94.385 192.424 94.869 181.412 95.234 170.381 95.768 159.378 100.101 157.396 104.418 155.266 108.74 153.195 107.075 150.84 105.294 148.779 103.541 146.659 102.986 145.746 102.262 146.394 101.647 146.629 M134.681 166.955 C138.138 171.185 141.518 175.867 145.155 179.498 157.191 173.914 169.179 167.937 181.215 162.333 188.037 164.296 194.847 166.779 201.625 169.242 214.581 184.867 227.456 200.727 240.347 216.519 239.923 222.467 240.113 228.778 239.411 234.519 233.776 237.414 228.087 239.947 222.437 242.744 224.631 243.205 226.873 245.247 229.073 243.814 239.03 239.004 248.998 234.254 258.96 229.475 259.085 226.599 259.205 223.723 259.276 220.847 241.643 199.471 224.092 177.869 206.491 156.405 205.577 155.237 204.423 155.188 203.372 154.766 195.663 152.145 187.96 149.515 180.263 146.845 179.25 146.541 178.21 145.864 177.203 146.541 163.033 153.352 148.846 160.105 134.681 166.955 M96.786 160.998 C96.361 171.136 95.953 181.285 95.55 191.433 119.367 220.533 143.184 249.634 166.99 278.764 168.085 280.236 169.5 280.255 170.785 280.785 181.536 284.456 192.283 288.127 203.024 291.837 204.069 292.121 205.141 292.857 206.197 292.249 231.68 280.03 257.158 267.83 282.635 255.601 282.94 247.995 283.251 240.398 283.561 232.792 278.531 235.177 273.511 237.601 268.492 240.006 262.368 242.685 256.428 246.444 250.309 249.114 233.978 256.857 217.679 264.905 201.325 272.472 192.245 269.557 183.191 266.279 174.116 263.237 173.213 263.07 172.461 262.177 171.748 261.264 154.164 239.613 136.455 218.286 118.915 196.527 119.318 188.351 119.617 180.156 119.933 171.971 120.935 171.441 121.942 170.93 122.96 170.439 118.665 165.11 114.358 159.81 110.009 154.628 105.61 156.836 101.195 158.897 96.786 160.998 M179.049 165.385 C168.128 170.626 157.213 175.916 146.276 181.059 152.052 188.538 158.035 195.496 163.893 202.779 171.482 211.946 178.967 221.417 186.616 230.397 197.64 234.382 208.707 238.092 219.758 241.792 226.057 239.112 232.279 235.825 238.545 232.939 238.768 227.816 238.943 222.683 239.193 217.569 226.993 202.484 214.695 187.635 202.479 172.599 201.766 171.745 201.058 170.793 200.187 170.665 194.183 168.643 188.183 166.563 182.184 164.511 181.112 164.04 180.077 164.973 179.049 165.385 M121.027 173.423 C120.657 180.784 120.456 188.175 120.075 195.536 137.511 217.088 155.068 238.308 172.532 259.782 173.164 260.636 173.888 261.186 174.683 261.392 182.805 264.169 190.927 266.927 199.044 269.744 200.106 270.028 201.205 270.794 202.272 270.058 210.095 266.25 217.951 262.618 225.763 258.732 218.669 256.416 211.603 253.825 204.51 251.538 201.739 251.832 199.104 255.307 196.289 253.854 190.143 251.616 183.943 249.791 177.824 247.386 164.84 231.889 152.041 215.862 139.096 200.237 139.199 196.978 139.352 193.73 139.444 190.481 134.392 184.366 129.329 178.272 124.348 171.98 123.232 172.412 122.132 172.923 121.027 173.423 M140.517 192.071 C140.419 194.436 140.326 196.811 140.255 199.196 152.847 214.478 165.368 229.965 177.971 245.207 184.084 248.054 190.426 249.536 196.616 251.921 198.369 252.843 200.068 251.165 201.777 250.615 196.153 248.564 190.513 246.699 184.879 244.785 184.248 244.52 183.567 244.393 183.017 243.765 168.814 226.628 154.796 208.972 140.517 192.071 Z" fill="#f3ac34" fill-opacity="1" stroke="none"/>
  <path id="路径-1" d="M175.404 179.526 C175.969 180.028 173.956 180.034 174.505 179.526 Z" fill="#f3ac34" fill-opacity="1" stroke="none"/>
 </g>
</svg>
