<?xml version="1.0" encoding="UTF-8"?> <svg xmlns="http://www.w3.org/2000/svg" width="34" height="34" viewBox="0 0 34 34" fill="none"><path d="M33 22.6471L33 5.00001C33 2.79087 31.2091 1.00001 29 1.00001L5.00001 1.00001C2.79087 1.00001 1.00001 2.79087 1.00001 5.00001L1 29C1 31.2091 2.79087 33 5.00001 33L22.6471 33" stroke="#7856FF" stroke-width="2" stroke-linecap="round" stroke-linejoin="round"></path><path d="M24 24L24 9" stroke="#7856FF" stroke-width="2" stroke-linecap="round" stroke-linejoin="round"></path><path d="M17 24L17 18" stroke="#7856FF" stroke-width="2" stroke-linecap="round" stroke-linejoin="round"></path><path d="M23.5882 28.2939L33 28.2939" stroke="#7856FF" stroke-width="2" stroke-linecap="round" stroke-linejoin="round"></path><path d="M28.2939 23.5882L28.2939 33" stroke="#7856FF" stroke-width="2" stroke-linecap="round" stroke-linejoin="round"></path><path d="M33 22.6471L33 5.00001C33 2.79087 31.2091 1.00001 29 1.00001L5.00001 1.00001C2.79087 1.00001 1.00001 2.79087 1.00001 5.00001L1 29C1 31.2091 2.79087 33 5.00001 33L22.6471 33" stroke="#7856FF" stroke-width="2" stroke-linecap="round" stroke-linejoin="round"></path><path d="M10 24L10 12" stroke="#7856FF" stroke-width="2" stroke-linecap="round" stroke-linejoin="round"></path></svg> 