<?xml version="1.0" encoding="UTF-8"?>
<svg width="130px" height="44px" viewBox="0 0 130 44" xmlns="http://www.w3.org/2000/svg" xmlns:xlink="http://www.w3.org/1999/xlink" version="1.1">
 <!-- Generated by Pixelmator Pro 2.0.3 -->
 <path id="INTEGRATED" d="M98.602 8.364 C98.602 8.912 98.598 9.231 98.591 9.324 98.552 9.748 98.431 10.064 98.226 10.272 98.022 10.48 97.758 10.615 97.435 10.677 97.219 10.715 96.876 10.734 96.406 10.734 L93.805 10.734 93.805 2.781 95.354 2.781 C96.186 2.781 96.781 2.806 97.14 2.856 97.498 2.906 97.805 3.047 98.059 3.278 98.305 3.486 98.463 3.748 98.533 4.064 98.579 4.272 98.602 4.63 98.602 5.139 Z M96.521 8.226 L96.521 4.746 C96.521 4.476 96.473 4.309 96.377 4.243 96.28 4.178 96.113 4.145 95.874 4.145 L95.874 9.359 C96.236 9.359 96.44 9.239 96.487 9 96.51 8.877 96.521 8.619 96.521 8.226 Z M93.111 10.7 L89.539 10.7 89.539 2.746 92.984 2.746 92.984 4.33 91.608 4.33 91.608 5.844 92.903 5.844 92.903 7.359 91.608 7.359 91.608 9.116 93.111 9.116 Z M88.972 4.33 L87.758 4.33 87.758 10.7 85.689 10.7 85.689 4.33 84.452 4.33 84.452 2.746 88.972 2.746 Z M84.244 10.7 L82.112 10.7 82.007 9.266 81.25 9.266 81.135 10.7 79.018 10.7 80.07 2.746 83.065 2.746 Z M81.966 7.844 C81.897 7.258 81.828 6.605 81.758 5.885 81.689 5.164 81.654 4.707 81.654 4.515 81.6 4.885 81.523 5.497 81.423 6.353 81.354 6.908 81.296 7.405 81.25 7.844 Z M78.533 10.7 L76.614 10.7 76.614 7.821 C76.614 7.536 76.575 7.347 76.498 7.255 76.421 7.162 76.252 7.116 75.989 7.116 L75.989 10.7 73.92 10.7 73.92 2.746 75.388 2.746 C76.606 2.746 77.381 2.827 77.712 2.989 78.259 3.258 78.533 3.898 78.533 4.908 78.533 5.509 78.471 5.91 78.348 6.11 78.201 6.349 77.885 6.495 77.4 6.549 77.893 6.68 78.213 6.877 78.359 7.139 78.475 7.347 78.533 7.74 78.533 8.318 Z M76.614 5.162 L76.614 4.723 C76.614 4.515 76.587 4.368 76.533 4.284 76.456 4.168 76.305 4.11 76.082 4.11 L75.989 4.11 75.989 5.867 C76.259 5.867 76.431 5.823 76.504 5.734 76.577 5.646 76.614 5.455 76.614 5.162 Z M73.099 8.584 C73.099 9.316 72.957 9.836 72.672 10.145 72.302 10.538 71.612 10.734 70.602 10.734 70.132 10.734 69.72 10.665 69.365 10.526 69.011 10.388 68.752 10.164 68.591 9.856 68.475 9.648 68.4 9.424 68.365 9.185 68.331 8.946 68.313 8.657 68.313 8.318 68.313 8.164 68.313 8.048 68.313 7.971 L68.313 5.613 C68.313 5.336 68.315 5.064 68.319 4.798 68.323 4.532 68.348 4.31 68.394 4.133 68.502 3.663 68.751 3.312 69.14 3.081 69.529 2.85 70.028 2.734 70.637 2.734 71.415 2.734 72.02 2.912 72.452 3.266 72.884 3.621 73.099 4.149 73.099 4.85 L73.099 5.671 71.157 5.671 71.157 4.954 C71.157 4.599 71.124 4.339 71.059 4.174 70.993 4.008 70.872 3.925 70.695 3.925 70.556 3.925 70.469 3.994 70.435 4.133 70.4 4.272 70.383 4.503 70.383 4.827 L70.383 8.919 C70.383 9.32 70.494 9.521 70.718 9.521 70.895 9.521 71.026 9.438 71.111 9.272 71.196 9.106 71.238 8.881 71.238 8.596 L71.238 7.648 70.695 7.648 70.695 6.422 73.099 6.422 Z M67.643 10.7 L64.07 10.7 64.07 2.746 67.515 2.746 67.515 4.33 66.14 4.33 66.14 5.844 67.435 5.844 67.435 7.359 66.14 7.359 66.14 9.116 67.643 9.116 Z M63.504 4.33 L62.29 4.33 62.29 10.7 60.221 10.7 60.221 4.33 58.984 4.33 58.984 2.746 63.504 2.746 Z M58.487 10.7 L56.718 10.7 55.192 6.966 55.192 10.7 53.469 10.7 53.469 2.746 55.226 2.746 56.764 6.445 56.764 2.746 58.487 2.746 Z M52.718 10.7 L50.648 10.7 50.648 2.746 52.718 2.746 Z" fill="#ffffff" fill-opacity="1" stroke="none"/>
 <path id="ASSETS" d="M79.202 28.747 C79.202 29.202 79.169 29.529 79.103 29.725 79.038 29.922 78.928 30.106 78.773 30.275 78.619 30.445 78.403 30.567 78.125 30.64 77.847 30.713 77.515 30.75 77.129 30.75 76.713 30.75 76.369 30.711 76.099 30.634 75.829 30.557 75.615 30.426 75.457 30.241 75.298 30.055 75.183 29.837 75.109 29.586 75.036 29.336 74.999 28.936 74.999 28.388 L74.999 28.087 76.736 28.087 76.736 28.828 C76.736 29.098 76.753 29.284 76.788 29.384 76.823 29.484 76.913 29.534 77.06 29.534 77.307 29.534 77.431 29.318 77.431 28.886 77.431 28.608 77.415 28.4 77.384 28.261 77.353 28.122 77.261 27.975 77.106 27.821 76.389 27.304 75.895 26.918 75.624 26.663 75.169 26.239 74.941 25.613 74.941 24.788 74.941 24.494 74.959 24.24 74.993 24.024 75.028 23.807 75.1 23.603 75.208 23.41 75.362 23.155 75.578 22.982 75.856 22.889 76.134 22.796 76.504 22.75 76.967 22.75 77.415 22.75 77.768 22.777 78.027 22.831 78.285 22.885 78.499 23.005 78.669 23.19 78.839 23.375 78.951 23.611 79.005 23.896 79.036 24.066 79.051 24.379 79.051 24.834 L79.051 24.938 77.326 24.938 77.326 24.579 C77.326 24.371 77.322 24.243 77.315 24.197 77.284 24.02 77.187 23.931 77.025 23.931 76.801 23.931 76.69 24.139 76.69 24.556 76.69 24.88 76.742 25.112 76.846 25.251 76.95 25.39 77.272 25.633 77.813 25.98 78.407 26.358 78.797 26.76 78.982 27.184 79.129 27.516 79.202 28.037 79.202 28.747 Z M74.536 24.336 L73.321 24.336 73.321 30.715 71.248 30.715 71.248 24.336 70.009 24.336 70.009 22.75 74.536 22.75 Z M69.616 30.715 L66.038 30.715 66.038 22.75 69.488 22.75 69.488 24.336 68.111 24.336 68.111 25.853 69.407 25.853 69.407 27.369 68.111 27.369 68.111 29.129 69.616 29.129 Z M65.321 28.747 C65.321 29.202 65.288 29.529 65.222 29.725 65.157 29.922 65.047 30.106 64.892 30.275 64.738 30.445 64.522 30.567 64.244 30.64 63.966 30.713 63.634 30.75 63.248 30.75 62.831 30.75 62.488 30.711 62.218 30.634 61.948 30.557 61.733 30.426 61.575 30.241 61.417 30.055 61.301 29.837 61.228 29.586 61.155 29.336 61.118 28.936 61.118 28.388 L61.118 28.087 62.855 28.087 62.855 28.828 C62.855 29.098 62.872 29.284 62.907 29.384 62.941 29.484 63.032 29.534 63.179 29.534 63.426 29.534 63.549 29.318 63.549 28.886 63.549 28.608 63.534 28.4 63.503 28.261 63.472 28.122 63.379 27.975 63.225 27.821 62.507 27.304 62.013 26.918 61.743 26.663 61.288 26.239 61.06 25.613 61.06 24.788 61.06 24.494 61.077 24.24 61.112 24.024 61.147 23.807 61.218 23.603 61.326 23.41 61.481 23.155 61.697 22.982 61.975 22.889 62.252 22.796 62.623 22.75 63.086 22.75 63.534 22.75 63.887 22.777 64.145 22.831 64.404 22.885 64.618 23.005 64.788 23.19 64.958 23.375 65.07 23.611 65.124 23.896 65.155 24.066 65.17 24.379 65.17 24.834 L65.17 24.938 63.445 24.938 63.445 24.579 C63.445 24.371 63.441 24.243 63.433 24.197 63.403 24.02 63.306 23.931 63.144 23.931 62.92 23.931 62.808 24.139 62.808 24.556 62.808 24.88 62.86 25.112 62.965 25.251 63.069 25.39 63.391 25.633 63.931 25.98 64.526 26.358 64.915 26.76 65.101 27.184 65.247 27.516 65.321 28.037 65.321 28.747 Z M60.504 28.747 C60.504 29.202 60.472 29.529 60.406 29.725 60.34 29.922 60.23 30.106 60.076 30.275 59.922 30.445 59.705 30.567 59.428 30.64 59.15 30.713 58.818 30.75 58.432 30.75 58.015 30.75 57.672 30.711 57.402 30.634 57.131 30.557 56.917 30.426 56.759 30.241 56.601 30.055 56.485 29.837 56.412 29.586 56.338 29.336 56.302 28.936 56.302 28.388 L56.302 28.087 58.038 28.087 58.038 28.828 C58.038 29.098 58.056 29.284 58.09 29.384 58.125 29.484 58.216 29.534 58.362 29.534 58.609 29.534 58.733 29.318 58.733 28.886 58.733 28.608 58.718 28.4 58.687 28.261 58.656 28.122 58.563 27.975 58.409 27.821 57.691 27.304 57.197 26.918 56.927 26.663 56.472 26.239 56.244 25.613 56.244 24.788 56.244 24.494 56.261 24.24 56.296 24.024 56.331 23.807 56.402 23.603 56.51 23.41 56.664 23.155 56.881 22.982 57.158 22.889 57.436 22.796 57.807 22.75 58.27 22.75 58.718 22.75 59.071 22.777 59.329 22.831 59.588 22.885 59.802 23.005 59.972 23.19 60.142 23.375 60.253 23.611 60.307 23.896 60.338 24.066 60.354 24.379 60.354 24.834 L60.354 24.938 58.629 24.938 58.629 24.579 C58.629 24.371 58.625 24.243 58.617 24.197 58.586 24.02 58.49 23.931 58.328 23.931 58.104 23.931 57.992 24.139 57.992 24.556 57.992 24.88 58.044 25.112 58.148 25.251 58.252 25.39 58.575 25.633 59.115 25.98 59.709 26.358 60.099 26.76 60.284 27.184 60.431 27.516 60.504 28.037 60.504 28.747 Z M55.85 30.715 L53.715 30.715 53.61 29.28 52.852 29.28 52.737 30.715 50.617 30.715 51.671 22.75 54.669 22.75 Z M53.569 27.856 C53.5 27.269 53.431 26.615 53.361 25.893 53.292 25.172 53.257 24.714 53.257 24.521 53.203 24.892 53.126 25.505 53.025 26.362 52.956 26.918 52.898 27.416 52.852 27.856 Z" fill="#ffffff" fill-opacity="1" stroke="none"/>
 <path id="EXCHANGE" d="M91.239 40.669 L87.677 40.669 87.677 32.738 91.112 32.738 91.112 34.317 89.74 34.317 89.74 35.827 91.031 35.827 91.031 37.337 89.74 37.337 89.74 39.089 91.239 39.089 Z M86.847 38.559 C86.847 39.289 86.704 39.808 86.42 40.115 86.051 40.507 85.363 40.703 84.357 40.703 83.888 40.703 83.477 40.634 83.123 40.496 82.77 40.357 82.512 40.134 82.351 39.827 82.236 39.62 82.161 39.397 82.126 39.158 82.092 38.92 82.074 38.632 82.074 38.294 82.074 38.14 82.074 38.025 82.074 37.948 L82.074 35.596 C82.074 35.32 82.076 35.049 82.08 34.784 82.084 34.519 82.109 34.298 82.155 34.121 82.263 33.652 82.51 33.303 82.898 33.072 83.287 32.841 83.784 32.726 84.391 32.726 85.167 32.726 85.771 32.903 86.201 33.256 86.631 33.61 86.847 34.136 86.847 34.836 L86.847 35.654 84.91 35.654 84.91 34.939 C84.91 34.586 84.877 34.327 84.812 34.161 84.747 33.996 84.626 33.913 84.449 33.913 84.311 33.913 84.224 33.983 84.19 34.121 84.155 34.259 84.138 34.49 84.138 34.813 L84.138 38.893 C84.138 39.293 84.249 39.493 84.472 39.493 84.649 39.493 84.779 39.41 84.864 39.245 84.948 39.08 84.991 38.855 84.991 38.571 L84.991 37.625 84.449 37.625 84.449 36.403 86.847 36.403 Z M81.302 40.669 L79.538 40.669 78.017 36.945 78.017 40.669 76.299 40.669 76.299 32.738 78.051 32.738 79.584 36.426 79.584 32.738 81.302 32.738 Z M75.803 40.669 L73.677 40.669 73.573 39.239 72.818 39.239 72.704 40.669 70.593 40.669 71.642 32.738 74.628 32.738 Z M73.532 37.821 C73.463 37.237 73.394 36.586 73.325 35.867 73.256 35.149 73.221 34.694 73.221 34.501 73.167 34.87 73.091 35.481 72.991 36.334 72.922 36.888 72.864 37.383 72.818 37.821 Z M70.04 40.692 L67.965 40.692 67.965 37.36 67.365 37.36 67.365 40.692 65.29 40.692 65.29 32.761 67.365 32.761 67.365 35.596 67.965 35.596 67.965 32.761 70.04 32.761 Z M64.656 37.798 C64.656 37.89 64.656 37.96 64.656 38.006 64.656 38.083 64.656 38.14 64.656 38.179 64.656 38.609 64.626 38.947 64.564 39.193 64.349 40.2 63.604 40.703 62.328 40.703 61.867 40.703 61.498 40.672 61.221 40.611 60.945 40.549 60.699 40.411 60.483 40.196 60.222 39.942 60.059 39.65 59.994 39.32 59.928 38.989 59.896 38.498 59.896 37.844 L59.896 34.974 C59.896 34.19 60.101 33.616 60.512 33.251 60.923 32.886 61.521 32.703 62.305 32.703 62.774 32.703 63.146 32.743 63.423 32.824 63.7 32.905 63.942 33.062 64.149 33.297 64.357 33.531 64.499 33.84 64.576 34.225 64.629 34.501 64.656 34.905 64.656 35.435 L64.656 35.85 62.697 35.85 62.697 34.813 C62.697 34.728 62.697 34.663 62.697 34.617 62.697 34.386 62.693 34.252 62.685 34.213 62.647 34.021 62.535 33.925 62.351 33.925 62.09 33.925 61.959 34.09 61.959 34.421 L61.959 38.882 C61.959 39.289 62.086 39.493 62.339 39.493 62.501 39.493 62.601 39.427 62.639 39.297 62.678 39.166 62.697 38.901 62.697 38.501 L62.697 37.499 64.656 37.499 Z M59.607 40.669 L57.694 40.669 C57.632 40.438 57.538 40.004 57.411 39.366 57.285 38.728 57.171 38.106 57.071 37.499 57.002 38.144 56.948 38.605 56.91 38.882 56.825 39.481 56.741 40.077 56.656 40.669 L54.651 40.669 55.4 36.242 54.651 32.738 56.645 32.738 57.071 35.205 C57.148 34.805 57.252 34.232 57.383 33.487 57.413 33.287 57.456 33.037 57.509 32.738 L59.239 32.738 58.524 36.242 Z M54.109 40.669 L50.547 40.669 50.547 32.738 53.982 32.738 53.982 34.317 52.61 34.317 52.61 35.827 53.901 35.827 53.901 37.337 52.61 37.337 52.61 39.089 54.109 39.089 Z" fill="#ffffff" fill-opacity="1" stroke="none"/>
 <path id="BLOCKCHAIN" d="M118.961 20.514 L116.57 20.514 114.508 17.002 114.508 20.514 112.18 20.514 112.18 13.033 114.555 13.033 116.633 16.512 116.633 13.033 118.961 13.033 Z M111.164 20.514 L108.367 20.514 108.367 13.033 111.164 13.033 Z M107.68 20.514 L104.798 20.514 104.656 19.166 103.633 19.166 103.478 20.514 100.617 20.514 102.039 13.033 106.086 13.033 Z M104.602 17.828 C104.508 17.277 104.414 16.663 104.32 15.985 104.227 15.307 104.18 14.878 104.18 14.696 104.107 15.044 104.003 15.621 103.867 16.425 103.773 16.947 103.695 17.415 103.633 17.828 Z M99.867 20.536 L97.055 20.536 97.055 17.393 96.242 17.393 96.242 20.536 93.43 20.536 93.43 13.054 96.242 13.054 96.242 15.729 97.055 15.729 97.055 13.054 99.867 13.054 Z M92.57 17.807 C92.57 17.894 92.57 17.959 92.57 18.002 92.57 18.075 92.57 18.129 92.57 18.165 92.57 18.571 92.529 18.89 92.445 19.122 92.154 20.072 91.143 20.547 89.414 20.547 88.789 20.547 88.289 20.518 87.914 20.46 87.539 20.402 87.206 20.271 86.914 20.068 86.56 19.829 86.339 19.554 86.25 19.242 86.161 18.93 86.117 18.466 86.117 17.85 L86.117 15.142 C86.117 14.403 86.396 13.861 86.953 13.517 87.51 13.172 88.32 13 89.383 13 90.018 13 90.523 13.038 90.898 13.114 91.273 13.19 91.602 13.339 91.883 13.56 92.164 13.781 92.357 14.073 92.461 14.435 92.534 14.696 92.57 15.077 92.57 15.577 L92.57 15.969 89.914 15.969 89.914 14.99 C89.914 14.91 89.914 14.849 89.914 14.805 89.914 14.588 89.909 14.461 89.898 14.425 89.846 14.243 89.695 14.153 89.445 14.153 89.091 14.153 88.914 14.309 88.914 14.62 L88.914 18.829 C88.914 19.213 89.086 19.405 89.43 19.405 89.648 19.405 89.784 19.343 89.836 19.22 89.888 19.097 89.914 18.847 89.914 18.47 L89.914 17.524 92.57 17.524 Z M85.727 20.514 L82.836 20.514 81.711 17.306 81.711 20.514 78.914 20.514 78.914 13.033 81.711 13.033 81.711 15.936 82.945 13.033 85.57 13.033 83.961 16.404 Z M78.258 17.807 C78.258 17.894 78.258 17.959 78.258 18.002 78.258 18.075 78.258 18.129 78.258 18.165 78.258 18.571 78.216 18.89 78.133 19.122 77.841 20.072 76.831 20.547 75.102 20.547 74.477 20.547 73.977 20.518 73.602 20.46 73.227 20.402 72.893 20.271 72.602 20.068 72.247 19.829 72.026 19.554 71.938 19.242 71.849 18.93 71.805 18.466 71.805 17.85 L71.805 15.142 C71.805 14.403 72.083 13.861 72.641 13.517 73.198 13.172 74.008 13 75.07 13 75.706 13 76.211 13.038 76.586 13.114 76.961 13.19 77.289 13.339 77.57 13.56 77.852 13.781 78.044 14.073 78.148 14.435 78.221 14.696 78.258 15.077 78.258 15.577 L78.258 15.969 75.602 15.969 75.602 14.99 C75.602 14.91 75.602 14.849 75.602 14.805 75.602 14.588 75.596 14.461 75.586 14.425 75.534 14.243 75.383 14.153 75.133 14.153 74.779 14.153 74.602 14.309 74.602 14.62 L74.602 18.829 C74.602 19.213 74.773 19.405 75.117 19.405 75.336 19.405 75.471 19.343 75.523 19.22 75.576 19.097 75.602 18.847 75.602 18.47 L75.602 17.524 78.258 17.524 Z M70.898 17.404 C70.898 18.086 70.883 18.566 70.852 18.845 70.82 19.124 70.742 19.358 70.617 19.546 70.388 19.894 70.026 20.146 69.531 20.302 69.036 20.458 68.419 20.536 67.68 20.536 66.94 20.536 66.323 20.458 65.828 20.302 65.333 20.146 64.966 19.894 64.727 19.546 64.612 19.38 64.536 19.135 64.5 18.812 64.464 18.49 64.445 18.02 64.445 17.404 L64.445 16.132 C64.445 15.45 64.461 14.97 64.492 14.691 64.523 14.412 64.602 14.178 64.727 13.99 64.966 13.649 65.326 13.406 65.805 13.261 66.284 13.116 66.909 13.043 67.68 13.043 68.451 13.043 69.073 13.114 69.547 13.256 70.021 13.397 70.378 13.642 70.617 13.99 70.732 14.164 70.807 14.412 70.844 14.734 70.88 15.057 70.898 15.523 70.898 16.132 Z M68.102 18.666 L68.102 14.957 C68.102 14.878 68.102 14.82 68.102 14.783 68.102 14.551 68.078 14.385 68.031 14.283 67.984 14.182 67.867 14.131 67.68 14.131 67.492 14.131 67.372 14.187 67.32 14.299 67.268 14.412 67.242 14.631 67.242 14.957 L67.242 18.796 C67.242 18.992 67.268 19.144 67.32 19.253 67.372 19.362 67.487 19.416 67.664 19.416 67.956 19.416 68.102 19.166 68.102 18.666 Z M63.602 20.514 L58.273 20.514 58.273 13.033 61.07 13.033 61.07 19.024 63.602 19.024 Z M57.508 18.763 C57.508 19.423 57.263 19.88 56.773 20.134 56.284 20.387 55.435 20.514 54.227 20.514 L50.992 20.514 50.992 13.033 54.289 13.033 C55.31 13.033 56.068 13.187 56.563 13.495 57.057 13.803 57.305 14.283 57.305 14.936 57.305 15.472 57.232 15.827 57.086 16.001 56.909 16.212 56.492 16.367 55.836 16.469 56.492 16.578 56.935 16.75 57.164 16.985 57.393 17.221 57.508 17.582 57.508 18.067 Z M54.695 15.023 C54.695 14.696 54.638 14.497 54.523 14.425 54.409 14.352 54.164 14.316 53.789 14.316 L53.789 15.969 C53.924 15.969 54.018 15.969 54.07 15.969 54.352 15.969 54.526 15.918 54.594 15.816 54.661 15.715 54.695 15.45 54.695 15.023 Z M54.695 18.535 L54.695 17.828 C54.695 17.509 54.651 17.315 54.563 17.246 54.474 17.178 54.216 17.143 53.789 17.143 L53.789 19.22 C54.174 19.22 54.422 19.182 54.531 19.106 54.641 19.03 54.695 18.84 54.695 18.535 Z" fill="#ffffff" fill-opacity="1" stroke="none"/>
 <g id="New-Group">
  <g id="#ead2b8ff-副本">
   <path id="路径" d="M2.64 7.891 C4.975 5.547 7.317 3.211 9.665 0.88 9.663 3.217 9.667 5.554 9.662 7.89 7.322 7.894 4.981 7.891 2.64 7.891 Z" fill="#ffffff" fill-opacity="1" stroke="none"/>
   <path id="路径-1" d="M14.694 11.094 C17.125 10.303 19.823 10.403 22.207 11.314 23.996 11.993 25.608 13.112 26.923 14.5 27.067 14.657 27.215 14.812 27.37 14.958 L27.363 14.966 C25.479 17.146 24.246 19.857 23.746 22.687 23.6 23.448 23.555 24.223 23.461 24.992 23.362 24.549 23.349 24.092 23.252 23.648 22.927 21.941 22.19 20.298 21.044 18.983 19.978 17.758 18.528 16.823 16.912 16.547 15.247 16.249 13.485 16.669 12.1 17.631 11.586 17.969 11.141 18.394 10.707 18.828 10.699 16.962 10.701 15.096 10.706 13.231 11.897 12.292 13.243 11.541 14.694 11.094 Z" fill="#ffffff" fill-opacity="1" stroke="none"/>
   <path id="路径-2" d="M23.461 26.567 C23.556 27.361 23.604 28.161 23.759 28.948 24.262 31.748 25.493 34.421 27.344 36.586 25.595 38.613 23.227 40.142 20.598 40.72 18.61 41.159 16.499 41.071 14.567 40.417 13.164 39.967 11.864 39.231 10.707 38.324 10.7 36.458 10.699 34.593 10.708 32.727 11.642 33.705 12.793 34.508 14.11 34.863 15.817 35.349 17.716 35.07 19.215 34.123 21.406 32.785 22.784 30.384 23.253 27.902 23.348 27.461 23.361 27.007 23.461 26.567 Z" fill="#ffffff" fill-opacity="1" stroke="none"/>
  </g>
  <g id="#264234ff-副本">
   <path id="路径-3" d="M2.631 10.541 C4.976 10.54 7.321 10.54 9.666 10.541 9.665 20.692 9.666 30.842 9.665 40.993 7.32 40.993 4.975 40.995 2.631 40.993 2.631 30.841 2.631 20.692 2.631 10.541 Z" fill="#ffffff" fill-opacity="1" stroke="none"/>
   <path id="路径-4" d="M32.464 11.333 C34.495 10.549 36.752 10.359 38.884 10.802 40.753 11.191 42.505 12.059 44 13.238 43.998 15.109 44 16.979 43.999 18.85 42.948 17.708 41.563 16.835 40.021 16.566 38.546 16.289 36.975 16.563 35.681 17.324 34.415 18.035 33.391 19.133 32.663 20.381 31.878 21.721 31.43 23.244 31.29 24.787 31.287 24.919 31.294 25.052 31.307 25.184 31.178 24.739 31.198 24.271 31.136 23.816 30.784 20.584 29.501 17.431 27.363 14.966 L27.37 14.958 C28.746 13.369 30.496 12.087 32.464 11.333 Z" fill="#ffffff" fill-opacity="1" stroke="none"/>
   <path id="路径-5" d="M31.202 26.944 C31.212 26.771 31.263 26.604 31.309 26.437 31.254 26.781 31.338 27.121 31.373 27.463 31.629 29.177 32.289 30.844 33.359 32.215 34.318 33.443 35.629 34.432 37.138 34.864 38.548 35.273 40.097 35.156 41.44 34.569 42.419 34.153 43.276 33.491 43.999 32.718 44 34.588 43.998 36.459 44 38.329 42.85 39.226 41.565 39.962 40.175 40.411 38.31 41.051 36.276 41.161 34.345 40.778 31.621 40.245 29.165 38.682 27.356 36.6 29.666 33.927 30.99 30.46 31.202 26.944 Z" fill="#ffffff" fill-opacity="1" stroke="none"/>
  </g>
  <path id="路径-副本" d="M23.746 22.687 C24.246 19.857 25.479 17.146 27.363 14.966 29.501 17.431 30.784 20.584 31.136 23.816 31.198 24.271 31.178 24.739 31.307 25.184 31.257 25.601 31.28 26.021 31.309 26.437 31.263 26.604 31.212 26.771 31.202 26.944 30.99 30.46 29.666 33.927 27.356 36.6 L27.344 36.586 C25.493 34.421 24.262 31.748 23.759 28.948 23.604 28.161 23.556 27.361 23.461 26.567 23.455 26.043 23.457 25.517 23.461 24.992 23.555 24.223 23.6 23.448 23.746 22.687 Z" fill="#ffffff" fill-opacity="1" stroke="none"/>
  <g id="#c0b9a9ff-副本">
   <path id="路径-6" d="M23.746 22.687 C24.246 19.857 25.479 17.146 27.363 14.966 29.501 17.431 30.784 20.584 31.136 23.816 31.198 24.271 31.178 24.739 31.307 25.184 31.257 25.601 31.28 26.021 31.309 26.437 31.263 26.604 31.212 26.771 31.202 26.944 30.99 30.46 29.666 33.927 27.356 36.6 L27.344 36.586 C25.493 34.421 24.262 31.748 23.759 28.948 23.604 28.161 23.556 27.361 23.461 26.567 23.455 26.043 23.457 25.517 23.461 24.992 23.555 24.223 23.6 23.448 23.746 22.687 Z" fill="#ffffff" fill-opacity="1" stroke="none"/>
  </g>
 </g>
</svg>
