<?xml version="1.0" encoding="UTF-8"?>
<svg width="130px" height="44px" viewBox="0 0 130 44" xmlns="http://www.w3.org/2000/svg" xmlns:xlink="http://www.w3.org/1999/xlink" version="1.1">
 <!-- Generated by Pixelmator Pro 2.0.3 -->
 <path id="IBAX-副本" d="M129 11 L122.356 11 118.936 16.815 115.548 11 108.904 11 115.711 20 108.904 29 115.548 29 118.936 23.185 122.356 29 129 29 122.193 20 Z M101.576 11 L92.293 11 85.812 29 91.381 29 92.814 24.777 100.599 24.777 102.064 29 108.09 29 Z M99.491 21.546 L93.922 21.546 95.908 15.846 C96.202 15.038 96.462 14.208 96.658 13.377 L96.82 13.377 C96.983 14.208 97.244 15.038 97.537 15.846 Z M78.386 19.608 C81.382 19.123 83.336 17.923 83.336 15.615 83.336 12.315 79.884 11 74.705 11 L66.237 11 66.237 29 75.226 29 C80.665 29 84.509 27.408 84.509 23.738 84.509 20.9 81.577 19.885 78.386 19.723 Z M74.086 14 C76.008 14 77.474 14.669 77.474 16.215 77.474 17.808 75.943 18.477 74.086 18.477 L71.937 18.477 71.937 14 Z M71.937 25.885 L71.937 21.477 75.129 21.477 C77.278 21.477 78.711 22.192 78.711 23.646 78.711 25.308 77.278 25.885 75.096 25.885 Z M61.026 11 L55 11 55 29 61.026 29 Z" fill="#ffffff" fill-opacity="1" stroke="none"/>
 <g id="New-Group">
  <g id="#ead2b8ff-副本">
   <path id="路径" d="M2.64 7.891 C4.975 5.547 7.317 3.211 9.665 0.88 9.663 3.217 9.667 5.554 9.662 7.89 7.322 7.894 4.981 7.891 2.64 7.891 Z" fill="#ffffff" fill-opacity="1" stroke="none"/>
   <path id="路径-1" d="M14.694 11.094 C17.125 10.303 19.823 10.403 22.207 11.314 23.997 11.993 25.609 13.112 26.924 14.5 27.068 14.657 27.216 14.812 27.371 14.958 L27.364 14.966 C25.48 17.146 24.247 19.857 23.747 22.688 23.601 23.449 23.556 24.224 23.462 24.993 23.363 24.55 23.349 24.093 23.252 23.649 22.927 21.942 22.19 20.298 21.044 18.983 19.978 17.758 18.528 16.823 16.912 16.547 15.247 16.249 13.485 16.669 12.1 17.631 11.586 17.969 11.141 18.394 10.707 18.828 10.699 16.962 10.701 15.096 10.706 13.231 11.897 12.292 13.243 11.541 14.694 11.094 Z" fill="#ffffff" fill-opacity="1" stroke="none"/>
   <path id="路径-2" d="M23.462 26.568 C23.557 27.362 23.605 28.162 23.76 28.949 24.263 31.749 25.494 34.422 27.345 36.587 25.596 38.614 23.227 40.143 20.598 40.721 18.61 41.16 16.499 41.072 14.567 40.418 13.164 39.968 11.864 39.232 10.707 38.325 10.7 36.459 10.699 34.594 10.708 32.728 11.642 33.706 12.793 34.509 14.11 34.864 15.817 35.35 17.716 35.071 19.215 34.124 21.406 32.786 22.784 30.385 23.253 27.903 23.349 27.462 23.362 27.008 23.462 26.568 Z" fill="#ffffff" fill-opacity="1" stroke="none"/>
  </g>
  <g id="#264234ff-副本">
   <path id="路径-3" d="M2.631 10.541 C4.976 10.54 7.321 10.54 9.666 10.541 9.665 20.692 9.666 30.843 9.665 40.994 7.32 40.994 4.975 40.996 2.631 40.994 2.631 30.842 2.631 20.692 2.631 10.541 Z" fill="#ffffff" fill-opacity="1" stroke="none"/>
   <path id="路径-4" d="M32.465 11.333 C34.496 10.549 36.753 10.359 38.885 10.802 40.754 11.191 42.506 12.059 44.001 13.238 43.999 15.109 44.001 16.979 44 18.85 42.949 17.708 41.564 16.835 40.022 16.566 38.547 16.289 36.976 16.563 35.682 17.324 34.416 18.035 33.392 19.133 32.664 20.381 31.879 21.722 31.431 23.245 31.291 24.788 31.288 24.92 31.295 25.053 31.308 25.185 31.179 24.74 31.199 24.272 31.137 23.817 30.785 20.584 29.502 17.431 27.364 14.966 L27.371 14.958 C28.747 13.369 30.497 12.087 32.465 11.333 Z" fill="#ffffff" fill-opacity="1" stroke="none"/>
   <path id="路径-5" d="M31.203 26.945 C31.213 26.772 31.264 26.605 31.31 26.438 31.255 26.782 31.339 27.122 31.374 27.464 31.63 29.178 32.29 30.845 33.36 32.216 34.319 33.444 35.63 34.433 37.139 34.865 38.549 35.274 40.098 35.157 41.441 34.57 42.42 34.154 43.277 33.492 44 32.719 44.001 34.589 43.999 36.46 44.001 38.33 42.851 39.227 41.566 39.963 40.176 40.412 38.311 41.052 36.277 41.162 34.346 40.779 31.622 40.246 29.166 38.683 27.357 36.601 29.667 33.928 30.991 30.461 31.203 26.945 Z" fill="#ffffff" fill-opacity="1" stroke="none"/>
  </g>
  <path id="路径-副本" d="M23.747 22.688 C24.247 19.857 25.48 17.146 27.364 14.966 29.502 17.431 30.785 20.584 31.137 23.817 31.199 24.272 31.179 24.74 31.308 25.185 31.258 25.602 31.281 26.022 31.31 26.438 31.264 26.605 31.213 26.772 31.203 26.945 30.991 30.461 29.667 33.928 27.357 36.601 L27.345 36.587 C25.494 34.422 24.263 31.749 23.76 28.949 23.605 28.162 23.557 27.362 23.462 26.568 23.456 26.044 23.458 25.518 23.462 24.993 23.556 24.224 23.601 23.449 23.747 22.688 Z" fill="#ffffff" fill-opacity="1" stroke="none"/>
  <g id="#c0b9a9ff-副本">
   <path id="路径-6" d="M23.747 22.688 C24.247 19.857 25.48 17.146 27.364 14.966 29.502 17.431 30.785 20.584 31.137 23.817 31.199 24.272 31.179 24.74 31.308 25.185 31.258 25.602 31.281 26.022 31.31 26.438 31.264 26.605 31.213 26.772 31.203 26.945 30.991 30.461 29.667 33.928 27.357 36.601 L27.345 36.587 C25.494 34.422 24.263 31.749 23.76 28.949 23.605 28.162 23.557 27.362 23.462 26.568 23.456 26.044 23.458 25.518 23.462 24.993 23.556 24.224 23.601 23.449 23.747 22.688 Z" fill="#ffffff" fill-opacity="1" stroke="none"/>
  </g>
 </g>
</svg>
