<?xml version="1.0" encoding="UTF-8"?>
<svg width="231px" height="28px" viewBox="0 0 231 28" xmlns="http://www.w3.org/2000/svg" xmlns:xlink="http://www.w3.org/1999/xlink" version="1.1">
 <!-- Generated by Pixelmator Pro 2.0.3 -->
 <path id="路径-副本" d="M210.098 22.299 C205.695 22.299 201.986 19.639 200.84 16.001 L225.256 16.001 228.621 11.286 200.84 11.286 C201.981 7.641 205.695 4.989 210.098 4.989 L226.86 4.989 230.212 0.262 209.716 0.262 C201.517 0.262 194.866 6.249 194.866 13.644 194.866 21.03 201.517 27.005 209.716 27.005 L227.347 27.005 230.699 22.299 Z M140.228 27.005 L157.859 27.005 161.197 22.299 140.619 22.299 C135.285 22.299 130.989 18.415 130.989 13.644 130.989 8.852 135.285 4.989 140.619 4.989 L157.369 4.989 160.747 0.262 140.228 0.262 C132.016 0.262 125.346 6.249 125.346 13.644 125.346 21.03 132.016 27.005 140.228 27.005 M31.738 22.299 L15.242 22.299 C9.935 22.299 5.633 18.415 5.633 13.644 5.633 8.852 9.935 4.989 15.242 4.989 L31.738 4.989 C37.065 4.989 41.361 8.852 41.361 13.644 41.361 18.415 37.065 22.299 31.738 22.299 M14.863 27.005 L32.133 27.005 C40.349 27.005 46.965 21.03 46.965 13.644 46.965 6.249 40.349 0.262 32.133 0.262 L14.863 0.262 C6.656 0.262 0 6.249 0 13.644 0 21.03 6.656 27.005 14.863 27.005 M75.009 18.345 C80.572 18.345 85.044 14.294 85.044 9.302 85.044 4.31 80.572 0.262 75.009 0.262 L50.011 0.262 50.011 27.005 55.724 27.005 55.724 4.989 74.63 4.989 C77.282 4.989 79.433 6.916 79.433 9.302 79.433 11.683 77.282 13.644 74.63 13.644 L58.518 13.632 75.582 27.005 83.871 27.005 72.411 18.345 Z M169.523 22.283 L169.523 0.262 163.798 0.262 163.798 24.447 C163.798 25.106 164.107 25.752 164.644 26.219 165.189 26.727 165.939 27.005 166.726 27.005 L192.756 27.005 196.148 22.283 Z M99.594 17.577 L114.835 17.577 106.782 5.881 92.002 27.005 85.249 27.005 103.246 1.654 C104.013 0.627 105.333 0.005 106.774 0.005 108.183 0.005 109.478 0.607 110.247 1.609 L128.298 27.005 121.563 27.005 118.39 22.283 102.958 22.283 Z" fill="#ffffff" fill-opacity="1" stroke="none"/>
</svg>
