<?xml version="1.0" encoding="UTF-8"?>
<svg width="512px" height="512px" viewBox="0 0 512 512" xmlns="http://www.w3.org/2000/svg" xmlns:xlink="http://www.w3.org/1999/xlink" version="1.1">
 <!-- Generated by Pixelmator Pro 2.0.3 -->
 <path id="路径" d="M373.852 308.297 C372.406 303.477 366.461 301.223 360.355 301.223 354.41 301.223 348.465 303.477 347.02 308.297 L316.008 409.359 C315.848 410.004 315.688 410.645 315.688 410.965 315.688 416.109 323.238 419.641 328.863 419.641 332.398 419.641 335.129 418.52 335.934 415.465 L342.035 394.094 378.832 394.094 384.941 415.465 C385.742 418.52 388.473 419.641 392.008 419.641 397.633 419.641 405.184 415.949 405.184 410.965 405.184 410.484 405.023 410 404.863 409.359 Z M346.375 377.703 L360.352 328.379 374.336 377.703 Z M346.375 377.703" fill="#ffffff" fill-opacity="1" stroke="none"/>
 <path id="路径-1" d="M456.836 208.867 L303.129 208.867 303.129 143.219 353.082 107.539 C357.023 104.723 359.363 100.18 359.363 95.336 359.363 90.488 357.023 85.945 353.082 83.129 L302.527 47.02 C298.578 20.449 275.613 0 247.965 0 L55.168 0 C24.746 0 0 24.746 0 55.168 L0 247.969 C0 278.387 24.746 303.133 55.168 303.133 L208.871 303.133 208.871 368.781 158.918 404.461 C154.977 407.277 152.637 411.824 152.637 416.668 152.637 421.512 154.977 426.059 158.918 428.871 L209.473 464.98 C213.422 491.551 236.387 512 264.035 512 L456.836 512 C487.254 512 512 487.25 512 456.832 L512 264.035 C512 233.613 487.254 208.867 456.836 208.867 Z M55.168 273.133 C41.289 273.133 30 261.844 30 247.965 L30 55.164 C30 41.289 41.289 30 55.168 30 L247.965 30 C261.84 30 273.129 41.289 273.129 55.164 273.129 60.012 275.469 64.559 279.41 67.371 L318.555 95.332 279.41 123.293 C275.469 126.109 273.129 130.656 273.129 135.5 L273.129 208.867 264.035 208.867 C233.617 208.867 208.871 233.613 208.871 264.031 L208.871 273.133 Z M482 456.832 C482 470.711 470.711 482 456.836 482 L264.035 482 C250.16 482 238.871 470.711 238.871 456.832 238.871 451.988 236.531 447.441 232.59 444.629 L193.445 416.668 232.59 388.707 C236.531 385.891 238.871 381.344 238.871 376.5 L238.871 264.035 C238.871 250.156 250.16 238.867 264.035 238.867 L288.09 238.867 288.129 238.867 288.168 238.867 456.836 238.867 C470.711 238.867 482 250.156 482 264.035 Z M482 456.832" fill="#ffffff" fill-opacity="1" stroke="none"/>
 <path id="路径-2" d="M197.652 138.277 C202.32 138.277 206.109 134.488 206.109 129.816 206.109 125.145 202.32 121.355 197.652 121.355 L160.023 121.355 160.023 100.816 C160.023 96.145 156.234 92.355 151.563 92.355 146.895 92.355 143.105 96.145 143.105 100.816 L143.105 121.355 105.477 121.355 C100.809 121.355 97.02 125.145 97.02 129.816 97.02 134.488 100.809 138.277 105.477 138.277 L117.137 138.277 C119 156.141 126.703 172.285 138.289 184.789 128.684 190.539 117.465 193.859 105.477 193.859 100.809 193.859 97.02 197.645 97.02 202.316 97.02 206.988 100.809 210.777 105.477 210.777 122.594 210.777 138.473 205.426 151.563 196.324 164.656 205.426 180.535 210.777 197.652 210.777 202.32 210.777 206.109 206.988 206.109 202.316 206.109 197.645 202.32 193.859 197.652 193.859 185.664 193.859 174.445 190.547 164.84 184.789 176.426 172.285 184.129 156.141 185.992 138.277 Z M151.563 174.219 C142.309 164.613 136.023 152.141 134.184 138.277 L168.945 138.277 C167.105 152.141 160.82 164.613 151.563 174.219 Z M151.563 174.219" fill="#ffffff" fill-opacity="1" stroke="none"/>
</svg>
