<svg width="64" height="64" viewBox="0 0 64 64" fill="none" xmlns="http://www.w3.org/2000/svg">
<rect x="12" y="27" width="4" height="10" fill="url(#paint0_linear)"/>
<rect x="27" y="12" width="11" height="4" fill="url(#paint1_linear)"/>
<rect x="48" y="26" width="4" height="12" fill="url(#paint2_linear)"/>
<rect x="2" y="38" width="24" height="24" rx="2" stroke="#715DF2" stroke-width="4"/>
<circle cx="50" cy="50" r="12" stroke="#C0B7F9" stroke-width="4"/>
<path d="M48.5858 3.41421C49.3668 2.63317 50.6332 2.63317 51.4142 3.41421L60.5858 12.5858C61.3668 13.3668 61.3668 14.6332 60.5858 15.4142L51.4142 24.5858C50.6332 25.3668 49.3668 25.3668 48.5858 24.5858L39.4142 15.4142C38.6332 14.6332 38.6332 13.3668 39.4142 12.5858L48.5858 3.41421Z" stroke="#A599F7" stroke-width="4"/>
<circle cx="14" cy="14" r="12" stroke="#8B7AF4" stroke-width="4"/>
<defs>
<linearGradient id="paint0_linear" x1="14" y1="27" x2="14" y2="37" gradientUnits="userSpaceOnUse">
<stop stop-color="#8B7AF4"/>
<stop offset="1" stop-color="#715DF2"/>
</linearGradient>
<linearGradient id="paint1_linear" x1="27" y1="14" x2="36.625" y2="14" gradientUnits="userSpaceOnUse">
<stop stop-color="#8B7AF4"/>
<stop offset="1" stop-color="#A599F7"/>
</linearGradient>
<linearGradient id="paint2_linear" x1="50" y1="26" x2="50" y2="38" gradientUnits="userSpaceOnUse">
<stop stop-color="#A599F7"/>
<stop offset="1" stop-color="#C0B7F9"/>
</linearGradient>
</defs>
</svg>
