<?xml version="1.0" encoding="UTF-8"?>
<svg width="142px" height="35px" viewBox="0 0 142 35" xmlns="http://www.w3.org/2000/svg" xmlns:xlink="http://www.w3.org/1999/xlink" version="1.1">
 <!-- Generated by Pixelmator Pro 2.0.3 -->
 <path id="La-Vista" d="M66.339 30.452 C65.282 30.452 64.685 30.193 64.546 29.673 L64.468 29.386 C64.433 29.143 64.538 28.876 64.781 28.581 L65.197 28.087 63.792 25.641 63.273 24.55 C63.099 24.48 62.882 24.125 62.622 23.483 62.57 23.345 62.466 23.103 62.31 22.757 62.206 22.531 62.075 22.21 61.919 21.794 61.729 21.499 61.504 20.936 61.244 20.104 L60.88 18.96 60.411 17.815 C60.238 17.417 59.874 16.187 59.32 14.124 59.25 13.847 59.112 13.326 58.904 12.563 L58.697 11.03 58.384 9.757 58.046 8.819 58.021 7.702 58.228 6.479 C58.349 5.786 58.592 5.275 58.956 4.946 L59.451 4.815 60.074 4.608 60.906 4.27 61.453 4.167 C61.955 4.167 62.249 4.366 62.335 4.764 L62.804 7.026 C62.995 7.928 62.995 8.914 62.804 9.989 L63.661 14.487 C63.748 14.816 63.905 15.433 64.13 16.335 L64.806 19.013 C64.858 19.03 65.041 19.601 65.353 20.727 L65.691 21.925 C65.881 22.133 66.133 22.591 66.445 23.302 66.895 24.29 67.199 24.802 67.355 24.837 67.528 24.802 67.952 24.161 68.628 22.913 68.836 22.549 69.096 21.916 69.408 21.014 69.789 19.94 70.066 19.186 70.24 18.753 L70.943 16.983 71.722 14.852 72.035 13.214 72.007 11.784 C71.799 10.328 72.095 9.365 72.892 8.897 L73.361 8.741 74.087 8.534 74.425 8.325 74.816 8.196 C75.076 8.196 75.293 8.335 75.466 8.612 75.588 9.479 75.622 10.311 75.57 11.108 75.587 11.594 75.553 12.217 75.466 12.979 75.38 13.343 75.189 14.003 74.894 14.956 L74.581 15.813 74.425 16.386 74.062 17.348 C73.889 17.626 73.698 18.076 73.49 18.7 L72.945 20.389 72.71 21.04 71.853 22.913 C71.628 23.658 71.298 24.412 70.865 25.175 L70.136 26.473 70.421 27.333 C70.456 27.61 70.309 27.904 69.98 28.216 L68.992 29.126 68.628 29.335 68.031 29.723 C67.753 30.07 67.416 30.313 67.017 30.452 L66.339 30.452 Z M26.126 30.331 C25.377 30.331 24.768 30.173 24.298 29.854 23.64 29.854 23.127 29.603 22.763 29.1 L22.4 28.372 22.347 27.358 C22.278 26.041 22.304 24.749 22.425 23.483 L22.841 19.116 22.738 17.245 C22.72 17.02 22.383 16.716 21.724 16.335 21.897 15.901 22.01 15.216 22.062 14.28 21.975 13.777 21.949 13.44 21.984 13.266 L22.218 12.175 22.634 10.095 C22.842 9.037 23.059 8.344 23.285 8.014 L23.857 6.766 C24.255 5.882 24.957 5.396 25.962 5.309 26.222 5.223 26.63 5.136 27.185 5.05 27.393 5.05 27.694 5.162 28.093 5.388 28.353 5.578 28.518 5.839 28.587 6.169 L28.615 6.298 C28.667 6.54 28.683 6.93 28.665 7.468 28.665 7.676 28.639 8.1 28.587 8.741 L28.458 9.938 28.277 11.421 C28.242 11.698 28.19 12.164 28.12 12.823 28.138 13.014 28.094 13.283 27.99 13.63 L27.73 14.514 C27.73 15.087 27.67 15.432 27.548 15.554 L27.392 16.776 26.976 19.247 26.507 22.886 26.378 24.524 26.482 25.772 C26.794 26.483 27.176 26.915 27.626 27.071 L28.484 26.917 30.589 26.839 C31.993 26.787 33.874 26.397 36.232 25.669 36.285 25.652 36.368 25.629 36.429 25.61 36.368 25.316 36.27 25.117 36.128 25.018 L35.947 24.628 35.947 24.134 C35.947 23.423 36.562 22.392 37.792 21.04 38 20.849 38.364 20.485 38.884 19.948 39.837 18.943 41.267 17.582 43.173 15.866 L45.021 14.852 C45.437 14.818 45.974 14.747 46.632 14.643 L47.671 15.034 C47.983 15.155 48.297 15.64 48.609 16.489 48.626 16.853 48.582 17.339 48.478 17.946 48.478 18.067 48.383 17.997 48.193 17.737 47.95 17.425 47.819 17.27 47.802 17.27 47.23 16.889 46.72 16.698 46.269 16.698 45.714 16.837 45.322 17.002 45.097 17.192 44.56 17.522 44.041 18.006 43.538 18.647 L42.732 19.454 42.003 20.442 41.458 21.014 C41.164 21.379 40.834 21.821 40.47 22.341 L39.275 24.03 38.954 24.722 39.794 24.368 C39.645 24.667 39.48 24.94 39.3 25.188 L39.613 25.331 C40.219 25.192 40.764 24.939 41.249 24.575 L42.706 23.12 C42.914 22.843 43.32 22.374 43.927 21.716 44.291 21.144 44.796 20.416 45.437 19.532 45.524 19.376 45.739 18.994 46.085 18.388 46.38 17.85 46.693 17.583 47.023 17.583 L47.333 22.341 C47.42 23.606 48.14 24.36 49.492 24.602 49.994 24.533 50.507 24.298 51.027 23.899 L51.13 24.237 C51.13 24.341 51.086 24.498 50.999 24.706 L51.156 25.122 C51.104 25.503 50.774 25.885 50.167 26.266 49.717 26.561 49.24 26.768 48.738 26.889 L48.531 26.942 47.931 27.02 47.517 26.968 C47.014 26.898 46.627 26.752 46.359 26.526 46.09 26.301 45.808 25.953 45.513 25.485 45.374 25.277 45.159 24.775 44.865 23.977 L44.605 22.548 44.24 22.989 C44.066 23.162 43.885 23.379 43.695 23.639 L43.251 24.083 42.966 24.472 42.863 24.55 42.16 25.356 C42.056 25.478 41.579 25.936 40.73 26.733 40.574 26.924 40.236 27.254 39.716 27.722 39.474 27.93 39.178 28.129 38.831 28.319 L38.337 28.581 37.949 28.657 37.533 28.606 C37.334 28.6 37.153 28.524 36.988 28.382 36.654 28.538 36.06 28.767 35.193 29.073 L33.113 29.595 30.824 30.061 26.456 30.321 C26.344 30.328 26.233 30.331 26.126 30.331 Z M106.224 28.657 L105.808 28.606 C105.288 28.589 104.88 28.103 104.585 27.149 L104.482 26.811 C104.464 26.621 104.473 26.482 104.507 26.395 L104.742 25.823 C104.69 25.407 104.577 25.14 104.404 25.018 L104.222 24.63 C104.204 24.646 104.188 24.664 104.169 24.681 L103.597 25.331 103.365 25.563 102.792 26.163 C101.908 27.082 101.319 27.566 101.025 27.618 100.245 27.479 99.766 27.019 99.593 26.239 L99.49 25.147 C99.386 24.09 99.446 22.904 99.671 21.587 L100.009 19.585 99.23 20.884 98.085 22.651 96.89 24.315 96.818 24.026 C96.533 24.513 96.082 24.957 95.46 25.356 95.322 25.443 95.01 25.634 94.525 25.929 94.143 26.154 93.77 26.275 93.406 26.292 93.18 26.24 92.937 26.188 92.677 26.136 92.296 26.222 91.864 26.327 91.378 26.448 L90.078 26.579 88.935 26.604 87.997 26.473 87.425 26.292 C87.234 26.292 86.993 26.187 86.699 25.979 86.456 25.875 86.195 25.694 85.917 25.434 85.484 25.036 85.269 24.602 85.269 24.134 85.269 23.579 85.667 23.163 86.464 22.886 87.123 22.66 87.625 22.566 87.972 22.6 88.301 22.531 88.864 22.591 89.661 22.782 89.922 22.834 90.321 23.041 90.859 23.405 90.269 23.318 89.741 23.276 89.273 23.276 87.834 23.276 87.115 23.596 87.115 24.237 87.115 24.497 87.33 24.748 87.763 24.991 88.127 25.182 88.467 25.304 88.779 25.356 89.489 25.46 89.966 25.468 90.208 25.382 L91.222 25.018 91.898 24.602 C92.331 24.221 92.54 23.936 92.523 23.745 L92.47 22.913 92.029 21.95 91.535 21.325 90.806 20.755 C90.199 20.287 89.637 20.07 89.117 20.104 L88.466 20.155 87.478 20.468 C86.906 20.658 86.438 20.875 86.074 21.118 L85.035 21.847 C84.799 22.007 84.523 22.203 84.228 22.417 L84.228 23.12 83.865 24.368 C83.449 24.975 82.928 25.399 82.304 25.641 L81.55 25.929 80.536 26.057 C80.242 26.023 79.878 25.92 79.445 25.747 L78.742 25.097 78.404 24.134 78.247 23.329 C78.247 23.398 78.284 22.938 78.353 21.95 78.249 21.95 78.014 22.193 77.65 22.679 L77.234 23.223 C77.164 23.362 77.086 23.519 76.999 23.692 76.965 23.744 76.912 23.831 76.843 23.952 L76.583 24.159 76.558 24.212 76.427 23.667 76.427 23.095 76.351 22.497 76.843 22.028 C77.276 21.63 77.658 21.169 77.988 20.649 L78.119 19.714 C78.153 19.61 78.473 19.455 79.079 19.247 L79.99 19.063 C80.492 18.959 80.953 19.176 81.369 19.714 81.421 20.216 81.447 20.59 81.447 20.833 81.447 20.989 81.437 21.091 81.419 21.143 81.003 21.507 80.812 21.811 80.847 22.054 80.778 22.192 80.735 22.427 80.718 22.757 80.701 23.121 80.727 23.372 80.796 23.511 80.919 23.756 81.117 23.93 81.39 24.036 L81.81 23.511 C82.018 23.251 82.243 22.999 82.486 22.757 L83.189 22.054 83.994 21.352 85.242 20.389 85.97 19.895 C86.733 19.375 87.243 19.072 87.503 18.985 L88.441 18.675 89.117 18.518 C89.377 18.449 89.576 18.423 89.714 18.44 L90.105 18.466 C90.66 18.5 91.17 18.571 91.638 18.675 92.453 18.848 93.154 19.168 93.744 19.636 L94.369 20.13 C94.455 20.199 94.61 20.382 94.835 20.677 94.939 20.746 95.044 20.911 95.148 21.171 L95.279 21.481 C95.279 21.499 95.313 21.69 95.382 22.054 L95.46 22.497 C95.46 22.722 95.434 22.963 95.382 23.223 L95.122 23.977 94.732 24.524 C94.645 24.576 94.488 24.697 94.263 24.888 94.523 24.749 95.078 24.524 95.927 24.212 96.35 24.052 96.629 23.954 96.788 23.907 L96.786 23.899 96.656 23.251 C96.569 22.783 96.742 22.367 97.175 22.003 L97.775 21.274 C98.052 20.824 98.364 20.287 98.71 19.663 98.762 19.594 98.961 19.246 99.308 18.622 99.429 18.397 99.55 18.171 99.671 17.946 L100.009 17.296 98.761 17.505 97.904 17.505 97.591 17.53 97.359 17.53 C97.168 17.53 96.951 17.486 96.708 17.399 96.379 17.295 96.206 17.175 96.189 17.036 96.154 16.845 96.17 16.55 96.24 16.151 96.344 15.545 96.396 15.233 96.396 15.216 96.344 14.852 96.31 14.454 96.292 14.02 96.431 13.951 96.735 13.917 97.203 13.917 L98.529 13.917 99.177 14.02 100.165 14.02 C100.321 14.003 100.486 14.003 100.66 14.02 100.989 13.968 101.24 13.777 101.413 13.448 L101.857 12.304 C102.013 11.905 102.238 11.611 102.533 11.421 L102.792 11.472 102.896 11.524 C103.225 11.698 103.408 11.931 103.443 12.225 L103.443 12.772 103.337 13.188 103.208 13.655 C103.226 13.759 103.312 13.874 103.468 13.995 103.728 14.186 103.859 14.28 103.859 14.28 L103.728 15.241 103.781 15.997 C103.781 16.032 103.87 16.118 104.052 16.257 104.234 16.395 104.326 16.482 104.326 16.516 104.326 16.499 104.119 16.551 103.703 16.673 103.408 16.759 103.217 16.812 103.13 16.829 102.714 16.916 102.497 17.01 102.48 17.114 L102.427 17.608 C102.427 17.764 102.411 17.945 102.376 18.153 L101.96 20.649 101.726 22.497 101.701 24.056 101.882 24.524 C101.934 24.524 102.029 24.54 102.167 24.575 102.289 24.592 102.393 24.592 102.48 24.575 102.827 24.506 103.243 24.246 103.728 23.796 L104.144 23.405 104.638 22.835 104.728 22.755 C105.035 22.256 105.481 21.685 106.068 21.04 106.276 20.849 106.64 20.485 107.16 19.948 108.113 18.943 109.544 17.582 111.451 15.866 L113.296 14.852 C113.712 14.818 114.249 14.747 114.908 14.643 L115.949 15.034 C116.261 15.155 116.572 15.64 116.884 16.489 116.901 16.853 116.857 17.339 116.753 17.946 116.753 18.067 116.659 17.997 116.468 17.737 116.225 17.425 116.095 17.27 116.078 17.27 115.506 16.889 114.995 16.698 114.544 16.698 113.99 16.837 113.6 17.002 113.374 17.192 112.837 17.522 112.317 18.006 111.814 18.647 L111.007 19.454 110.281 20.442 109.734 21.014 C109.439 21.379 109.109 21.821 108.745 22.341 L107.55 24.03 107.212 24.759 107.316 25.069 107.888 25.331 C108.495 25.192 109.041 24.939 109.527 24.575 L110.982 23.12 C111.19 22.843 111.598 22.374 112.204 21.716 112.568 21.144 113.071 20.416 113.712 19.532 113.799 19.376 114.016 18.994 114.363 18.388 114.657 17.85 114.969 17.583 115.298 17.583 L115.611 22.341 C115.697 23.606 116.417 24.36 117.769 24.602 118.272 24.533 118.782 24.298 119.302 23.899 L119.406 24.237 C119.406 24.341 119.363 24.498 119.277 24.706 L119.431 25.122 C119.379 25.503 119.051 25.885 118.445 26.266 117.994 26.561 117.516 26.768 117.013 26.889 L116.806 26.942 116.208 27.02 115.792 26.968 C115.29 26.898 114.903 26.752 114.634 26.526 114.365 26.301 114.085 25.953 113.79 25.485 113.652 25.277 113.435 24.775 113.14 23.977 L112.88 22.548 112.517 22.989 C112.344 23.162 112.161 23.38 111.97 23.639 L111.529 24.083 111.242 24.472 111.138 24.55 110.437 25.356 C110.333 25.478 109.855 25.936 109.005 26.733 108.849 26.924 108.512 27.254 107.992 27.722 107.749 27.93 107.455 28.129 107.109 28.319 L106.615 28.581 106.224 28.657 Z M82.613 23.772 L82.773 23.718 83.318 23.329 C83.486 23.161 83.734 22.891 84.027 22.563 83.903 22.654 83.789 22.736 83.656 22.835 L82.613 23.772 Z M79.601 17.427 C79.064 17.427 78.742 17.322 78.638 17.114 L78.482 16.88 C78.378 16.758 78.291 16.551 78.222 16.257 78.187 15.875 78.318 15.475 78.613 15.059 78.786 14.869 79.027 14.583 79.339 14.202 79.426 14.133 79.713 13.976 80.199 13.733 80.372 13.647 80.613 13.578 80.925 13.526 L81.109 13.552 C81.161 13.569 81.316 13.76 81.576 14.124 81.645 14.401 81.679 14.652 81.679 14.878 81.679 15.172 81.619 15.416 81.497 15.606 81.497 15.988 81.256 16.351 80.771 16.698 L79.939 17.296 79.601 17.427 Z" fill="#ffffff" fill-opacity="1" stroke="none"/>
</svg>
