<?xml version="1.0" encoding="UTF-8"?>
<svg width="142px" height="35px" viewBox="0 0 142 35" xmlns="http://www.w3.org/2000/svg" xmlns:xlink="http://www.w3.org/1999/xlink" version="1.1">
 <!-- Generated by Pixelmator Pro 2.0.3 -->
 <path id="Viewpoint" d="M72.476 33 L71.816 32.887 C71.656 32.856 71.427 32.683 71.126 32.365 70.986 32.259 70.865 31.92 70.765 31.346 70.745 31.104 70.805 30.733 70.945 30.234 71.085 29.736 71.156 29.342 71.156 29.055 71.156 28.072 71.215 26.176 71.335 23.365 L71.607 14.771 C71.387 14.892 70.995 15.339 70.435 16.109 70.397 16.24 70.263 16.471 70.04 16.797 70.242 16.9 70.444 17.178 70.646 17.635 L70.704 17.77 C70.785 18.042 70.086 18.427 68.605 18.926 67.864 19.334 66.983 19.629 65.962 19.811 L65.751 19.766 65.661 19.719 65.542 19.584 C65.582 19.342 65.812 19.116 66.232 18.904 L67.494 18.27 C67.874 18.073 68.144 17.845 68.304 17.588 68.544 17.497 68.874 17.317 69.294 17.045 L69.474 16.924 69.474 15.406 C69.474 15.331 69.495 15.23 69.535 15.102 69.575 14.973 69.584 14.847 69.564 14.727 L70.316 13.684 C70.736 13.109 70.956 12.717 70.976 12.506 71.116 12.234 71.276 11.892 71.456 11.484 71.536 11.227 71.697 10.767 71.937 10.102 L72.447 8.697 73.046 7.428 73.738 7.178 74.218 7.246 74.519 7.723 74.849 8.65 74.638 10.283 73.677 13.412 C73.577 13.714 73.508 14.167 73.468 14.771 L73.376 16.02 73.318 16.473 C73.258 17.002 73.207 17.477 73.167 17.9 73.147 18.203 73.136 18.452 73.136 18.648 73.236 18.648 73.316 18.332 73.376 17.697 73.416 17.576 73.487 17.333 73.587 16.971 L73.587 16.994 C73.607 16.949 73.658 16.723 73.738 16.314 74.038 14.576 74.887 12.829 76.288 11.076 76.629 10.653 77.029 10.366 77.49 10.215 77.69 10.154 78.111 10.094 78.751 10.033 79.492 9.973 80.317 10.207 81.228 10.736 82.139 11.265 82.614 11.81 82.654 12.369 L82.593 13.209 82.083 14.545 81.333 15.521 C80.953 16.02 80.763 16.247 80.763 16.201 80.763 16.231 80.823 16.261 80.943 16.291 81.463 16.155 82.564 15.61 84.245 14.658 L86.316 13.48 85.025 14.887 84.245 15.588 82.894 16.428 81.423 17.197 79.953 17.855 C78.632 18.445 77.56 18.74 76.74 18.74 76.379 18.74 76.109 18.671 75.929 18.535 L75.66 17.947 C75.62 17.857 75.599 17.773 75.599 17.697 75.599 17.304 75.869 16.911 76.41 16.518 L77.16 15.975 77.73 15.498 78.181 14.887 78.271 13.957 C78.211 13.685 78.051 13.549 77.79 13.549 77.69 13.549 77.569 13.57 77.429 13.615 L77.191 13.684 C77.091 13.684 76.854 13.847 76.484 14.172 76.114 14.497 75.899 14.719 75.839 14.84 L75.148 16.336 73.828 20.1 73.376 22.957 73.257 25.02 C73.297 25.805 73.327 26.976 73.347 28.533 73.387 28.866 73.488 29.433 73.648 30.234 L74.068 30.938 74.337 31.754 74.158 32.479 73.527 32.887 72.476 33 Z M53.816 21.807 C53.762 21.808 53.709 21.807 53.654 21.805 52.913 21.79 52.473 21.503 52.333 20.943 L52.302 20.83 C51.855 20.463 51.436 19.888 51.046 19.107 L47.079 21.125 45.519 21.443 44.046 21.646 43.386 21.578 C42.706 21.503 41.945 21.224 41.105 20.74 40.985 20.514 40.795 20.294 40.535 20.082 L39.935 19.244 39.894 19.145 C39.557 19.374 39.181 19.551 38.763 19.674 L37.892 19.924 36.722 20.037 C36.382 20.007 35.961 19.917 35.46 19.766 L34.65 19.197 34.261 18.359 34.079 17.656 C34.079 17.717 34.121 17.317 34.201 16.455 34.08 16.455 33.81 16.667 33.39 17.09 L32.91 17.566 C32.829 17.687 32.74 17.823 32.64 17.975 32.6 18.02 32.538 18.095 32.458 18.201 L32.16 18.383 32.128 18.428 31.978 17.951 31.978 17.453 31.888 16.932 32.458 16.523 C32.959 16.176 33.4 15.776 33.781 15.322 L33.929 14.506 C33.969 14.415 34.34 14.279 35.04 14.098 L36.091 13.939 C36.672 13.849 37.203 14.037 37.683 14.506 37.743 14.944 37.773 15.269 37.773 15.48 37.773 15.616 37.764 15.707 37.744 15.752 37.263 16.069 37.041 16.333 37.081 16.545 37.001 16.666 36.953 16.871 36.933 17.158 36.913 17.476 36.943 17.694 37.023 17.814 37.203 18.087 37.523 18.26 37.984 18.336 L39.304 17.996 39.464 17.91 39.273 17 C39.233 16.849 39.265 16.614 39.365 16.297 39.365 16.221 39.514 15.851 39.814 15.186 L40.204 14.301 40.925 13.123 C41.045 12.866 41.256 12.684 41.556 12.578 42.036 12.034 42.865 11.489 44.046 10.945 44.166 10.598 44.647 10.424 45.488 10.424 46.128 10.424 46.719 10.606 47.259 10.969 47.419 10.999 47.538 11.278 47.619 11.807 47.659 12.109 47.679 12.337 47.679 12.488 47.659 12.624 47.54 12.723 47.32 12.783 47.38 13.206 46.949 13.841 46.029 14.688 45.148 15.473 44.406 15.972 43.806 16.184 L43.206 16.727 42.425 17.227 42.277 17.814 C42.397 18.585 42.967 19.145 43.988 19.492 L45.369 19.787 C47.37 19.636 48.961 19.146 50.142 18.314 50.302 18.266 50.452 18.188 50.595 18.084 50.533 17.924 50.472 17.76 50.411 17.588 L50.29 17.248 50.201 17.021 50.021 17.021 C49.821 17.021 49.45 17.195 48.91 17.543 48.169 18.027 47.679 18.291 47.439 18.336 L47.199 18.314 47.048 18.246 47.048 17.861 46.958 17.498 C46.878 17.15 47.05 16.811 47.47 16.479 48.811 15.436 49.681 14.627 50.081 14.053 L50.681 13.598 C51.161 13.235 51.732 13.032 52.392 12.986 52.912 12.986 53.244 13.145 53.384 13.463 53.444 13.599 53.474 13.915 53.474 14.414 53.474 14.611 53.463 14.799 53.443 14.98 L54.163 17.045 C54.223 17.196 54.315 17.445 54.435 17.793 54.555 17.944 54.684 18.028 54.824 18.043 L55.156 17.906 55.544 17.543 55.995 16.932 56.716 16.137 C56.656 15.94 56.766 15.691 57.046 15.389 L57.767 14.619 58.247 13.939 C58.828 13.123 59.577 12.715 60.497 12.715 60.858 12.715 61.148 12.797 61.369 12.963 L61.669 13.553 C61.729 13.81 61.64 13.961 61.4 14.006 L61.429 14.438 C61.449 14.604 61.419 14.769 61.339 14.936 L61.218 15.209 61.339 17.725 61.49 18.043 61.73 18.404 62.089 18.699 C62.369 18.699 62.82 18.36 63.441 17.68 L64.46 16.545 C64.6 16.379 64.852 16.108 65.212 15.73 L65.271 15.412 C65.311 15.246 65.402 15.043 65.542 14.801 L66.081 13.939 66.292 13.463 C66.252 13.251 66.232 13.054 66.232 12.873 66.232 12.087 66.632 11.618 67.433 11.467 67.993 11.648 68.305 11.86 68.365 12.102 68.505 12.691 68.473 13.265 68.273 13.824 67.993 14.64 67.743 15.216 67.523 15.549 67.203 16.032 66.813 16.554 66.353 17.113 L64.972 18.791 63.831 19.834 63.169 20.309 62.451 20.717 C62.03 20.959 61.419 21.08 60.619 21.08 59.498 21.08 58.806 20.475 58.546 19.266 L58.488 18.994 58.306 18.609 58.277 17.77 58.066 17.635 C57.946 17.68 57.717 17.929 57.376 18.383 57.016 18.882 56.705 19.206 56.445 19.357 56.485 19.599 56.226 19.999 55.665 20.559 55.234 21.366 54.617 21.783 53.816 21.807 Z M107.601 21.578 C107.181 21.578 106.801 21.503 106.46 21.352 L106.191 21.08 105.8 20.422 C105.8 20.241 105.78 20.052 105.74 19.855 L105.859 19.313 106.04 18.768 106.37 17.996 106.4 17.588 106.431 17.316 C106.491 17.256 106.491 17.218 106.431 17.203 106.351 17.188 106.31 17.159 106.31 17.113 L105.951 17.041 105.951 17.475 105.529 18.563 C105.048 19.091 104.448 19.462 103.728 19.674 L102.857 19.924 101.687 20.037 C101.347 20.007 100.926 19.917 100.425 19.766 L99.615 19.197 99.226 18.359 99.044 17.656 C99.044 17.717 99.085 17.317 99.165 16.455 99.045 16.455 98.775 16.667 98.355 17.09 L97.874 17.566 C97.794 17.687 97.705 17.823 97.605 17.975 97.565 18.02 97.503 18.095 97.423 18.201 L97.124 18.383 97.093 18.428 96.943 17.951 96.943 17.453 96.853 16.932 97.423 16.523 C97.924 16.176 98.365 15.776 98.745 15.322 L98.894 14.506 C98.934 14.415 99.305 14.279 100.005 14.098 L101.056 13.939 C101.636 13.849 102.167 14.037 102.648 14.506 102.708 14.944 102.738 15.269 102.738 15.48 102.738 15.616 102.728 15.707 102.708 15.752 102.228 16.069 102.006 16.333 102.046 16.545 101.966 16.666 101.918 16.871 101.898 17.158 101.878 17.476 101.908 17.694 101.988 17.814 102.168 18.087 102.488 18.26 102.949 18.336 L103.97 18.072 103.939 18.043 103.908 17.588 103.788 17.066 C103.748 16.915 103.858 16.773 104.119 16.637 104.219 16.44 104.399 16.258 104.66 16.092 L105.439 15.594 106.099 15.186 107.601 14.279 108.261 13.916 C108.641 13.765 109.113 13.689 109.673 13.689 110.514 13.689 111.004 14.006 111.144 14.641 111.184 14.867 111.143 15.148 111.023 15.48 L110.843 15.957 110.212 17.498 110.183 17.748 110.122 18.02 110.783 17.521 111.113 17.361 111.954 16.818 112.765 16.318 C113.105 16.046 113.456 15.774 113.816 15.502 114.276 15.2 114.695 15.049 115.076 15.049 115.576 15.049 116.196 15.216 116.937 15.549 L117.898 16.252 118.109 16.818 117.988 17.406 C117.928 17.512 117.728 17.784 117.388 18.223 117.108 18.585 116.968 18.835 116.968 18.971 116.968 19.031 116.987 19.086 117.027 19.131 L118.288 18.631 119.64 17.928 C119.72 17.867 120.109 17.597 120.81 17.113 120.99 16.977 121.311 16.757 121.771 16.455 121.791 16.524 121.758 16.638 121.675 16.797 121.771 16.694 121.891 16.595 122.04 16.5 L122.732 15.865 C123.052 15.472 123.412 15.005 123.812 14.461 123.872 14.4 124.103 14.097 124.503 13.553 124.643 13.356 124.783 13.159 124.923 12.963 L125.314 12.396 123.872 12.578 122.882 12.578 122.521 12.602 122.251 12.602 C122.031 12.602 121.782 12.564 121.501 12.488 121.121 12.398 120.92 12.291 120.9 12.17 120.86 12.004 120.88 11.746 120.96 11.398 121.08 10.869 121.14 10.599 121.14 10.584 121.08 10.267 121.041 9.919 121.021 9.541 121.181 9.481 121.531 9.449 122.072 9.449 L123.601 9.449 124.353 9.541 125.494 9.541 C125.674 9.526 125.864 9.526 126.064 9.541 126.444 9.496 126.735 9.328 126.935 9.041 L127.445 8.045 C127.625 7.697 127.886 7.44 128.226 7.273 L128.525 7.318 128.646 7.363 C129.026 7.514 129.237 7.72 129.277 7.977 L129.277 8.451 129.156 8.814 129.005 9.223 C129.025 9.313 129.126 9.412 129.306 9.518 129.606 9.684 129.755 9.768 129.755 9.768 L129.607 10.605 129.665 11.264 C129.665 11.294 129.772 11.369 129.982 11.49 130.192 11.611 130.296 11.687 130.296 11.717 130.296 11.702 130.056 11.748 129.576 11.854 129.235 11.929 129.015 11.973 128.915 11.988 128.435 12.064 128.185 12.148 128.165 12.238 L128.105 12.67 C128.105 12.806 128.084 12.963 128.044 13.145 L127.564 15.322 127.294 16.932 127.265 18.291 127.474 18.699 C127.534 18.699 127.644 18.714 127.804 18.744 127.944 18.759 128.065 18.759 128.165 18.744 128.566 18.684 129.046 18.457 129.607 18.064 L130.087 17.725 130.658 17.227 130.927 17.045 C130.987 17.045 131.008 17.089 130.988 17.18 130.968 17.331 130.968 17.446 130.988 17.521 131.068 17.96 130.777 18.398 130.117 18.836 L129.456 19.402 129.185 19.605 128.525 20.127 C127.504 20.928 126.824 21.351 126.484 21.396 125.583 21.276 125.034 20.875 124.833 20.195 L124.712 19.244 C124.592 18.322 124.663 17.285 124.923 16.137 L125.314 14.393 124.413 15.525 123.091 17.066 121.71 18.518 121.591 18.156 121.441 17.588 C121.404 17.437 121.407 17.293 121.453 17.154 121.402 17.228 121.353 17.3 121.29 17.385 120.93 17.868 120.749 18.109 120.749 18.109 119.248 19.228 117.957 19.999 116.876 20.422 116.056 20.664 115.316 20.838 114.656 20.943 L113.816 21.012 C113.255 21.057 112.974 20.86 112.974 20.422 112.974 20.044 113.164 19.522 113.544 18.857 113.664 18.661 113.866 18.292 114.146 17.748 L114.056 17.43 113.785 17.293 113.335 17.406 111.865 18.246 C111.664 18.397 111.294 18.693 110.753 19.131 L109.523 20.195 C109.443 20.392 109.223 20.649 108.863 20.967 108.402 21.375 107.981 21.578 107.601 21.578 Z M89.078 20.559 C88.197 20.559 87.647 20.422 87.427 20.15 86.887 20.014 86.486 19.69 86.226 19.176 86.206 19.07 86.176 19.001 86.136 18.971 L86.197 17.316 C86.017 17.316 85.702 17.486 85.251 17.826 84.801 18.166 84.514 18.353 84.394 18.383 L84.365 18.246 C84.345 18.034 84.354 17.831 84.394 17.635 L84.335 17.521 84.245 17.453 84.185 17.066 C84.385 16.779 84.786 16.41 85.386 15.957 L87.126 14.664 C87.306 14.362 87.508 14.127 87.728 13.961 L89.619 12.623 90.038 12.578 C90.619 12.578 90.949 12.668 91.029 12.85 L90.91 13.1 90.759 13.463 C90.959 13.463 91.239 13.402 91.599 13.281 L92.41 13.123 C93.19 13.123 93.852 13.356 94.392 13.824 L94.632 14.143 94.872 14.846 C94.912 15.057 94.933 15.261 94.933 15.457 94.933 16.077 94.812 16.554 94.572 16.887 L94.271 17.293 C94.131 17.489 94.002 17.695 93.882 17.906 L93.312 18.383 93.072 18.699 91.839 19.584 90.97 20.15 C90.55 20.422 89.918 20.559 89.078 20.559 Z M89.589 19.039 C90.69 18.767 91.661 18.222 92.501 17.406 92.561 17.346 92.66 17.067 92.8 16.568 L92.771 16.047 C92.731 15.457 92.381 15.162 91.72 15.162 91.42 15.162 91.189 15.208 91.029 15.299 L90.339 15.82 C90.119 16.198 89.819 16.387 89.439 16.387 89.039 16.81 88.819 17.384 88.779 18.109 L88.808 18.291 C88.888 18.744 89.149 18.994 89.589 19.039 Z M104.701 17.764 L104.9 17.656 C105.061 17.535 105.29 17.348 105.55 17.131 L105.47 17.158 C105.43 17.234 105.288 17.324 105.048 17.43 L104.701 17.764 Z M42.786 15.639 C43.387 15.548 43.836 15.322 44.136 14.959 44.436 14.838 44.718 14.599 44.978 14.244 45.238 13.889 45.348 13.591 45.308 13.35 45.268 13.138 45.098 12.933 44.798 12.736 44.078 12.736 43.437 13.04 42.876 13.645 42.396 14.143 42.085 14.694 41.945 15.299 42.265 15.526 42.546 15.639 42.786 15.639 Z M35.642 12.51 C35.022 12.51 34.651 12.42 34.531 12.238 L34.351 12.033 C34.231 11.927 34.13 11.747 34.05 11.49 34.01 11.158 34.161 10.81 34.501 10.447 34.701 10.281 34.981 10.032 35.341 9.699 35.441 9.639 35.771 9.503 36.331 9.291 36.532 9.215 36.813 9.155 37.173 9.109 L37.382 9.133 C37.442 9.148 37.623 9.313 37.923 9.631 38.003 9.873 38.042 10.093 38.042 10.289 38.042 10.546 37.973 10.758 37.833 10.924 37.833 11.256 37.552 11.573 36.992 11.875 L36.031 12.396 35.642 12.51 Z M100.607 12.51 C99.986 12.51 99.616 12.42 99.495 12.238 L99.316 12.033 C99.196 11.927 99.095 11.747 99.015 11.49 98.975 11.158 99.126 10.81 99.466 10.447 99.666 10.281 99.946 10.032 100.306 9.699 100.406 9.639 100.736 9.503 101.296 9.291 101.496 9.215 101.778 9.155 102.138 9.109 L102.347 9.133 C102.407 9.148 102.588 9.313 102.888 9.631 102.968 9.873 103.007 10.093 103.007 10.289 103.007 10.546 102.938 10.758 102.798 10.924 102.798 11.256 102.517 11.573 101.956 11.875 L100.995 12.396 100.607 12.51 Z M23.393 24.712 L22.972 24.894 22.282 25.234 C21.962 25.536 21.571 25.748 21.111 25.868 L20.331 25.868 C19.11 25.868 18.419 25.642 18.259 25.188 L18.169 24.939 C18.129 24.727 18.249 24.493 18.529 24.236 L19.01 23.805 17.389 21.674 16.788 20.722 C16.588 20.662 16.338 20.352 16.038 19.793 15.978 19.672 15.858 19.46 15.677 19.158 15.557 18.961 15.407 18.682 15.227 18.319 15.007 18.062 14.747 17.571 14.447 16.845 L14.026 15.848 13.486 14.85 C13.286 14.503 12.865 13.43 12.225 11.631 12.145 11.389 11.985 10.936 11.745 10.271 L11.505 8.933 11.144 7.822 10.754 7.006 10.724 6.031 10.964 4.966 C11.104 4.361 11.384 3.915 11.805 3.628 L12.375 3.515 13.096 3.333 14.056 3.039 14.687 2.948 C15.267 2.948 15.607 3.122 15.707 3.469 L16.248 5.442 C16.468 6.228 16.468 7.089 16.248 8.026 L17.238 11.948 C17.339 12.236 17.519 12.772 17.779 13.558 L18.559 15.893 C18.619 15.908 18.83 16.407 19.19 17.389 L19.58 18.432 C19.8 18.614 20.09 19.014 20.451 19.634 20.971 20.495 21.321 20.941 21.501 20.972 21.702 20.941 22.192 20.382 22.972 19.294 23.213 18.976 23.513 18.425 23.873 17.639 24.313 16.702 24.634 16.044 24.834 15.666 L25.644 14.125 26.545 12.266 26.905 10.838 26.875 9.591 C26.635 8.321 26.975 7.482 27.896 7.074 L28.436 6.938 29.277 6.757 29.667 6.575 30.117 6.462 C30.418 6.462 30.668 6.583 30.868 6.825 31.008 7.58 31.048 8.306 30.988 9.001 31.008 9.424 30.968 9.968 30.868 10.634 30.768 10.951 30.548 11.525 30.207 12.357 L29.847 13.105 29.667 13.603 29.247 14.442 C29.047 14.684 28.826 15.077 28.586 15.621 L27.956 17.095 27.686 17.662 26.695 19.294 C26.435 19.944 26.055 20.601 25.554 21.266 L24.714 22.4 25.044 23.148 C25.084 23.39 24.914 23.647 24.534 23.919 Z" fill="#ffffff" fill-opacity="1" stroke="none"/>
</svg>
