<?xml version="1.0" encoding="UTF-8"?>
<svg width="142px" height="35px" viewBox="0 0 142 35" xmlns="http://www.w3.org/2000/svg" xmlns:xlink="http://www.w3.org/1999/xlink" version="1.1">
 <!-- Generated by Pixelmator Pro 2.0.3 -->
 <path id="觀點看法" d="M123.108 27.952 C122.977 28.344 122.772 28.559 122.492 28.596 122.212 28.633 122.007 28.577 121.876 28.428 121.503 28.055 121.209 27.709 120.994 27.392 120.779 27.075 120.569 26.617 120.364 26.02 119.3 26.244 118.222 26.557 117.13 26.958 116.038 27.359 115.025 27.803 114.092 28.288 113.849 28.4 113.639 28.47 113.462 28.498 113.285 28.526 113.103 28.493 112.916 28.4 112.729 28.307 112.538 28.148 112.342 27.924 112.146 27.7 111.917 27.392 111.656 27 111.357 26.571 111.278 26.099 111.418 25.586 111.558 25.073 111.871 24.639 112.356 24.284 113.047 23.743 113.793 23.117 114.596 22.408 115.399 21.699 116.145 21.017 116.836 20.364 117.041 20.103 117.004 20 116.724 20.056 115.865 20.205 115.231 20.448 114.82 20.784 114.428 21.083 114.097 21.218 113.826 21.19 113.555 21.162 113.289 20.859 113.028 20.28 112.767 19.739 112.627 19.314 112.608 19.006 112.589 18.698 112.711 18.441 112.972 18.236 113.233 18.012 113.378 17.858 113.406 17.774 113.434 17.69 113.355 17.629 113.168 17.592 112.683 17.517 112.211 17.527 111.754 17.62 111.297 17.713 110.867 17.937 110.466 18.292 110.065 18.647 109.687 19.155 109.332 19.818 108.977 20.481 108.66 21.344 108.38 22.408 108.156 23.155 107.974 24.088 107.834 25.208 107.694 26.328 107.559 27.691 107.428 29.296 107.391 29.613 107.237 29.809 106.966 29.884 106.695 29.959 106.289 29.865 105.748 29.604 105.449 29.455 105.127 29.184 104.782 28.792 104.437 28.4 104.11 27.943 103.802 27.42 103.494 26.897 103.237 26.351 103.032 25.782 102.827 25.213 102.715 24.685 102.696 24.2 102.677 23.696 102.687 23.103 102.724 22.422 102.761 21.741 102.813 21.055 102.878 20.364 102.943 19.673 103.018 19.015 103.102 18.39 103.186 17.765 103.265 17.247 103.34 16.836 103.433 16.407 103.536 16.024 103.648 15.688 103.76 15.352 103.9 15.039 104.068 14.75 104.236 14.461 104.451 14.167 104.712 13.868 104.973 13.569 105.291 13.252 105.664 12.916 105.851 12.748 105.963 12.566 106 12.37 106.037 12.174 105.981 11.992 105.832 11.824 105.571 11.507 105.347 11.194 105.16 10.886 104.973 10.578 104.749 10.247 104.488 9.892 104.395 9.78 104.367 9.677 104.404 9.584 104.441 9.491 104.516 9.421 104.628 9.374 104.74 9.327 104.866 9.304 105.006 9.304 105.146 9.304 105.263 9.332 105.356 9.388 105.748 9.612 106.177 9.817 106.644 10.004 107.111 10.191 107.587 10.349 108.072 10.48 108.725 10.648 109.225 10.886 109.57 11.194 109.915 11.502 110.181 11.852 110.368 12.244 110.517 12.543 110.489 12.804 110.284 13.028 110.079 13.252 109.808 13.345 109.472 13.308 109.192 13.289 108.949 13.308 108.744 13.364 108.539 13.42 108.277 13.569 107.96 13.812 107.213 14.353 106.709 14.652 106.448 14.708 106.187 14.764 106.065 14.699 106.084 14.512 106.084 14.419 105.967 14.409 105.734 14.484 105.501 14.559 105.291 14.699 105.104 14.904 104.395 15.725 104.395 16.901 105.104 18.432 105.477 19.16 105.673 19.673 105.692 19.972 105.711 20.271 105.608 20.495 105.384 20.644 105.253 20.756 105.123 21.041 104.992 21.498 104.861 21.955 104.754 22.464 104.67 23.024 104.586 23.584 104.53 24.149 104.502 24.718 104.474 25.287 104.507 25.749 104.6 26.104 104.805 26.589 105.076 26.664 105.412 26.328 105.673 26.067 105.86 25.796 105.972 25.516 106.177 24.713 106.378 23.995 106.574 23.36 106.77 22.725 106.971 22.137 107.176 21.596 107.381 21.055 107.596 20.546 107.82 20.07 108.044 19.594 108.296 19.113 108.576 18.628 108.763 18.311 109.005 17.984 109.304 17.648 109.603 17.312 109.915 16.999 110.242 16.71 110.569 16.421 110.9 16.169 111.236 15.954 111.572 15.739 111.871 15.585 112.132 15.492 112.673 15.324 113.154 15.151 113.574 14.974 113.994 14.797 114.437 14.587 114.904 14.344 115.109 13.896 115.305 13.42 115.492 12.916 115.679 12.412 115.842 11.917 115.982 11.432 116.122 10.947 116.239 10.503 116.332 10.102 116.425 9.701 116.491 9.379 116.528 9.136 116.547 8.968 116.505 8.842 116.402 8.758 116.299 8.674 115.977 8.576 115.436 8.464 115.119 8.389 115.025 8.259 115.156 8.072 115.679 7.643 116.267 7.428 116.92 7.428 117.331 7.428 117.723 7.507 118.096 7.666 118.469 7.825 118.777 8.03 119.02 8.282 119.263 8.534 119.431 8.805 119.524 9.094 119.617 9.383 119.608 9.668 119.496 9.948 119.347 10.303 119.225 10.648 119.132 10.984 119.039 11.32 118.964 11.647 118.908 11.964 119.225 12.169 119.711 12.281 120.364 12.3 120.681 12.319 120.999 12.37 121.316 12.454 121.633 12.538 122.025 12.692 122.492 12.916 122.772 13.065 122.926 13.182 122.954 13.266 122.982 13.35 122.893 13.467 122.688 13.616 122.371 13.877 122.095 14.041 121.862 14.106 121.629 14.171 121.316 14.223 120.924 14.26 120.364 14.279 119.725 14.409 119.006 14.652 118.287 14.895 117.657 15.231 117.116 15.66 116.855 16.127 116.649 16.556 116.5 16.948 116.351 17.34 116.211 17.751 116.08 18.18 116.64 18.105 117.107 18.054 117.48 18.026 117.853 17.998 118.175 17.993 118.446 18.012 118.717 18.031 118.959 18.082 119.174 18.166 119.389 18.25 119.636 18.357 119.916 18.488 120.569 18.917 120.938 19.244 121.022 19.468 121.106 19.692 120.952 20 120.56 20.392 119.701 21.307 118.791 22.156 117.83 22.94 116.869 23.724 115.725 24.517 114.4 25.32 114.195 25.469 114.092 25.581 114.092 25.656 114.092 25.731 114.195 25.749 114.4 25.712 114.96 25.619 115.464 25.53 115.912 25.446 116.36 25.362 116.78 25.273 117.172 25.18 117.564 25.087 117.937 24.989 118.292 24.886 118.647 24.783 119.02 24.667 119.412 24.536 119.225 24.107 119.099 23.775 119.034 23.542 118.969 23.309 118.941 23.141 118.95 23.038 118.959 22.935 119.015 22.884 119.118 22.884 119.221 22.884 119.347 22.903 119.496 22.94 119.832 23.015 120.168 23.131 120.504 23.29 120.84 23.449 121.162 23.64 121.47 23.864 121.778 24.088 122.067 24.326 122.338 24.578 122.609 24.83 122.837 25.077 123.024 25.32 123.155 25.507 123.253 25.679 123.318 25.838 123.383 25.997 123.421 26.169 123.43 26.356 123.439 26.543 123.416 26.762 123.36 27.014 123.304 27.266 123.22 27.579 123.108 27.952 Z M94.184 14.736 C94.445 14.941 94.637 15.156 94.758 15.38 94.879 15.604 94.907 15.791 94.842 15.94 94.777 16.089 94.613 16.192 94.352 16.248 94.091 16.304 93.708 16.267 93.204 16.136 92.812 16.024 92.308 15.959 91.692 15.94 91.076 15.921 90.381 15.949 89.606 16.024 88.831 16.099 88.005 16.215 87.128 16.374 86.251 16.533 85.345 16.733 84.412 16.976 84.281 17.256 84.146 17.527 84.006 17.788 83.866 18.049 83.712 18.311 83.544 18.572 83.544 18.777 83.581 18.913 83.656 18.978 83.731 19.043 83.805 19.057 83.88 19.02 84.067 18.815 84.258 18.628 84.454 18.46 84.65 18.292 84.883 18.133 85.154 17.984 85.425 17.835 85.742 17.685 86.106 17.536 86.47 17.387 86.913 17.228 87.436 17.06 87.735 16.967 88.155 16.957 88.696 17.032 89.237 17.107 89.685 17.265 90.04 17.508 90.581 17.863 90.931 18.222 91.09 18.586 91.249 18.95 91.281 19.403 91.188 19.944 91.169 20.093 91.155 20.261 91.146 20.448 91.137 20.635 91.132 20.896 91.132 21.232 91.132 21.568 91.137 21.997 91.146 22.52 91.155 23.043 91.169 23.715 91.188 24.536 91.207 25.189 91.165 25.833 91.062 26.468 90.959 27.103 90.815 27.784 90.628 28.512 90.404 29.408 90.189 30.029 89.984 30.374 89.779 30.719 89.573 30.892 89.368 30.892 89.181 30.892 89.027 30.813 88.906 30.654 88.785 30.495 88.705 30.304 88.668 30.08 88.631 29.875 88.533 29.674 88.374 29.478 88.215 29.282 88.043 29.147 87.856 29.072 87.613 29.072 87.324 29.081 86.988 29.1 86.652 29.119 86.302 29.151 85.938 29.198 85.574 29.245 85.219 29.301 84.874 29.366 84.529 29.431 84.216 29.52 83.936 29.632 83.563 29.781 83.241 29.791 82.97 29.66 82.699 29.529 82.475 29.301 82.298 28.974 82.121 28.647 81.985 28.232 81.892 27.728 81.799 27.224 81.752 26.673 81.752 26.076 81.752 25.833 81.761 25.516 81.78 25.124 81.799 24.732 81.822 24.307 81.85 23.85 81.878 23.393 81.911 22.907 81.948 22.394 81.985 21.881 82.023 21.372 82.06 20.868 81.332 22.119 80.483 23.253 79.512 24.27 78.541 25.287 77.552 26.151 76.544 26.86 76.208 27.121 75.905 27.299 75.634 27.392 75.363 27.485 75.041 27.541 74.668 27.56 74.388 27.579 74.248 27.504 74.248 27.336 74.248 27.168 74.388 26.991 74.668 26.804 75.153 26.468 75.676 25.987 76.236 25.362 76.796 24.737 77.365 24.032 77.944 23.248 78.523 22.464 79.101 21.624 79.68 20.728 80.259 19.832 80.809 18.936 81.332 18.04 80.753 18.245 80.17 18.46 79.582 18.684 78.994 18.908 78.523 19.132 78.168 19.356 77.683 19.655 77.295 19.869 77.006 20 76.717 20.131 76.488 20.201 76.32 20.21 76.152 20.219 76.035 20.177 75.97 20.084 75.905 19.991 75.863 19.869 75.844 19.72 75.769 19.141 75.737 18.759 75.746 18.572 75.755 18.385 75.825 18.208 75.956 18.04 76.124 17.835 76.287 17.667 76.446 17.536 76.605 17.405 76.787 17.312 76.992 17.256 77.253 17.181 77.575 17.079 77.958 16.948 78.341 16.817 78.742 16.673 79.162 16.514 79.582 16.355 79.997 16.183 80.408 15.996 80.819 15.809 81.192 15.613 81.528 15.408 81.547 15.371 81.556 15.291 81.556 15.17 81.556 15.049 81.547 14.969 81.528 14.932 80.576 14.559 79.997 14.218 79.792 13.91 79.587 13.602 79.605 13.401 79.848 13.308 80.128 13.196 80.459 13.07 80.842 12.93 81.225 12.79 81.626 12.641 82.046 12.482 82.466 12.323 82.877 12.165 83.278 12.006 83.679 11.847 84.039 11.693 84.356 11.544 84.375 11.469 84.379 11.353 84.37 11.194 84.361 11.035 84.337 10.909 84.3 10.816 84.207 10.816 84.113 10.821 84.02 10.83 83.927 10.839 83.815 10.863 83.684 10.9 83.553 10.937 83.395 10.984 83.208 11.04 83.021 11.096 82.779 11.171 82.48 11.264 82.107 11.376 81.71 11.427 81.29 11.418 80.87 11.409 80.501 11.367 80.184 11.292 79.867 11.217 79.638 11.133 79.498 11.04 79.358 10.947 79.372 10.853 79.54 10.76 80.996 10.237 82.186 9.771 83.11 9.36 84.034 8.949 84.771 8.581 85.322 8.254 85.873 7.927 86.269 7.633 86.512 7.372 86.755 7.111 86.932 6.859 87.044 6.616 87.175 6.336 87.389 6.243 87.688 6.336 87.987 6.429 88.36 6.635 88.808 6.952 89.163 7.213 89.447 7.493 89.662 7.792 89.877 8.091 90.012 8.361 90.068 8.604 90.124 8.847 90.096 9.047 89.984 9.206 89.872 9.365 89.676 9.444 89.396 9.444 89.191 9.444 88.999 9.458 88.822 9.486 88.645 9.514 88.444 9.565 88.22 9.64 87.996 9.715 87.739 9.817 87.45 9.948 87.161 10.079 86.82 10.237 86.428 10.424 86.447 10.461 86.456 10.541 86.456 10.662 86.456 10.783 86.465 10.872 86.484 10.928 86.969 11.003 87.441 11.152 87.898 11.376 88.355 11.6 88.649 11.852 88.78 12.132 88.929 12.468 88.911 12.767 88.724 13.028 88.537 13.289 88.117 13.467 87.464 13.56 87.147 13.597 86.843 13.644 86.554 13.7 86.265 13.756 86.027 13.859 85.84 14.008 85.765 14.176 85.695 14.349 85.63 14.526 85.565 14.703 85.485 14.885 85.392 15.072 87.315 14.773 88.873 14.568 90.068 14.456 91.263 14.344 92.112 14.288 92.616 14.288 92.989 14.288 93.302 14.33 93.554 14.414 93.806 14.498 94.016 14.605 94.184 14.736 Z M88.696 19.608 C88.621 19.048 88.425 18.815 88.108 18.908 87.884 18.964 87.585 19.062 87.212 19.202 86.839 19.342 86.465 19.515 86.092 19.72 85.775 19.888 85.42 19.981 85.028 20 84.636 20.019 84.3 19.991 84.02 19.916 83.945 20.065 83.875 20.303 83.81 20.63 83.745 20.957 83.693 21.204 83.656 21.372 83.824 21.353 84.025 21.321 84.258 21.274 84.491 21.227 84.725 21.185 84.958 21.148 85.191 21.111 85.411 21.064 85.616 21.008 85.821 20.952 85.98 20.896 86.092 20.84 86.409 20.672 86.699 20.621 86.96 20.686 87.221 20.751 87.445 20.877 87.632 21.064 87.763 21.195 87.87 21.339 87.954 21.498 88.038 21.657 88.089 21.801 88.108 21.932 88.127 22.063 88.113 22.175 88.066 22.268 88.019 22.361 87.931 22.408 87.8 22.408 87.632 22.408 87.422 22.45 87.17 22.534 86.918 22.618 86.647 22.735 86.358 22.884 86.069 23.033 85.775 23.211 85.476 23.416 85.177 23.621 84.916 23.864 84.692 24.144 84.953 24.051 85.303 23.967 85.742 23.892 86.181 23.817 86.559 23.752 86.876 23.696 87.025 23.659 87.17 23.729 87.31 23.906 87.45 24.083 87.557 24.284 87.632 24.508 87.707 24.713 87.73 24.914 87.702 25.11 87.674 25.306 87.576 25.423 87.408 25.46 87.277 25.497 87.142 25.567 87.002 25.67 86.862 25.773 86.717 25.889 86.568 26.02 86.363 26.207 85.672 26.356 84.496 26.468 83.955 26.561 83.535 26.86 83.236 27.364 83.329 27.681 83.516 27.831 83.796 27.812 84.375 27.737 84.972 27.677 85.588 27.63 86.204 27.583 86.829 27.523 87.464 27.448 87.408 27.243 87.413 27.075 87.478 26.944 87.543 26.813 87.613 26.785 87.688 26.86 87.968 27.103 88.192 27.229 88.36 27.238 88.528 27.247 88.621 27.14 88.64 26.916 88.696 26.356 88.738 25.759 88.766 25.124 88.794 24.489 88.808 23.85 88.808 23.206 88.808 22.562 88.799 21.932 88.78 21.316 88.761 20.7 88.733 20.131 88.696 19.608 Z M84.748 23.332 C84.823 23.239 84.855 23.159 84.846 23.094 84.837 23.029 84.785 23.005 84.692 23.024 84.487 23.061 84.281 23.094 84.076 23.122 83.871 23.15 83.619 23.201 83.32 23.276 83.301 23.481 83.278 23.719 83.25 23.99 83.222 24.261 83.199 24.471 83.18 24.62 83.535 24.433 83.857 24.219 84.146 23.976 84.435 23.733 84.636 23.519 84.748 23.332 Z M83.852 26.104 C83.535 26.011 83.292 26.011 83.124 26.104 83.124 26.235 83.119 26.351 83.11 26.454 83.101 26.557 83.105 26.636 83.124 26.692 83.199 26.729 83.283 26.739 83.376 26.72 83.469 26.701 83.609 26.617 83.796 26.468 83.889 26.412 83.936 26.342 83.936 26.258 83.936 26.174 83.908 26.123 83.852 26.104 Z M67.668 22.324 C67.276 22.697 66.94 23.169 66.66 23.738 66.38 24.307 66.109 25.031 65.848 25.908 66.408 26.636 66.66 27.131 66.604 27.392 66.548 27.653 66.137 27.728 65.372 27.616 64.775 27.523 64.177 27.471 63.58 27.462 62.983 27.453 62.488 27.495 62.096 27.588 61.573 27.719 61.093 27.817 60.654 27.882 60.215 27.947 59.809 28.008 59.436 28.064 59.455 28.885 59.413 29.343 59.31 29.436 59.207 29.529 58.96 29.221 58.568 28.512 58.232 27.933 57.98 27.331 57.812 26.706 57.644 26.081 57.56 25.525 57.56 25.04 57.56 24.237 57.499 23.635 57.378 23.234 57.257 22.833 57.075 22.483 56.832 22.184 56.496 21.829 56.342 21.535 56.37 21.302 56.398 21.069 56.533 20.989 56.776 21.064 57.037 21.157 57.266 21.251 57.462 21.344 57.658 21.437 57.868 21.559 58.092 21.708 58.372 21.391 58.661 21.139 58.96 20.952 59.259 20.765 59.725 20.569 60.36 20.364 60.248 20.327 60.099 20.285 59.912 20.238 59.725 20.191 59.534 20.149 59.338 20.112 59.142 20.075 58.946 20.042 58.75 20.014 58.554 19.986 58.391 19.972 58.26 19.972 57.905 19.991 57.677 19.981 57.574 19.944 57.471 19.907 57.532 19.851 57.756 19.776 58.615 19.533 59.212 19.295 59.548 19.062 59.884 18.829 60.052 18.497 60.052 18.068 60.052 17.508 60.052 16.943 60.052 16.374 60.052 15.805 60.061 15.371 60.08 15.072 59.856 14.699 59.865 14.447 60.108 14.316 60.164 13.961 60.206 13.644 60.234 13.364 60.262 13.084 60.285 12.809 60.304 12.538 60.323 12.267 60.332 11.992 60.332 11.712 60.332 11.432 60.332 11.115 60.332 10.76 60.332 10.443 60.318 10.172 60.29 9.948 60.262 9.724 60.206 9.528 60.122 9.36 60.038 9.192 59.921 9.029 59.772 8.87 59.623 8.711 59.427 8.539 59.184 8.352 58.867 8.091 58.741 7.885 58.806 7.736 58.871 7.587 59.044 7.531 59.324 7.568 62.049 7.904 63.197 8.865 62.768 10.452 62.656 10.788 62.572 11.217 62.516 11.74 62.46 12.263 62.404 12.888 62.348 13.616 62.572 13.504 62.81 13.383 63.062 13.252 63.314 13.121 63.552 13.009 63.776 12.916 63.552 12.655 63.379 12.449 63.258 12.3 63.137 12.151 63.057 12.043 63.02 11.978 62.983 11.913 62.978 11.875 63.006 11.866 63.034 11.857 63.076 11.871 63.132 11.908 63.655 12.244 64.075 12.431 64.392 12.468 64.709 12.505 65.055 12.487 65.428 12.412 65.671 12.356 65.923 12.379 66.184 12.482 66.445 12.585 66.641 12.739 66.772 12.944 66.903 13.149 66.926 13.383 66.842 13.644 66.758 13.905 66.511 14.157 66.1 14.4 65.727 14.624 65.381 14.815 65.064 14.974 64.747 15.133 64.434 15.273 64.126 15.394 63.818 15.515 63.51 15.618 63.202 15.702 62.894 15.786 62.553 15.865 62.18 15.94 62.143 16.407 62.101 16.813 62.054 17.158 62.007 17.503 61.947 17.825 61.872 18.124 61.797 18.423 61.704 18.721 61.592 19.02 61.48 19.319 61.331 19.645 61.144 20 61.984 19.664 62.698 19.417 63.286 19.258 63.874 19.099 64.485 19.02 65.12 19.02 65.587 19.02 66.035 19.137 66.464 19.37 66.893 19.603 67.248 19.888 67.528 20.224 67.808 20.56 67.976 20.919 68.032 21.302 68.088 21.685 67.967 22.025 67.668 22.324 Z M58.624 13.448 C58.064 14.232 57.602 14.867 57.238 15.352 56.874 15.837 56.566 16.22 56.314 16.5 56.062 16.78 55.843 16.981 55.656 17.102 55.469 17.223 55.283 17.312 55.096 17.368 54.891 17.517 54.709 17.639 54.55 17.732 54.391 17.825 54.172 17.937 53.892 18.068 53.929 18.161 53.929 18.292 53.892 18.46 54.433 18.236 54.965 18.227 55.488 18.432 55.675 18.488 55.838 18.567 55.978 18.67 56.118 18.773 56.207 18.889 56.244 19.02 56.281 19.151 56.258 19.277 56.174 19.398 56.09 19.519 55.927 19.617 55.684 19.692 55.236 19.841 54.839 20.056 54.494 20.336 54.149 20.616 53.827 20.933 53.528 21.288 53.92 21.213 54.275 21.195 54.592 21.232 54.909 21.269 55.283 21.391 55.712 21.596 55.955 21.708 56.123 21.834 56.216 21.974 56.309 22.114 56.319 22.254 56.244 22.394 56.169 22.534 55.997 22.665 55.726 22.786 55.455 22.907 55.077 23.015 54.592 23.108 53.901 23.239 53.215 23.435 52.534 23.696 51.853 23.957 51.223 24.247 50.644 24.564 50.476 24.676 50.322 24.765 50.182 24.83 50.042 24.895 49.902 24.951 49.762 24.998 49.622 25.045 49.468 25.091 49.3 25.138 49.132 25.185 48.927 25.236 48.684 25.292 47.732 25.497 47.051 25.703 46.64 25.908 46.229 26.113 46.108 26.309 46.276 26.496 46.5 26.72 46.701 26.855 46.878 26.902 47.055 26.949 47.284 26.879 47.564 26.692 48.031 26.337 48.418 26.062 48.726 25.866 49.034 25.67 49.314 25.53 49.566 25.446 49.818 25.362 50.079 25.32 50.35 25.32 50.621 25.32 50.971 25.348 51.4 25.404 51.717 25.441 51.941 25.451 52.072 25.432 52.203 25.413 52.352 25.357 52.52 25.264 52.819 25.059 53.239 24.867 53.78 24.69 54.321 24.513 54.853 24.377 55.376 24.284 55.357 24.135 55.343 23.999 55.334 23.878 55.325 23.757 55.32 23.612 55.32 23.444 55.32 23.295 55.348 23.225 55.404 23.234 55.46 23.243 55.507 23.351 55.544 23.556 55.6 23.855 55.693 24.121 55.824 24.354 55.955 24.587 56.179 24.881 56.496 25.236 56.907 25.684 57.075 26.011 57 26.216 56.925 26.421 56.645 26.356 56.16 26.02 55.861 25.833 55.614 25.684 55.418 25.572 55.222 25.46 55.049 25.395 54.9 25.376 54.751 25.357 54.597 25.39 54.438 25.474 54.279 25.558 54.097 25.693 53.892 25.88 53.183 26.496 52.604 26.841 52.156 26.916 51.708 26.991 51.195 26.813 50.616 26.384 50.411 26.235 50.196 26.174 49.972 26.202 49.748 26.23 49.449 26.459 49.076 26.888 48.703 27.28 48.39 27.597 48.138 27.84 47.886 28.083 47.657 28.255 47.452 28.358 47.247 28.461 47.06 28.503 46.892 28.484 46.724 28.465 46.547 28.4 46.36 28.288 46.043 28.083 45.8 27.891 45.632 27.714 45.464 27.537 45.38 27.317 45.38 27.056 45.38 26.832 45.417 26.631 45.492 26.454 45.567 26.277 45.702 26.104 45.898 25.936 46.094 25.768 46.369 25.591 46.724 25.404 47.079 25.217 47.545 25.012 48.124 24.788 47.807 24.359 47.667 24.032 47.704 23.808 47.741 23.584 47.881 23.453 48.124 23.416 48.46 23.36 48.871 23.197 49.356 22.926 49.841 22.655 50.401 22.231 51.036 21.652 50.663 21.745 50.308 21.755 49.972 21.68 49.636 21.605 49.337 21.493 49.076 21.344 48.759 21.176 48.549 20.989 48.446 20.784 48.343 20.579 48.432 20.457 48.712 20.42 49.067 20.364 49.477 20.252 49.944 20.084 50.411 19.916 50.868 19.701 51.316 19.44 L51.316 18.712 C50.999 18.731 50.691 18.707 50.392 18.642 50.093 18.577 49.748 18.488 49.356 18.376 49.207 19.011 49.067 19.361 48.936 19.426 48.805 19.491 48.665 19.393 48.516 19.132 48.217 18.591 48.031 18.11 47.956 17.69 47.881 17.27 47.863 16.705 47.9 15.996 47.9 15.567 47.816 15.058 47.648 14.47 47.48 13.882 47.265 13.364 47.004 12.916 46.929 12.785 46.887 12.678 46.878 12.594 46.869 12.51 46.911 12.482 47.004 12.51 47.097 12.538 47.256 12.622 47.48 12.762 47.704 12.902 48.003 13.131 48.376 13.448 48.488 12.981 48.6 12.603 48.712 12.314 48.824 12.025 48.945 11.796 49.076 11.628 49.207 11.46 49.361 11.334 49.538 11.25 49.715 11.166 49.935 11.077 50.196 10.984 50.663 10.816 51.204 10.606 51.82 10.354 52.436 10.102 53.099 9.78 53.808 9.388 54.088 9.239 54.415 9.164 54.788 9.164 55.161 9.164 55.497 9.267 55.796 9.472 56.02 9.603 56.235 9.719 56.44 9.822 56.645 9.925 56.888 10.023 57.168 10.116 57.523 10.228 57.835 10.41 58.106 10.662 58.377 10.914 58.582 11.199 58.722 11.516 58.862 11.833 58.927 12.165 58.918 12.51 58.909 12.855 58.811 13.168 58.624 13.448 Z M56.104 12.328 C56.253 11.88 56.267 11.493 56.146 11.166 56.025 10.839 55.815 10.601 55.516 10.452 55.423 10.415 55.339 10.401 55.264 10.41 55.189 10.419 55.087 10.461 54.956 10.536 54.825 10.611 54.662 10.718 54.466 10.858 54.27 10.998 54.004 11.18 53.668 11.404 53.855 11.721 53.976 11.992 54.032 12.216 54.088 12.44 54.135 12.711 54.172 13.028 54.937 13.177 55.311 13.401 55.292 13.7 55.273 13.999 54.797 14.26 53.864 14.484 53.845 14.932 53.771 15.445 53.64 16.024 53.864 16.005 54.074 15.987 54.27 15.968 54.466 15.949 54.704 15.921 54.984 15.884 55.189 15.175 55.376 14.554 55.544 14.022 55.712 13.49 55.899 12.925 56.104 12.328 Z M52.016 13.532 C51.979 13.196 51.913 12.944 51.82 12.776 51.727 12.608 51.568 12.431 51.344 12.244 51.101 12.337 50.84 12.361 50.56 12.314 50.28 12.267 50.009 12.179 49.748 12.048 49.543 11.955 49.37 11.959 49.23 12.062 49.09 12.165 48.983 12.337 48.908 12.58 48.815 12.86 48.763 13.187 48.754 13.56 48.745 13.933 48.759 14.279 48.796 14.596 49.449 14.503 50.065 14.358 50.644 14.162 51.223 13.966 51.68 13.756 52.016 13.532 Z M51.876 15.352 C51.615 15.52 51.269 15.627 50.84 15.674 50.411 15.721 49.795 15.604 48.992 15.324 49.16 15.641 49.272 15.949 49.328 16.248 49.384 16.547 49.421 16.948 49.44 17.452 49.795 17.359 50.121 17.242 50.42 17.102 50.719 16.962 51.083 16.752 51.512 16.472 51.568 16.304 51.624 16.127 51.68 15.94 51.736 15.753 51.801 15.557 51.876 15.352 Z M64.336 21.456 C64.429 21.232 64.429 21.064 64.336 20.952 64.243 20.84 64.065 20.84 63.804 20.952 63.057 21.213 62.376 21.428 61.76 21.596 61.144 21.764 60.612 21.857 60.164 21.876 59.809 21.895 59.515 21.974 59.282 22.114 59.049 22.254 58.932 22.464 58.932 22.744 58.839 23.005 58.815 23.36 58.862 23.808 58.909 24.256 59.063 24.928 59.324 25.824 59.847 25.805 60.351 25.749 60.836 25.656 61.321 25.563 61.755 25.451 62.138 25.32 62.521 25.189 62.838 25.04 63.09 24.872 63.342 24.704 63.496 24.536 63.552 24.368 63.683 23.733 63.804 23.187 63.916 22.73 64.028 22.273 64.168 21.848 64.336 21.456 Z M41.796 27.7 C41.852 28.167 41.857 28.498 41.81 28.694 41.763 28.89 41.637 29.025 41.432 29.1 41.059 29.249 40.713 29.385 40.396 29.506 40.079 29.627 39.752 29.73 39.416 29.814 39.08 29.898 38.725 29.954 38.352 29.982 37.979 30.01 37.559 30.005 37.092 29.968 35.935 29.893 35.02 29.711 34.348 29.422 33.676 29.133 33.181 28.773 32.864 28.344 32.547 27.915 32.393 27.429 32.402 26.888 32.411 26.347 32.528 25.787 32.752 25.208 32.939 24.723 33.037 24.349 33.046 24.088 33.055 23.827 33.023 23.659 32.948 23.584 32.444 24.312 31.996 24.937 31.604 25.46 31.212 25.983 30.848 26.435 30.512 26.818 30.176 27.201 29.873 27.513 29.602 27.756 29.331 27.999 29.075 28.204 28.832 28.372 28.552 28.577 28.361 28.61 28.258 28.47 28.155 28.33 28.104 28.157 28.104 27.952 28.104 27.747 28.174 27.509 28.314 27.238 28.454 26.967 28.571 26.776 28.664 26.664 29.149 26.197 29.63 25.647 30.106 25.012 30.582 24.377 31.147 23.584 31.8 22.632 31.893 22.464 31.935 22.347 31.926 22.282 31.917 22.217 31.809 22.249 31.604 22.38 31.324 22.492 30.997 22.641 30.624 22.828 30.251 23.015 29.877 23.229 29.504 23.472 29.336 23.621 29.163 23.673 28.986 23.626 28.809 23.579 28.58 23.351 28.3 22.94 27.833 23.425 27.572 23.738 27.516 23.878 27.46 24.018 27.488 24.079 27.6 24.06 27.955 24.023 28.235 24.046 28.44 24.13 28.645 24.214 28.879 24.387 29.14 24.648 29.252 24.76 29.266 24.881 29.182 25.012 29.098 25.143 28.981 25.236 28.832 25.292 28.477 25.348 28.085 25.423 27.656 25.516 27.227 25.609 26.802 25.717 26.382 25.838 25.962 25.959 25.57 26.085 25.206 26.216 24.842 26.347 24.548 26.468 24.324 26.58 23.951 26.785 23.661 26.874 23.456 26.846 23.251 26.818 23.017 26.673 22.756 26.412 22.793 27.177 22.807 27.84 22.798 28.4 22.789 28.96 22.756 29.557 22.7 30.192 22.663 30.491 22.597 30.673 22.504 30.738 22.411 30.803 22.233 30.603 21.972 30.136 21.823 29.837 21.697 29.52 21.594 29.184 21.491 28.848 21.426 28.4 21.398 27.84 21.37 27.28 21.384 26.557 21.44 25.67 21.496 24.783 21.599 23.621 21.748 22.184 21.823 21.456 21.869 20.952 21.888 20.672 21.907 20.392 21.897 20.205 21.86 20.112 21.263 21.064 20.679 21.885 20.11 22.576 19.541 23.267 19.069 23.705 18.696 23.892 18.304 24.135 18.019 24.214 17.842 24.13 17.665 24.046 17.585 23.92 17.604 23.752 17.679 23.08 17.786 22.604 17.926 22.324 18.066 22.044 18.183 21.951 18.276 22.044 18.351 22.1 18.491 22.058 18.696 21.918 18.901 21.778 19.186 21.475 19.55 21.008 19.914 20.541 20.367 19.874 20.908 19.006 21.449 18.138 22.084 17.004 22.812 15.604 22.345 15.249 22.037 15.081 21.888 15.1 21.739 15.119 21.617 15.259 21.524 15.52 21.095 16.435 20.67 17.107 20.25 17.536 19.83 17.965 19.443 18.124 19.088 18.012 18.64 17.807 18.318 17.522 18.122 17.158 17.926 16.794 17.912 16.407 18.08 15.996 18.173 15.809 18.262 15.711 18.346 15.702 18.43 15.693 18.491 15.763 18.528 15.912 18.584 16.117 18.659 16.267 18.752 16.36 18.845 16.453 18.99 16.467 19.186 16.402 19.382 16.337 19.643 16.183 19.97 15.94 20.297 15.697 20.731 15.352 21.272 14.904 21.328 14.867 21.393 14.834 21.468 14.806 21.543 14.778 21.65 14.755 21.79 14.736 21.93 14.717 22.117 14.708 22.35 14.708 22.583 14.708 22.887 14.717 23.26 14.736 23.465 14.4 23.568 14.162 23.568 14.022 23.568 13.882 23.493 13.756 23.344 13.644 23.213 13.961 23.064 14.083 22.896 14.008 22.728 13.933 22.467 13.523 22.112 12.776 21.72 13.112 21.398 13.373 21.146 13.56 20.894 13.747 20.689 13.873 20.53 13.938 20.371 14.003 20.245 14.031 20.152 14.022 20.059 14.013 19.975 13.989 19.9 13.952 19.377 13.672 19.051 13.196 18.92 12.524 18.864 12.225 18.92 12.011 19.088 11.88 19.256 11.749 19.433 11.749 19.62 11.88 19.695 11.973 19.783 12.029 19.886 12.048 19.989 12.067 20.124 12.057 20.292 12.02 20.46 11.983 20.675 11.913 20.936 11.81 21.197 11.707 21.543 11.563 21.972 11.376 21.935 11.04 21.897 10.741 21.86 10.48 21.823 10.219 21.767 9.985 21.692 9.78 21.617 9.575 21.533 9.369 21.44 9.164 21.347 8.959 21.244 8.744 21.132 8.52 21.001 8.333 20.973 8.189 21.048 8.086 21.123 7.983 21.281 7.969 21.524 8.044 22.569 8.268 23.246 8.604 23.554 9.052 23.862 9.5 23.923 10.079 23.736 10.788 24.165 10.676 24.52 10.578 24.8 10.494 25.08 10.41 25.453 10.284 25.92 10.116 26.144 9.257 26.233 8.595 26.186 8.128 26.139 7.661 25.985 7.269 25.724 6.952 25.575 6.765 25.533 6.621 25.598 6.518 25.663 6.415 25.883 6.401 26.256 6.476 27.096 6.644 27.726 6.924 28.146 7.316 28.566 7.708 28.608 8.305 28.272 9.108 28.813 8.996 29.243 8.977 29.56 9.052 29.877 9.127 30.185 9.295 30.484 9.556 30.633 9.668 30.675 9.775 30.61 9.878 30.545 9.981 30.325 10.107 29.952 10.256 29.485 10.405 29.079 10.536 28.734 10.648 28.389 10.76 28.001 10.853 27.572 10.928 27.292 11.451 26.905 11.927 26.41 12.356 25.915 12.785 25.463 13.131 25.052 13.392 25.22 13.485 25.351 13.644 25.444 13.868 26.097 13.607 26.457 13.425 26.522 13.322 26.587 13.219 26.461 13.056 26.144 12.832 26.816 12.813 27.353 12.813 27.754 12.832 28.155 12.851 28.477 12.888 28.72 12.944 28.963 13 29.159 13.079 29.308 13.182 29.457 13.285 29.607 13.411 29.756 13.56 29.961 13.821 29.989 14.045 29.84 14.232 29.691 14.419 29.355 14.465 28.832 14.372 28.44 14.297 28.109 14.241 27.838 14.204 27.567 14.167 27.32 14.167 27.096 14.204 26.872 14.241 26.653 14.311 26.438 14.414 26.223 14.517 25.976 14.671 25.696 14.876 26.013 14.988 26.27 15.091 26.466 15.184 26.662 15.277 26.816 15.366 26.928 15.45 27.04 15.534 27.119 15.623 27.166 15.716 27.213 15.809 27.245 15.921 27.264 16.052 27.619 15.865 27.945 15.805 28.244 15.87 28.543 15.935 28.823 16.173 29.084 16.584 29.14 16.677 29.168 16.766 29.168 16.85 29.168 16.934 29.121 17.032 29.028 17.144 28.935 17.256 28.767 17.396 28.524 17.564 28.281 17.732 27.955 17.937 27.544 18.18 27.395 18.273 27.32 18.376 27.32 18.488 27.32 18.6 27.404 18.675 27.572 18.712 28.281 18.899 28.701 19.155 28.832 19.482 28.963 19.809 28.72 20.112 28.104 20.392 27.787 20.541 27.591 20.714 27.516 20.91 27.441 21.106 27.479 21.223 27.628 21.26 27.983 21.297 28.253 21.381 28.44 21.512 28.627 21.643 28.785 21.783 28.916 21.932 28.972 22.007 29.07 22.03 29.21 22.002 29.35 21.974 29.625 21.82 30.036 21.54 29.924 20.513 29.873 19.286 29.882 17.858 29.891 16.43 29.952 14.671 30.064 12.58 30.101 12.095 30.097 11.726 30.05 11.474 30.003 11.222 29.952 11.049 29.896 10.956 29.747 10.657 29.723 10.517 29.826 10.536 29.929 10.555 30.269 10.779 30.848 11.208 31.053 10.741 31.319 10.312 31.646 9.92 31.973 9.528 32.323 9.192 32.696 8.912 33.069 8.632 33.443 8.431 33.816 8.31 34.189 8.189 34.535 8.156 34.852 8.212 35.3 8.287 35.701 8.413 36.056 8.59 36.411 8.767 36.705 8.973 36.938 9.206 37.171 9.439 37.339 9.687 37.442 9.948 37.545 10.209 37.568 10.471 37.512 10.732 37.437 11.012 37.377 11.283 37.33 11.544 37.283 11.805 37.251 12.197 37.232 12.72 37.213 13.243 37.209 13.971 37.218 14.904 37.227 15.837 37.241 17.116 37.26 18.74 37.26 19.113 37.251 19.477 37.232 19.832 37.213 20.187 37.185 20.532 37.148 20.868 37.073 21.465 36.957 22.086 36.798 22.73 36.639 23.374 36.392 23.939 36.056 24.424 35.981 24.536 35.911 24.615 35.846 24.662 35.781 24.709 35.711 24.695 35.636 24.62 35.561 24.545 35.473 24.405 35.37 24.2 35.267 23.995 35.141 23.705 34.992 23.332 34.731 23.855 34.507 24.424 34.32 25.04 34.133 25.656 34.04 26.188 34.04 26.636 34.04 27.159 34.348 27.532 34.964 27.756 35.58 27.98 36.317 28.092 37.176 28.092 37.792 28.092 38.296 28.022 38.688 27.882 39.08 27.742 39.397 27.457 39.64 27.028 39.883 26.599 40.051 26.001 40.144 25.236 40.237 24.471 40.284 23.453 40.284 22.184 40.284 21.923 40.312 21.773 40.368 21.736 40.424 21.699 40.48 21.773 40.536 21.96 40.629 22.315 40.737 22.744 40.858 23.248 40.979 23.752 41.101 24.275 41.222 24.816 41.343 25.357 41.455 25.885 41.558 26.398 41.661 26.911 41.74 27.345 41.796 27.7 Z M25.752 10.872 C25.323 10.909 24.935 11.003 24.59 11.152 24.245 11.301 23.885 11.497 23.512 11.74 L23.428 13.056 C23.689 13.019 23.881 13.005 24.002 13.014 24.123 13.023 24.249 13.047 24.38 13.084 24.641 12.841 24.884 12.547 25.108 12.202 25.332 11.857 25.547 11.413 25.752 10.872 Z M31.8 14.848 C31.931 14.661 31.772 14.549 31.324 14.512 31.305 14.624 31.291 14.773 31.282 14.96 31.273 15.147 31.268 15.333 31.268 15.52 31.361 15.445 31.445 15.366 31.52 15.282 31.595 15.198 31.688 15.053 31.8 14.848 Z M35.524 20.756 C35.524 20.121 35.519 19.379 35.51 18.53 35.501 17.681 35.482 16.794 35.454 15.87 35.426 14.946 35.398 14.027 35.37 13.112 35.342 12.197 35.3 11.367 35.244 10.62 35.207 10.172 35.057 9.892 34.796 9.78 34.535 9.668 34.329 9.687 34.18 9.836 33.937 10.023 33.695 10.167 33.452 10.27 33.209 10.373 32.845 10.471 32.36 10.564 32.192 10.601 32.043 10.699 31.912 10.858 31.781 11.017 31.641 11.376 31.492 11.936 31.529 12.141 31.529 12.37 31.492 12.622 31.455 12.874 31.427 13.103 31.408 13.308 31.837 13.103 32.183 12.939 32.444 12.818 32.705 12.697 32.92 12.608 33.088 12.552 33.256 12.496 33.41 12.473 33.55 12.482 33.69 12.491 33.853 12.515 34.04 12.552 34.6 12.701 34.889 12.935 34.908 13.252 34.927 13.569 34.749 13.84 34.376 14.064 33.2 14.699 32.369 15.24 31.884 15.688 31.399 16.136 31.175 16.593 31.212 17.06 31.697 16.761 32.103 16.533 32.43 16.374 32.757 16.215 33.027 16.103 33.242 16.038 33.457 15.973 33.639 15.949 33.788 15.968 33.937 15.987 34.087 16.024 34.236 16.08 35.151 16.584 35.179 17.097 34.32 17.62 33.909 17.881 33.415 18.199 32.836 18.572 32.257 18.945 31.697 19.347 31.156 19.776 31.156 19.907 31.161 20.084 31.17 20.308 31.179 20.532 31.203 20.765 31.24 21.008 31.875 20.653 32.393 20.383 32.794 20.196 33.195 20.009 33.517 19.888 33.76 19.832 34.003 19.776 34.185 19.767 34.306 19.804 34.427 19.841 34.535 19.916 34.628 20.028 34.833 20.289 34.955 20.485 34.992 20.616 35.029 20.747 35.001 20.887 34.908 21.036 35.057 21.316 35.197 21.442 35.328 21.414 35.459 21.386 35.524 21.167 35.524 20.756 Z M25.64 16.696 C25.659 16.435 25.626 16.229 25.542 16.08 25.458 15.931 25.295 15.763 25.052 15.576 24.828 15.688 24.627 15.809 24.45 15.94 24.273 16.071 24.095 16.234 23.918 16.43 23.741 16.626 23.554 16.873 23.358 17.172 23.162 17.471 22.943 17.835 22.7 18.264 22.849 18.507 22.975 18.745 23.078 18.978 23.181 19.211 23.251 19.505 23.288 19.86 23.475 19.897 23.657 19.893 23.834 19.846 24.011 19.799 24.231 19.673 24.492 19.468 25.164 18.852 25.285 18.507 24.856 18.432 24.427 18.301 24.105 18.194 23.89 18.11 23.675 18.026 23.531 17.951 23.456 17.886 23.381 17.821 23.363 17.769 23.4 17.732 23.437 17.695 23.493 17.667 23.568 17.648 23.829 17.573 24.119 17.461 24.436 17.312 24.753 17.163 25.155 16.957 25.64 16.696 Z M31.8 18.432 C31.875 18.339 31.875 18.264 31.8 18.208 31.725 18.152 31.52 18.143 31.184 18.18 31.165 18.423 31.165 18.693 31.184 18.992 31.371 18.88 31.576 18.693 31.8 18.432 Z M34.908 22.548 C34.945 22.399 34.936 22.231 34.88 22.044 34.824 21.857 34.731 21.615 34.6 21.316 34.488 21.428 34.39 21.54 34.306 21.652 34.222 21.764 34.124 21.895 34.012 22.044 34.217 22.119 34.385 22.189 34.516 22.254 34.647 22.319 34.777 22.417 34.908 22.548 Z M25.668 20.924 C25.295 21.036 24.935 21.083 24.59 21.064 24.245 21.045 23.801 20.849 23.26 20.476 23.055 21.447 22.91 22.333 22.826 23.136 22.742 23.939 22.7 24.788 22.7 25.684 23.167 25.516 23.577 25.329 23.932 25.124 24.287 24.919 24.585 24.713 24.828 24.508 25.201 24.191 25.444 23.971 25.556 23.85 25.668 23.729 25.659 23.649 25.528 23.612 25.192 23.575 24.87 23.528 24.562 23.472 24.254 23.416 23.951 23.257 23.652 22.996 23.279 22.641 23.251 22.389 23.568 22.24 23.941 22.165 24.315 22.063 24.688 21.932 25.061 21.801 25.341 21.652 25.528 21.484 25.752 21.279 25.855 21.12 25.836 21.008 25.817 20.896 25.761 20.868 25.668 20.924 Z" fill="#ffffff" fill-opacity="1" stroke="none"/>
</svg>
