<?xml version="1.0" encoding="UTF-8"?>
<svg width="142px" height="35px" viewBox="0 0 142 35" xmlns="http://www.w3.org/2000/svg" xmlns:xlink="http://www.w3.org/1999/xlink" version="1.1">
 <!-- Generated by Pixelmator Pro 2.0.3 -->
 <path id="观点看法" d="M123.108 27.952 C122.977 28.344 122.772 28.559 122.492 28.596 122.212 28.633 122.007 28.577 121.876 28.428 121.503 28.055 121.209 27.709 120.994 27.392 120.779 27.075 120.569 26.617 120.364 26.02 119.3 26.244 118.222 26.557 117.13 26.958 116.038 27.359 115.025 27.803 114.092 28.288 113.849 28.4 113.639 28.47 113.462 28.498 113.285 28.526 113.103 28.493 112.916 28.4 112.729 28.307 112.538 28.148 112.342 27.924 112.146 27.7 111.917 27.392 111.656 27 111.357 26.571 111.278 26.099 111.418 25.586 111.558 25.073 111.871 24.639 112.356 24.284 113.047 23.743 113.793 23.117 114.596 22.408 115.399 21.699 116.145 21.017 116.836 20.364 117.041 20.103 117.004 20 116.724 20.056 115.865 20.205 115.231 20.448 114.82 20.784 114.428 21.083 114.097 21.218 113.826 21.19 113.555 21.162 113.289 20.859 113.028 20.28 112.767 19.739 112.627 19.314 112.608 19.006 112.589 18.698 112.711 18.441 112.972 18.236 113.233 18.012 113.378 17.858 113.406 17.774 113.434 17.69 113.355 17.629 113.168 17.592 112.683 17.517 112.211 17.527 111.754 17.62 111.297 17.713 110.867 17.937 110.466 18.292 110.065 18.647 109.687 19.155 109.332 19.818 108.977 20.481 108.66 21.344 108.38 22.408 108.156 23.155 107.974 24.088 107.834 25.208 107.694 26.328 107.559 27.691 107.428 29.296 107.391 29.613 107.237 29.809 106.966 29.884 106.695 29.959 106.289 29.865 105.748 29.604 105.449 29.455 105.127 29.184 104.782 28.792 104.437 28.4 104.11 27.943 103.802 27.42 103.494 26.897 103.237 26.351 103.032 25.782 102.827 25.213 102.715 24.685 102.696 24.2 102.677 23.696 102.687 23.103 102.724 22.422 102.761 21.741 102.813 21.055 102.878 20.364 102.943 19.673 103.018 19.015 103.102 18.39 103.186 17.765 103.265 17.247 103.34 16.836 103.433 16.407 103.536 16.024 103.648 15.688 103.76 15.352 103.9 15.039 104.068 14.75 104.236 14.461 104.451 14.167 104.712 13.868 104.973 13.569 105.291 13.252 105.664 12.916 105.851 12.748 105.963 12.566 106 12.37 106.037 12.174 105.981 11.992 105.832 11.824 105.571 11.507 105.347 11.194 105.16 10.886 104.973 10.578 104.749 10.247 104.488 9.892 104.395 9.78 104.367 9.677 104.404 9.584 104.441 9.491 104.516 9.421 104.628 9.374 104.74 9.327 104.866 9.304 105.006 9.304 105.146 9.304 105.263 9.332 105.356 9.388 105.748 9.612 106.177 9.817 106.644 10.004 107.111 10.191 107.587 10.349 108.072 10.48 108.725 10.648 109.225 10.886 109.57 11.194 109.915 11.502 110.181 11.852 110.368 12.244 110.517 12.543 110.489 12.804 110.284 13.028 110.079 13.252 109.808 13.345 109.472 13.308 109.192 13.289 108.949 13.308 108.744 13.364 108.539 13.42 108.277 13.569 107.96 13.812 107.213 14.353 106.709 14.652 106.448 14.708 106.187 14.764 106.065 14.699 106.084 14.512 106.084 14.419 105.967 14.409 105.734 14.484 105.501 14.559 105.291 14.699 105.104 14.904 104.395 15.725 104.395 16.901 105.104 18.432 105.477 19.16 105.673 19.673 105.692 19.972 105.711 20.271 105.608 20.495 105.384 20.644 105.253 20.756 105.123 21.041 104.992 21.498 104.861 21.955 104.754 22.464 104.67 23.024 104.586 23.584 104.53 24.149 104.502 24.718 104.474 25.287 104.507 25.749 104.6 26.104 104.805 26.589 105.076 26.664 105.412 26.328 105.673 26.067 105.86 25.796 105.972 25.516 106.177 24.713 106.378 23.995 106.574 23.36 106.77 22.725 106.971 22.137 107.176 21.596 107.381 21.055 107.596 20.546 107.82 20.07 108.044 19.594 108.296 19.113 108.576 18.628 108.763 18.311 109.005 17.984 109.304 17.648 109.603 17.312 109.915 16.999 110.242 16.71 110.569 16.421 110.9 16.169 111.236 15.954 111.572 15.739 111.871 15.585 112.132 15.492 112.673 15.324 113.154 15.151 113.574 14.974 113.994 14.797 114.437 14.587 114.904 14.344 115.109 13.896 115.305 13.42 115.492 12.916 115.679 12.412 115.842 11.917 115.982 11.432 116.122 10.947 116.239 10.503 116.332 10.102 116.425 9.701 116.491 9.379 116.528 9.136 116.547 8.968 116.505 8.842 116.402 8.758 116.299 8.674 115.977 8.576 115.436 8.464 115.119 8.389 115.025 8.259 115.156 8.072 115.679 7.643 116.267 7.428 116.92 7.428 117.331 7.428 117.723 7.507 118.096 7.666 118.469 7.825 118.777 8.03 119.02 8.282 119.263 8.534 119.431 8.805 119.524 9.094 119.617 9.383 119.608 9.668 119.496 9.948 119.347 10.303 119.225 10.648 119.132 10.984 119.039 11.32 118.964 11.647 118.908 11.964 119.225 12.169 119.711 12.281 120.364 12.3 120.681 12.319 120.999 12.37 121.316 12.454 121.633 12.538 122.025 12.692 122.492 12.916 122.772 13.065 122.926 13.182 122.954 13.266 122.982 13.35 122.893 13.467 122.688 13.616 122.371 13.877 122.095 14.041 121.862 14.106 121.629 14.171 121.316 14.223 120.924 14.26 120.364 14.279 119.725 14.409 119.006 14.652 118.287 14.895 117.657 15.231 117.116 15.66 116.855 16.127 116.649 16.556 116.5 16.948 116.351 17.34 116.211 17.751 116.08 18.18 116.64 18.105 117.107 18.054 117.48 18.026 117.853 17.998 118.175 17.993 118.446 18.012 118.717 18.031 118.959 18.082 119.174 18.166 119.389 18.25 119.636 18.357 119.916 18.488 120.569 18.917 120.938 19.244 121.022 19.468 121.106 19.692 120.952 20 120.56 20.392 119.701 21.307 118.791 22.156 117.83 22.94 116.869 23.724 115.725 24.517 114.4 25.32 114.195 25.469 114.092 25.581 114.092 25.656 114.092 25.731 114.195 25.749 114.4 25.712 114.96 25.619 115.464 25.53 115.912 25.446 116.36 25.362 116.78 25.273 117.172 25.18 117.564 25.087 117.937 24.989 118.292 24.886 118.647 24.783 119.02 24.667 119.412 24.536 119.225 24.107 119.099 23.775 119.034 23.542 118.969 23.309 118.941 23.141 118.95 23.038 118.959 22.935 119.015 22.884 119.118 22.884 119.221 22.884 119.347 22.903 119.496 22.94 119.832 23.015 120.168 23.131 120.504 23.29 120.84 23.449 121.162 23.64 121.47 23.864 121.778 24.088 122.067 24.326 122.338 24.578 122.609 24.83 122.837 25.077 123.024 25.32 123.155 25.507 123.253 25.679 123.318 25.838 123.383 25.997 123.421 26.169 123.43 26.356 123.439 26.543 123.416 26.762 123.36 27.014 123.304 27.266 123.22 27.579 123.108 27.952 Z M94.184 14.736 C94.445 14.941 94.637 15.156 94.758 15.38 94.879 15.604 94.907 15.791 94.842 15.94 94.777 16.089 94.613 16.192 94.352 16.248 94.091 16.304 93.708 16.267 93.204 16.136 92.812 16.024 92.308 15.959 91.692 15.94 91.076 15.921 90.381 15.949 89.606 16.024 88.831 16.099 88.005 16.215 87.128 16.374 86.251 16.533 85.345 16.733 84.412 16.976 84.281 17.256 84.146 17.527 84.006 17.788 83.866 18.049 83.712 18.311 83.544 18.572 83.544 18.777 83.581 18.913 83.656 18.978 83.731 19.043 83.805 19.057 83.88 19.02 84.067 18.815 84.258 18.628 84.454 18.46 84.65 18.292 84.883 18.133 85.154 17.984 85.425 17.835 85.742 17.685 86.106 17.536 86.47 17.387 86.913 17.228 87.436 17.06 87.735 16.967 88.155 16.957 88.696 17.032 89.237 17.107 89.685 17.265 90.04 17.508 90.581 17.863 90.931 18.222 91.09 18.586 91.249 18.95 91.281 19.403 91.188 19.944 91.169 20.093 91.155 20.261 91.146 20.448 91.137 20.635 91.132 20.896 91.132 21.232 91.132 21.568 91.137 21.997 91.146 22.52 91.155 23.043 91.169 23.715 91.188 24.536 91.207 25.189 91.165 25.833 91.062 26.468 90.959 27.103 90.815 27.784 90.628 28.512 90.404 29.408 90.189 30.029 89.984 30.374 89.779 30.719 89.573 30.892 89.368 30.892 89.181 30.892 89.027 30.813 88.906 30.654 88.785 30.495 88.705 30.304 88.668 30.08 88.631 29.875 88.533 29.674 88.374 29.478 88.215 29.282 88.043 29.147 87.856 29.072 87.613 29.072 87.324 29.081 86.988 29.1 86.652 29.119 86.302 29.151 85.938 29.198 85.574 29.245 85.219 29.301 84.874 29.366 84.529 29.431 84.216 29.52 83.936 29.632 83.563 29.781 83.241 29.791 82.97 29.66 82.699 29.529 82.475 29.301 82.298 28.974 82.121 28.647 81.985 28.232 81.892 27.728 81.799 27.224 81.752 26.673 81.752 26.076 81.752 25.833 81.761 25.516 81.78 25.124 81.799 24.732 81.822 24.307 81.85 23.85 81.878 23.393 81.911 22.907 81.948 22.394 81.985 21.881 82.023 21.372 82.06 20.868 81.332 22.119 80.483 23.253 79.512 24.27 78.541 25.287 77.552 26.151 76.544 26.86 76.208 27.121 75.905 27.299 75.634 27.392 75.363 27.485 75.041 27.541 74.668 27.56 74.388 27.579 74.248 27.504 74.248 27.336 74.248 27.168 74.388 26.991 74.668 26.804 75.153 26.468 75.676 25.987 76.236 25.362 76.796 24.737 77.365 24.032 77.944 23.248 78.523 22.464 79.101 21.624 79.68 20.728 80.259 19.832 80.809 18.936 81.332 18.04 80.753 18.245 80.17 18.46 79.582 18.684 78.994 18.908 78.523 19.132 78.168 19.356 77.683 19.655 77.295 19.869 77.006 20 76.717 20.131 76.488 20.201 76.32 20.21 76.152 20.219 76.035 20.177 75.97 20.084 75.905 19.991 75.863 19.869 75.844 19.72 75.769 19.141 75.737 18.759 75.746 18.572 75.755 18.385 75.825 18.208 75.956 18.04 76.124 17.835 76.287 17.667 76.446 17.536 76.605 17.405 76.787 17.312 76.992 17.256 77.253 17.181 77.575 17.079 77.958 16.948 78.341 16.817 78.742 16.673 79.162 16.514 79.582 16.355 79.997 16.183 80.408 15.996 80.819 15.809 81.192 15.613 81.528 15.408 81.547 15.371 81.556 15.291 81.556 15.17 81.556 15.049 81.547 14.969 81.528 14.932 80.576 14.559 79.997 14.218 79.792 13.91 79.587 13.602 79.605 13.401 79.848 13.308 80.128 13.196 80.459 13.07 80.842 12.93 81.225 12.79 81.626 12.641 82.046 12.482 82.466 12.323 82.877 12.165 83.278 12.006 83.679 11.847 84.039 11.693 84.356 11.544 84.375 11.469 84.379 11.353 84.37 11.194 84.361 11.035 84.337 10.909 84.3 10.816 84.207 10.816 84.113 10.821 84.02 10.83 83.927 10.839 83.815 10.863 83.684 10.9 83.553 10.937 83.395 10.984 83.208 11.04 83.021 11.096 82.779 11.171 82.48 11.264 82.107 11.376 81.71 11.427 81.29 11.418 80.87 11.409 80.501 11.367 80.184 11.292 79.867 11.217 79.638 11.133 79.498 11.04 79.358 10.947 79.372 10.853 79.54 10.76 80.996 10.237 82.186 9.771 83.11 9.36 84.034 8.949 84.771 8.581 85.322 8.254 85.873 7.927 86.269 7.633 86.512 7.372 86.755 7.111 86.932 6.859 87.044 6.616 87.175 6.336 87.389 6.243 87.688 6.336 87.987 6.429 88.36 6.635 88.808 6.952 89.163 7.213 89.447 7.493 89.662 7.792 89.877 8.091 90.012 8.361 90.068 8.604 90.124 8.847 90.096 9.047 89.984 9.206 89.872 9.365 89.676 9.444 89.396 9.444 89.191 9.444 88.999 9.458 88.822 9.486 88.645 9.514 88.444 9.565 88.22 9.64 87.996 9.715 87.739 9.817 87.45 9.948 87.161 10.079 86.82 10.237 86.428 10.424 86.447 10.461 86.456 10.541 86.456 10.662 86.456 10.783 86.465 10.872 86.484 10.928 86.969 11.003 87.441 11.152 87.898 11.376 88.355 11.6 88.649 11.852 88.78 12.132 88.929 12.468 88.911 12.767 88.724 13.028 88.537 13.289 88.117 13.467 87.464 13.56 87.147 13.597 86.843 13.644 86.554 13.7 86.265 13.756 86.027 13.859 85.84 14.008 85.765 14.176 85.695 14.349 85.63 14.526 85.565 14.703 85.485 14.885 85.392 15.072 87.315 14.773 88.873 14.568 90.068 14.456 91.263 14.344 92.112 14.288 92.616 14.288 92.989 14.288 93.302 14.33 93.554 14.414 93.806 14.498 94.016 14.605 94.184 14.736 Z M88.696 19.608 C88.621 19.048 88.425 18.815 88.108 18.908 87.884 18.964 87.585 19.062 87.212 19.202 86.839 19.342 86.465 19.515 86.092 19.72 85.775 19.888 85.42 19.981 85.028 20 84.636 20.019 84.3 19.991 84.02 19.916 83.945 20.065 83.875 20.303 83.81 20.63 83.745 20.957 83.693 21.204 83.656 21.372 83.824 21.353 84.025 21.321 84.258 21.274 84.491 21.227 84.725 21.185 84.958 21.148 85.191 21.111 85.411 21.064 85.616 21.008 85.821 20.952 85.98 20.896 86.092 20.84 86.409 20.672 86.699 20.621 86.96 20.686 87.221 20.751 87.445 20.877 87.632 21.064 87.763 21.195 87.87 21.339 87.954 21.498 88.038 21.657 88.089 21.801 88.108 21.932 88.127 22.063 88.113 22.175 88.066 22.268 88.019 22.361 87.931 22.408 87.8 22.408 87.632 22.408 87.422 22.45 87.17 22.534 86.918 22.618 86.647 22.735 86.358 22.884 86.069 23.033 85.775 23.211 85.476 23.416 85.177 23.621 84.916 23.864 84.692 24.144 84.953 24.051 85.303 23.967 85.742 23.892 86.181 23.817 86.559 23.752 86.876 23.696 87.025 23.659 87.17 23.729 87.31 23.906 87.45 24.083 87.557 24.284 87.632 24.508 87.707 24.713 87.73 24.914 87.702 25.11 87.674 25.306 87.576 25.423 87.408 25.46 87.277 25.497 87.142 25.567 87.002 25.67 86.862 25.773 86.717 25.889 86.568 26.02 86.363 26.207 85.672 26.356 84.496 26.468 83.955 26.561 83.535 26.86 83.236 27.364 83.329 27.681 83.516 27.831 83.796 27.812 84.375 27.737 84.972 27.677 85.588 27.63 86.204 27.583 86.829 27.523 87.464 27.448 87.408 27.243 87.413 27.075 87.478 26.944 87.543 26.813 87.613 26.785 87.688 26.86 87.968 27.103 88.192 27.229 88.36 27.238 88.528 27.247 88.621 27.14 88.64 26.916 88.696 26.356 88.738 25.759 88.766 25.124 88.794 24.489 88.808 23.85 88.808 23.206 88.808 22.562 88.799 21.932 88.78 21.316 88.761 20.7 88.733 20.131 88.696 19.608 Z M84.748 23.332 C84.823 23.239 84.855 23.159 84.846 23.094 84.837 23.029 84.785 23.005 84.692 23.024 84.487 23.061 84.281 23.094 84.076 23.122 83.871 23.15 83.619 23.201 83.32 23.276 83.301 23.481 83.278 23.719 83.25 23.99 83.222 24.261 83.199 24.471 83.18 24.62 83.535 24.433 83.857 24.219 84.146 23.976 84.435 23.733 84.636 23.519 84.748 23.332 Z M83.852 26.104 C83.535 26.011 83.292 26.011 83.124 26.104 83.124 26.235 83.119 26.351 83.11 26.454 83.101 26.557 83.105 26.636 83.124 26.692 83.199 26.729 83.283 26.739 83.376 26.72 83.469 26.701 83.609 26.617 83.796 26.468 83.889 26.412 83.936 26.342 83.936 26.258 83.936 26.174 83.908 26.123 83.852 26.104 Z M62.04 18.376 C61.648 18.861 61.335 19.267 61.102 19.594 60.869 19.921 60.701 20.201 60.598 20.434 60.495 20.667 60.444 20.873 60.444 21.05 60.444 21.227 60.491 21.409 60.584 21.596 60.752 21.969 60.752 22.249 60.584 22.436 60.416 22.623 60.164 22.669 59.828 22.576 59.623 22.52 59.347 22.506 59.002 22.534 58.657 22.562 58.265 22.632 57.826 22.744 57.387 22.856 56.925 23.005 56.44 23.192 55.955 23.379 55.479 23.593 55.012 23.836 55.012 24.303 54.9 24.527 54.676 24.508 54.452 24.489 53.985 24.153 53.276 23.5 52.903 23.537 52.585 23.603 52.324 23.696 52.063 23.789 51.727 23.948 51.316 24.172 51.129 24.284 50.985 24.349 50.882 24.368 50.779 24.387 50.77 24.345 50.854 24.242 50.938 24.139 51.143 23.971 51.47 23.738 51.797 23.505 52.296 23.192 52.968 22.8 52.856 21.941 52.763 21.246 52.688 20.714 52.613 20.182 52.539 19.771 52.464 19.482 52.389 19.193 52.319 18.983 52.254 18.852 52.189 18.721 52.119 18.628 52.044 18.572 51.783 18.423 51.54 18.143 51.316 17.732 51.092 17.321 50.933 16.873 50.84 16.388 50.803 16.145 50.873 15.982 51.05 15.898 51.227 15.814 51.419 15.875 51.624 16.08 51.773 16.229 51.96 16.323 52.184 16.36 52.445 16.397 52.758 16.551 53.122 16.822 53.486 17.093 53.771 17.349 53.976 17.592 54.144 17.592 54.303 17.55 54.452 17.466 54.601 17.382 54.751 17.275 54.9 17.144 54.564 16.901 54.293 16.729 54.088 16.626 53.883 16.523 53.603 16.435 53.248 16.36 53.061 16.323 52.982 16.271 53.01 16.206 53.038 16.141 53.155 16.108 53.36 16.108 53.976 16.127 54.475 15.963 54.858 15.618 55.241 15.273 55.404 14.615 55.348 13.644 55.311 12.879 55.273 12.235 55.236 11.712 55.199 11.189 55.152 10.765 55.096 10.438 55.04 10.111 54.984 9.864 54.928 9.696 54.872 9.528 54.807 9.397 54.732 9.304 54.265 8.837 53.976 8.072 53.864 7.008 53.808 6.56 54.2 6.513 55.04 6.868 55.731 7.167 56.272 7.433 56.664 7.666 57.056 7.899 57.355 8.128 57.56 8.352 57.765 8.576 57.91 8.795 57.994 9.01 58.078 9.225 58.148 9.472 58.204 9.752 59.212 9.491 59.954 9.365 60.43 9.374 60.906 9.383 61.312 9.547 61.648 9.864 62.096 10.293 62.353 10.634 62.418 10.886 62.483 11.138 62.301 11.404 61.872 11.684 61.405 11.983 60.995 12.23 60.64 12.426 60.285 12.622 59.963 12.781 59.674 12.902 59.385 13.023 59.114 13.117 58.862 13.182 58.61 13.247 58.353 13.299 58.092 13.336 58.055 13.709 57.975 14.153 57.854 14.666 57.733 15.179 57.569 15.567 57.364 15.828 58.073 15.231 58.727 14.909 59.324 14.862 59.921 14.815 60.621 15.119 61.424 15.772 61.611 15.94 61.774 16.141 61.914 16.374 62.054 16.607 62.152 16.85 62.208 17.102 62.264 17.354 62.278 17.597 62.25 17.83 62.222 18.063 62.152 18.245 62.04 18.376 Z M67.36 27.98 C67.379 28.353 67.313 28.61 67.164 28.75 67.015 28.89 66.753 28.941 66.38 28.904 65.521 28.829 64.845 28.759 64.35 28.694 63.855 28.629 63.431 28.521 63.076 28.372 62.927 28.316 62.857 28.218 62.866 28.078 62.875 27.938 63.029 27.821 63.328 27.728 63.683 27.616 63.967 27.523 64.182 27.448 64.397 27.373 64.555 27.285 64.658 27.182 64.761 27.079 64.831 26.967 64.868 26.846 64.905 26.725 64.933 26.561 64.952 26.356 64.971 26.169 64.924 26.043 64.812 25.978 64.7 25.913 64.541 25.927 64.336 26.02 63.832 26.244 63.421 26.435 63.104 26.594 62.787 26.753 62.507 26.907 62.264 27.056 62.021 27.205 61.788 27.359 61.564 27.518 61.34 27.677 61.088 27.868 60.808 28.092 60.491 28.353 60.113 28.433 59.674 28.33 59.235 28.227 58.848 27.933 58.512 27.448 58.307 27.187 58.162 26.986 58.078 26.846 57.994 26.706 57.905 26.561 57.812 26.412 57.719 26.207 57.635 26.104 57.56 26.104 57.485 26.104 57.327 26.197 57.084 26.384 56.711 26.664 56.393 26.902 56.132 27.098 55.871 27.294 55.647 27.471 55.46 27.63 55.273 27.789 55.115 27.938 54.984 28.078 54.853 28.218 54.732 28.363 54.62 28.512 54.527 28.624 54.391 28.708 54.214 28.764 54.037 28.82 53.85 28.839 53.654 28.82 53.458 28.801 53.267 28.745 53.08 28.652 52.893 28.559 52.744 28.437 52.632 28.288 52.24 27.728 51.946 27.411 51.75 27.336 51.554 27.261 51.307 27.336 51.008 27.56 50.859 27.672 50.672 27.821 50.448 28.008 50.224 28.195 49.991 28.391 49.748 28.596 49.505 28.801 49.258 29.011 49.006 29.226 48.754 29.441 48.535 29.632 48.348 29.8 48.105 30.024 47.877 30.136 47.662 30.136 47.447 30.136 47.209 29.893 46.948 29.408 46.649 28.811 46.523 28.199 46.57 27.574 46.617 26.949 46.901 26.421 47.424 25.992 47.629 25.805 47.774 25.782 47.858 25.922 47.942 26.062 48.021 26.524 48.096 27.308 48.339 27.271 48.712 27.173 49.216 27.014 49.72 26.855 50.28 26.617 50.896 26.3 51.251 26.132 51.652 26.062 52.1 26.09 52.548 26.118 52.865 26.207 53.052 26.356 53.276 26.561 53.635 26.608 54.13 26.496 54.625 26.384 55.18 26.169 55.796 25.852 57.047 25.18 58.064 25.059 58.848 25.488 59.408 25.805 60.029 25.945 60.71 25.908 61.391 25.871 62.301 25.665 63.44 25.292 63.813 25.161 64.126 25.068 64.378 25.012 64.63 24.956 64.849 24.933 65.036 24.942 65.223 24.951 65.395 24.989 65.554 25.054 65.713 25.119 65.885 25.217 66.072 25.348 66.52 25.665 66.842 26.034 67.038 26.454 67.234 26.874 67.341 27.383 67.36 27.98 Z M59.072 18.964 C59.128 18.833 59.165 18.698 59.184 18.558 59.203 18.418 59.189 18.306 59.142 18.222 59.095 18.138 59.011 18.087 58.89 18.068 58.769 18.049 58.615 18.096 58.428 18.208 58.335 18.264 58.148 18.32 57.868 18.376 57.588 18.432 57.285 18.479 56.958 18.516 56.631 18.553 56.319 18.581 56.02 18.6 55.721 18.619 55.516 18.609 55.404 18.572 55.087 18.497 54.877 18.465 54.774 18.474 54.671 18.483 54.583 18.535 54.508 18.628 54.545 18.759 54.578 18.945 54.606 19.188 54.634 19.431 54.662 19.697 54.69 19.986 54.718 20.275 54.746 20.579 54.774 20.896 54.802 21.213 54.825 21.512 54.844 21.792 55.479 21.605 56.029 21.423 56.496 21.246 56.963 21.069 57.355 20.877 57.672 20.672 57.989 20.467 58.26 20.224 58.484 19.944 58.708 19.664 58.904 19.337 59.072 18.964 Z M41.908 27.336 C41.927 27.653 41.88 27.905 41.768 28.092 41.656 28.279 41.385 28.465 40.956 28.652 40.527 28.857 39.906 29.035 39.094 29.184 38.282 29.333 37.447 29.45 36.588 29.534 35.729 29.618 34.922 29.655 34.166 29.646 33.41 29.637 32.873 29.567 32.556 29.436 32.015 29.249 31.571 28.96 31.226 28.568 30.881 28.176 30.633 27.723 30.484 27.21 30.335 26.697 30.274 26.123 30.302 25.488 30.33 24.853 30.447 24.2 30.652 23.528 30.745 23.211 30.815 22.963 30.862 22.786 30.909 22.609 30.918 22.473 30.89 22.38 30.862 22.287 30.806 22.226 30.722 22.198 30.638 22.17 30.521 22.147 30.372 22.128 30.073 22.893 29.686 23.668 29.21 24.452 28.734 25.236 28.221 25.959 27.67 26.622 27.119 27.285 26.569 27.84 26.018 28.288 25.467 28.736 24.977 28.997 24.548 29.072 24.025 29.165 23.717 29.175 23.624 29.1 23.531 29.025 23.54 28.913 23.652 28.764 24.492 28.036 25.248 27.135 25.92 26.062 26.592 24.989 27.264 23.78 27.936 22.436 27.656 21.708 27.46 21.143 27.348 20.742 27.236 20.341 27.18 20.037 27.18 19.832 27.18 19.627 27.18 19.319 27.18 18.908 27.18 18.497 27.185 18.031 27.194 17.508 27.203 16.985 27.208 16.435 27.208 15.856 27.208 15.277 27.208 14.727 27.208 14.204 27.208 13.663 27.199 13.275 27.18 13.042 27.161 12.809 27.133 12.571 27.096 12.328 26.984 11.6 27.171 11.507 27.656 12.048 27.861 12.272 28.029 12.468 28.16 12.636 28.291 12.804 28.393 12.967 28.468 13.126 28.543 13.285 28.599 13.448 28.636 13.616 28.673 13.784 28.701 13.989 28.72 14.232 28.832 15.371 28.832 16.509 28.72 17.648 28.645 18.413 28.608 19.029 28.608 19.496 28.608 19.963 28.636 20.355 28.692 20.672 28.823 20.336 28.963 19.93 29.112 19.454 29.261 18.978 29.401 18.474 29.532 17.942 29.663 17.41 29.775 16.859 29.868 16.29 29.961 15.721 30.027 15.165 30.064 14.624 30.083 14.381 30.087 14.185 30.078 14.036 30.069 13.887 30.027 13.765 29.952 13.672 29.877 13.579 29.765 13.509 29.616 13.462 29.467 13.415 29.261 13.373 29 13.336 28.851 13.299 28.757 13.252 28.72 13.196 28.683 13.14 28.701 13.028 28.776 12.86 28.851 12.655 28.986 12.477 29.182 12.328 29.378 12.179 29.719 12.085 30.204 12.048 30.484 12.029 30.759 12.109 31.03 12.286 31.301 12.463 31.534 12.697 31.73 12.986 31.926 13.275 32.061 13.588 32.136 13.924 32.211 14.26 32.192 14.568 32.08 14.848 31.987 15.072 31.912 15.352 31.856 15.688 31.8 16.024 31.744 16.491 31.688 17.088 31.669 17.312 31.632 17.578 31.576 17.886 31.52 18.194 31.455 18.521 31.38 18.866 31.305 19.211 31.226 19.547 31.142 19.874 31.058 20.201 30.979 20.485 30.904 20.728 31.501 20.299 32.099 20.28 32.696 20.672 32.715 20.056 32.729 19.253 32.738 18.264 32.747 17.275 32.747 16.248 32.738 15.184 32.729 14.12 32.715 13.093 32.696 12.104 32.677 11.115 32.659 10.312 32.64 9.696 32.603 9.211 32.547 8.94 32.472 8.884 32.397 8.828 32.229 9.005 31.968 9.416 31.651 9.957 31.273 10.368 30.834 10.648 30.395 10.928 30.017 11.021 29.7 10.928 29.327 10.797 28.972 10.765 28.636 10.83 28.3 10.895 28.057 10.984 27.908 11.096 27.759 11.227 27.647 11.278 27.572 11.25 27.497 11.222 27.469 11.143 27.488 11.012 27.544 10.601 27.693 10.223 27.936 9.878 28.179 9.533 28.459 9.313 28.776 9.22 29.037 9.108 29.355 8.94 29.728 8.716 30.101 8.492 30.475 8.231 30.848 7.932 31.221 7.615 31.697 7.489 32.276 7.554 32.855 7.619 33.499 7.979 34.208 8.632 34.581 8.987 34.857 9.369 35.034 9.78 35.211 10.191 35.253 10.573 35.16 10.928 35.029 11.264 34.964 11.955 34.964 13 34.964 14.307 34.908 16.556 34.796 19.748 34.759 20.401 34.693 20.961 34.6 21.428 34.507 21.895 34.385 22.287 34.236 22.604 33.825 23.481 33.387 23.64 32.92 23.08 32.472 23.957 32.145 24.667 31.94 25.208 31.735 25.749 31.641 26.169 31.66 26.468 31.679 26.767 31.781 26.977 31.968 27.098 32.155 27.219 32.416 27.308 32.752 27.364 33.051 27.42 33.443 27.429 33.928 27.392 34.413 27.355 34.917 27.289 35.44 27.196 35.963 27.103 36.457 26.995 36.924 26.874 37.391 26.753 37.764 26.636 38.044 26.524 38.809 26.151 39.379 25.651 39.752 25.026 40.125 24.401 40.303 23.715 40.284 22.968 40.284 22.763 40.321 22.646 40.396 22.618 40.471 22.59 40.592 22.707 40.76 22.968 40.909 23.192 41.049 23.481 41.18 23.836 41.311 24.191 41.427 24.569 41.53 24.97 41.633 25.371 41.717 25.777 41.782 26.188 41.847 26.599 41.889 26.981 41.908 27.336 Z M26.564 22.688 C26.62 22.856 26.615 23.019 26.55 23.178 26.485 23.337 26.387 23.467 26.256 23.57 26.125 23.673 25.985 23.733 25.836 23.752 25.687 23.771 25.547 23.733 25.416 23.64 24.427 23.024 23.577 22.585 22.868 22.324 22.271 23.108 21.645 23.789 20.992 24.368 20.339 24.947 19.685 25.395 19.032 25.712 18.883 25.787 18.743 25.833 18.612 25.852 18.481 25.871 18.337 25.805 18.178 25.656 18.019 25.507 17.833 25.241 17.618 24.858 17.403 24.475 17.128 23.92 16.792 23.192 16.68 22.968 16.624 22.688 16.624 22.352 16.624 22.016 16.68 21.657 16.792 21.274 16.904 20.891 17.081 20.509 17.324 20.126 17.567 19.743 17.875 19.393 18.248 19.076 18.845 18.516 20.049 18.535 21.86 19.132 22.271 18.329 22.546 17.723 22.686 17.312 22.826 16.901 22.887 16.617 22.868 16.458 22.849 16.299 22.775 16.248 22.644 16.304 22.513 16.36 22.392 16.444 22.28 16.556 22.056 16.78 21.865 16.934 21.706 17.018 21.547 17.102 21.37 17.097 21.174 17.004 20.978 16.911 20.735 16.724 20.446 16.444 20.157 16.164 19.769 15.772 19.284 15.268 19.135 15.1 19.083 14.983 19.13 14.918 19.177 14.853 19.293 14.839 19.48 14.876 19.741 14.951 20.012 14.885 20.292 14.68 20.572 14.475 20.796 14.279 20.964 14.092 21.487 13.42 21.953 12.902 22.364 12.538 22.775 12.174 23.148 11.931 23.484 11.81 23.82 11.689 24.123 11.679 24.394 11.782 24.665 11.885 24.94 12.076 25.22 12.356 25.5 12.655 25.71 12.902 25.85 13.098 25.99 13.294 26.079 13.504 26.116 13.728 26.153 13.952 26.144 14.227 26.088 14.554 26.032 14.881 25.939 15.305 25.808 15.828 25.696 16.239 25.5 16.845 25.22 17.648 24.94 18.451 24.595 19.281 24.184 20.14 24.893 20.513 25.425 20.873 25.78 21.218 26.135 21.563 26.396 22.053 26.564 22.688 Z M20.628 21.316 C19.975 21.017 19.457 20.793 19.074 20.644 18.691 20.495 18.393 20.42 18.178 20.42 17.963 20.42 17.795 20.485 17.674 20.616 17.553 20.747 17.436 20.933 17.324 21.176 17.1 21.587 16.974 21.941 16.946 22.24 16.918 22.539 16.979 22.856 17.128 23.192 17.371 23.715 17.679 24.004 18.052 24.06 18.425 24.116 18.715 24.013 18.92 23.752 19.181 23.453 19.48 23.066 19.816 22.59 20.152 22.114 20.423 21.689 20.628 21.316 Z" fill="#ffffff" fill-opacity="1" stroke="none"/>
</svg>
